STARTFONT 2.1
COMMENT
COMMENT Converted from OpenType font "FiraCode-Regular.ttf" by "otf2bdf 3.0".
COMMENT
FONT -FreeType-Fira Code-Medium-R-Normal--11-80-100-100-P-59-ISO10646-1
SIZE 8 100 100
FONTBOUNDINGBOX 18 20 -4 -6
STARTPROPERTIES 19
FOUNDRY "FreeType"
FAMILY_NAME "Fira Code"
WEIGHT_NAME "Medium"
SLANT "R"
SETWIDTH_NAME "Normal"
ADD_STYLE_NAME ""
PIXEL_SIZE 11
POINT_SIZE 80
RESOLUTION_X 100
RESOLUTION_Y 100
SPACING "P"
AVERAGE_WIDTH 59
CHARSET_REGISTRY "ISO10646"
CHARSET_ENCODING "1"
FONT_ASCENT 10
FONT_DESCENT 3
COPYRIGHT "Copyright 2014-2021 The Fira Code Project Authors (https://github.com/tonsky/FiraCode)"
_OTF_FONTFILE "FiraCode-Regular.ttf"
_OTF_PSNAME "FiraCode-Regular"
ENDPROPERTIES
CHARS 1577
STARTCHAR 000D
ENCODING 13
SWIDTH 630 0
DWIDTH 7 0
BBX 0 0 0 0
BITMAP
ENDCHAR
STARTCHAR 0020
ENCODING 32
SWIDTH 630 0
DWIDTH 7 0
BBX 0 0 0 0
BITMAP
ENDCHAR
STARTCHAR 0021
ENCODING 33
SWIDTH 630 0
DWIDTH 7 0
BBX 1 8 3 0
BITMAP
80
80
80
80
80
00
00
80
ENDCHAR
STARTCHAR 0022
ENCODING 34
SWIDTH 630 0
DWIDTH 7 0
BBX 3 3 2 5
BITMAP
A0
A0
A0
ENDCHAR
STARTCHAR 0023
ENCODING 35
SWIDTH 630 0
DWIDTH 7 0
BBX 5 8 1 0
BITMAP
48
50
F8
50
50
F8
90
90
ENDCHAR
STARTCHAR 0024
ENCODING 36
SWIDTH 630 0
DWIDTH 7 0
BBX 5 11 1 -1
BITMAP
20
20
70
A8
A0
60
38
28
A8
F0
20
ENDCHAR
STARTCHAR 0025
ENCODING 37
SWIDTH 630 0
DWIDTH 7 0
BBX 7 8 0 0
BITMAP
64
94
98
70
1C
32
52
8C
ENDCHAR
STARTCHAR 0026
ENCODING 38
SWIDTH 630 0
DWIDTH 7 0
BBX 6 8 1 0
BITMAP
70
80
80
7C
88
88
88
F0
ENDCHAR
STARTCHAR 0027
ENCODING 39
SWIDTH 630 0
DWIDTH 7 0
BBX 1 3 3 5
BITMAP
80
80
80
ENDCHAR
STARTCHAR 0028
ENCODING 40
SWIDTH 630 0
DWIDTH 7 0
BBX 4 12 1 -2
BITMAP
10
20
40
40
40
80
80
40
40
40
20
10
ENDCHAR
STARTCHAR 0029
ENCODING 41
SWIDTH 630 0
DWIDTH 7 0
BBX 3 12 2 -2
BITMAP
80
40
40
20
20
20
20
20
20
40
40
80
ENDCHAR
STARTCHAR 002A
ENCODING 42
SWIDTH 630 0
DWIDTH 7 0
BBX 5 5 1 1
BITMAP
20
20
F8
60
D0
ENDCHAR
STARTCHAR 002B
ENCODING 43
SWIDTH 630 0
DWIDTH 7 0
BBX 5 5 1 1
BITMAP
20
20
F8
20
20
ENDCHAR
STARTCHAR 002C
ENCODING 44
SWIDTH 630 0
DWIDTH 7 0
BBX 2 4 2 -2
BITMAP
C0
40
40
80
ENDCHAR
STARTCHAR 002D
ENCODING 45
SWIDTH 630 0
DWIDTH 7 0
BBX 5 1 1 3
BITMAP
F8
ENDCHAR
STARTCHAR 002E
ENCODING 46
SWIDTH 630 0
DWIDTH 7 0
BBX 2 2 2 0
BITMAP
40
C0
ENDCHAR
STARTCHAR 002F
ENCODING 47
SWIDTH 630 0
DWIDTH 7 0
BBX 5 10 1 -1
BITMAP
08
08
10
10
20
20
40
40
80
80
ENDCHAR
STARTCHAR 0030
ENCODING 48
SWIDTH 630 0
DWIDTH 7 0
BBX 5 8 1 0
BITMAP
70
98
98
A8
A8
C8
C8
70
ENDCHAR
STARTCHAR 0031
ENCODING 49
SWIDTH 630 0
DWIDTH 7 0
BBX 5 8 1 0
BITMAP
20
E0
20
20
20
20
20
F8
ENDCHAR
STARTCHAR 0032
ENCODING 50
SWIDTH 630 0
DWIDTH 7 0
BBX 5 8 1 0
BITMAP
F0
90
10
10
30
20
40
F8
ENDCHAR
STARTCHAR 0033
ENCODING 51
SWIDTH 630 0
DWIDTH 7 0
BBX 5 8 1 0
BITMAP
F0
10
10
60
18
08
98
F0
ENDCHAR
STARTCHAR 0034
ENCODING 52
SWIDTH 630 0
DWIDTH 7 0
BBX 5 8 1 0
BITMAP
20
40
40
50
90
F8
10
10
ENDCHAR
STARTCHAR 0035
ENCODING 53
SWIDTH 630 0
DWIDTH 7 0
BBX 5 8 1 0
BITMAP
F8
80
80
F0
08
08
08
F0
ENDCHAR
STARTCHAR 0036
ENCODING 54
SWIDTH 630 0
DWIDTH 7 0
BBX 5 8 1 0
BITMAP
70
C0
80
F0
88
88
88
70
ENDCHAR
STARTCHAR 0037
ENCODING 55
SWIDTH 630 0
DWIDTH 7 0
BBX 5 8 1 0
BITMAP
F8
10
10
10
20
20
40
40
ENDCHAR
STARTCHAR 0038
ENCODING 56
SWIDTH 630 0
DWIDTH 7 0
BBX 5 8 1 0
BITMAP
70
88
88
70
98
88
88
70
ENDCHAR
STARTCHAR 0039
ENCODING 57
SWIDTH 630 0
DWIDTH 7 0
BBX 5 8 1 0
BITMAP
70
88
88
98
68
10
30
C0
ENDCHAR
STARTCHAR 003A
ENCODING 58
SWIDTH 630 0
DWIDTH 7 0
BBX 2 6 2 0
BITMAP
C0
40
00
00
40
C0
ENDCHAR
STARTCHAR 003B
ENCODING 59
SWIDTH 630 0
DWIDTH 7 0
BBX 2 8 2 -2
BITMAP
C0
40
00
00
C0
40
40
80
ENDCHAR
STARTCHAR 003C
ENCODING 60
SWIDTH 630 0
DWIDTH 7 0
BBX 5 7 1 0
BITMAP
08
30
40
80
60
10
08
ENDCHAR
STARTCHAR 003D
ENCODING 61
SWIDTH 630 0
DWIDTH 7 0
BBX 5 3 1 2
BITMAP
F8
00
F8
ENDCHAR
STARTCHAR 003E
ENCODING 62
SWIDTH 630 0
DWIDTH 7 0
BBX 5 7 1 0
BITMAP
80
60
10
08
30
40
80
ENDCHAR
STARTCHAR 003F
ENCODING 63
SWIDTH 630 0
DWIDTH 7 0
BBX 5 8 1 0
BITMAP
70
88
18
30
20
20
00
60
ENDCHAR
STARTCHAR 0040
ENCODING 64
SWIDTH 630 0
DWIDTH 7 0
BBX 7 9 0 -1
BITMAP
78
84
04
72
92
92
92
74
0C
ENDCHAR
STARTCHAR 0041
ENCODING 65
SWIDTH 630 0
DWIDTH 7 0
BBX 7 8 0 0
BITMAP
10
28
28
28
48
7C
44
86
ENDCHAR
STARTCHAR 0042
ENCODING 66
SWIDTH 630 0
DWIDTH 7 0
BBX 5 8 1 0
BITMAP
F0
88
88
F0
88
88
88
F0
ENDCHAR
STARTCHAR 0043
ENCODING 67
SWIDTH 630 0
DWIDTH 7 0
BBX 5 8 1 0
BITMAP
78
80
80
80
80
80
80
78
ENDCHAR
STARTCHAR 0044
ENCODING 68
SWIDTH 630 0
DWIDTH 7 0
BBX 5 8 1 0
BITMAP
F0
88
88
88
88
88
88
F0
ENDCHAR
STARTCHAR 0045
ENCODING 69
SWIDTH 630 0
DWIDTH 7 0
BBX 5 8 1 0
BITMAP
F8
80
80
80
F0
80
80
F8
ENDCHAR
STARTCHAR 0046
ENCODING 70
SWIDTH 630 0
DWIDTH 7 0
BBX 4 8 2 0
BITMAP
F0
80
80
80
F0
80
80
80
ENDCHAR
STARTCHAR 0047
ENCODING 71
SWIDTH 630 0
DWIDTH 7 0
BBX 5 8 1 0
BITMAP
78
88
80
80
B8
88
88
78
ENDCHAR
STARTCHAR 0048
ENCODING 72
SWIDTH 630 0
DWIDTH 7 0
BBX 5 8 1 0
BITMAP
88
88
88
F8
88
88
88
88
ENDCHAR
STARTCHAR 0049
ENCODING 73
SWIDTH 630 0
DWIDTH 7 0
BBX 5 8 1 0
BITMAP
F8
20
20
20
20
20
20
F8
ENDCHAR
STARTCHAR 004A
ENCODING 74
SWIDTH 630 0
DWIDTH 7 0
BBX 5 8 1 0
BITMAP
78
08
08
08
08
08
10
F0
ENDCHAR
STARTCHAR 004B
ENCODING 75
SWIDTH 630 0
DWIDTH 7 0
BBX 6 8 1 0
BITMAP
88
90
A0
E0
A0
90
98
8C
ENDCHAR
STARTCHAR 004C
ENCODING 76
SWIDTH 630 0
DWIDTH 7 0
BBX 4 8 2 0
BITMAP
80
80
80
80
80
80
80
F0
ENDCHAR
STARTCHAR 004D
ENCODING 77
SWIDTH 630 0
DWIDTH 7 0
BBX 6 8 0 0
BITMAP
44
6C
6C
6C
AC
94
94
84
ENDCHAR
STARTCHAR 004E
ENCODING 78
SWIDTH 630 0
DWIDTH 7 0
BBX 5 8 1 0
BITMAP
88
C8
C8
A8
A8
A8
98
98
ENDCHAR
STARTCHAR 004F
ENCODING 79
SWIDTH 630 0
DWIDTH 7 0
BBX 5 8 1 0
BITMAP
70
88
88
88
88
88
88
70
ENDCHAR
STARTCHAR 0050
ENCODING 80
SWIDTH 630 0
DWIDTH 7 0
BBX 5 8 1 0
BITMAP
F0
88
88
88
F0
80
80
80
ENDCHAR
STARTCHAR 0051
ENCODING 81
SWIDTH 630 0
DWIDTH 7 0
BBX 6 10 1 -2
BITMAP
70
88
88
88
88
88
88
70
08
04
ENDCHAR
STARTCHAR 0052
ENCODING 82
SWIDTH 630 0
DWIDTH 7 0
BBX 6 8 1 0
BITMAP
F0
88
88
88
F0
90
90
8C
ENDCHAR
STARTCHAR 0053
ENCODING 83
SWIDTH 630 0
DWIDTH 7 0
BBX 6 8 0 0
BITMAP
38
44
40
30
0C
04
44
F8
ENDCHAR
STARTCHAR 0054
ENCODING 84
SWIDTH 630 0
DWIDTH 7 0
BBX 6 8 0 0
BITMAP
FC
10
10
10
10
10
10
10
ENDCHAR
STARTCHAR 0055
ENCODING 85
SWIDTH 630 0
DWIDTH 7 0
BBX 5 8 1 0
BITMAP
88
88
88
88
88
88
88
70
ENDCHAR
STARTCHAR 0056
ENCODING 86
SWIDTH 630 0
DWIDTH 7 0
BBX 7 8 0 0
BITMAP
86
44
44
48
28
28
30
10
ENDCHAR
STARTCHAR 0057
ENCODING 87
SWIDTH 630 0
DWIDTH 7 0
BBX 7 8 0 0
BITMAP
82
92
94
AC
6C
6C
6C
6C
ENDCHAR
STARTCHAR 0058
ENCODING 88
SWIDTH 630 0
DWIDTH 7 0
BBX 6 8 0 0
BITMAP
44
68
28
10
30
28
44
C4
ENDCHAR
STARTCHAR 0059
ENCODING 89
SWIDTH 630 0
DWIDTH 7 0
BBX 7 8 0 0
BITMAP
C6
44
28
28
10
10
10
10
ENDCHAR
STARTCHAR 005A
ENCODING 90
SWIDTH 630 0
DWIDTH 7 0
BBX 5 8 1 0
BITMAP
F8
08
10
20
20
40
80
F8
ENDCHAR
STARTCHAR 005B
ENCODING 91
SWIDTH 630 0
DWIDTH 7 0
BBX 3 11 2 -1
BITMAP
E0
80
80
80
80
80
80
80
80
80
E0
ENDCHAR
STARTCHAR 005C
ENCODING 92
SWIDTH 630 0
DWIDTH 7 0
BBX 5 10 1 -1
BITMAP
80
80
40
40
20
20
10
10
08
08
ENDCHAR
STARTCHAR 005D
ENCODING 93
SWIDTH 630 0
DWIDTH 7 0
BBX 3 11 2 -1
BITMAP
E0
20
20
20
20
20
20
20
20
20
E0
ENDCHAR
STARTCHAR 005E
ENCODING 94
SWIDTH 630 0
DWIDTH 7 0
BBX 5 4 1 6
BITMAP
20
60
50
88
ENDCHAR
STARTCHAR 005F
ENCODING 95
SWIDTH 630 0
DWIDTH 7 0
BBX 5 1 1 -2
BITMAP
F8
ENDCHAR
STARTCHAR 0060
ENCODING 96
SWIDTH 630 0
DWIDTH 7 0
BBX 3 2 2 7
BITMAP
80
60
ENDCHAR
STARTCHAR 0061
ENCODING 97
SWIDTH 630 0
DWIDTH 7 0
BBX 5 6 1 0
BITMAP
F0
10
70
90
90
E8
ENDCHAR
STARTCHAR 0062
ENCODING 98
SWIDTH 630 0
DWIDTH 7 0
BBX 5 8 1 0
BITMAP
80
80
F0
88
88
88
88
F0
ENDCHAR
STARTCHAR 0063
ENCODING 99
SWIDTH 630 0
DWIDTH 7 0
BBX 5 6 1 0
BITMAP
78
80
80
80
80
78
ENDCHAR
STARTCHAR 0064
ENCODING 100
SWIDTH 630 0
DWIDTH 7 0
BBX 5 8 1 0
BITMAP
08
08
78
88
88
88
88
78
ENDCHAR
STARTCHAR 0065
ENCODING 101
SWIDTH 630 0
DWIDTH 7 0
BBX 5 6 1 0
BITMAP
70
88
F8
80
80
78
ENDCHAR
STARTCHAR 0066
ENCODING 102
SWIDTH 630 0
DWIDTH 7 0
BBX 5 8 1 0
BITMAP
38
40
F0
40
40
40
40
40
ENDCHAR
STARTCHAR 0067
ENCODING 103
SWIDTH 630 0
DWIDTH 7 0
BBX 5 9 1 -2
BITMAP
08
78
88
98
70
80
70
08
F8
ENDCHAR
STARTCHAR 0068
ENCODING 104
SWIDTH 630 0
DWIDTH 7 0
BBX 5 8 1 0
BITMAP
80
80
F0
88
88
88
88
88
ENDCHAR
STARTCHAR 0069
ENCODING 105
SWIDTH 630 0
DWIDTH 7 0
BBX 5 8 1 0
BITMAP
20
00
E0
20
20
20
20
F8
ENDCHAR
STARTCHAR 006A
ENCODING 106
SWIDTH 630 0
DWIDTH 7 0
BBX 4 10 1 -2
BITMAP
30
00
70
10
10
10
10
10
10
E0
ENDCHAR
STARTCHAR 006B
ENCODING 107
SWIDTH 630 0
DWIDTH 7 0
BBX 5 8 1 0
BITMAP
80
80
98
B0
E0
A0
90
88
ENDCHAR
STARTCHAR 006C
ENCODING 108
SWIDTH 630 0
DWIDTH 7 0
BBX 5 8 1 0
BITMAP
C0
20
20
20
20
20
20
38
ENDCHAR
STARTCHAR 006D
ENCODING 109
SWIDTH 630 0
DWIDTH 7 0
BBX 5 6 1 0
BITMAP
F8
A8
A8
A8
A8
A8
ENDCHAR
STARTCHAR 006E
ENCODING 110
SWIDTH 630 0
DWIDTH 7 0
BBX 5 6 1 0
BITMAP
F0
88
88
88
88
88
ENDCHAR
STARTCHAR 006F
ENCODING 111
SWIDTH 630 0
DWIDTH 7 0
BBX 5 6 1 0
BITMAP
70
88
88
88
88
70
ENDCHAR
STARTCHAR 0070
ENCODING 112
SWIDTH 630 0
DWIDTH 7 0
BBX 5 8 1 -2
BITMAP
F0
88
88
88
88
F0
80
80
ENDCHAR
STARTCHAR 0071
ENCODING 113
SWIDTH 630 0
DWIDTH 7 0
BBX 5 8 1 -2
BITMAP
78
88
88
88
88
78
08
08
ENDCHAR
STARTCHAR 0072
ENCODING 114
SWIDTH 630 0
DWIDTH 7 0
BBX 5 6 1 0
BITMAP
D8
68
40
40
40
E0
ENDCHAR
STARTCHAR 0073
ENCODING 115
SWIDTH 630 0
DWIDTH 7 0
BBX 5 6 1 0
BITMAP
78
80
60
18
08
F0
ENDCHAR
STARTCHAR 0074
ENCODING 116
SWIDTH 630 0
DWIDTH 7 0
BBX 5 7 1 0
BITMAP
40
F0
40
40
40
40
38
ENDCHAR
STARTCHAR 0075
ENCODING 117
SWIDTH 630 0
DWIDTH 7 0
BBX 5 6 1 0
BITMAP
88
88
88
88
88
78
ENDCHAR
STARTCHAR 0076
ENCODING 118
SWIDTH 630 0
DWIDTH 7 0
BBX 5 6 1 0
BITMAP
88
88
50
50
50
20
ENDCHAR
STARTCHAR 0077
ENCODING 119
SWIDTH 630 0
DWIDTH 7 0
BBX 7 6 0 0
BITMAP
82
94
74
6C
6C
6C
ENDCHAR
STARTCHAR 0078
ENCODING 120
SWIDTH 630 0
DWIDTH 7 0
BBX 5 6 1 0
BITMAP
88
50
20
60
50
88
ENDCHAR
STARTCHAR 0079
ENCODING 121
SWIDTH 630 0
DWIDTH 7 0
BBX 5 8 1 -2
BITMAP
88
88
50
50
50
20
20
C0
ENDCHAR
STARTCHAR 007A
ENCODING 122
SWIDTH 630 0
DWIDTH 7 0
BBX 5 6 1 0
BITMAP
F8
10
20
60
40
F8
ENDCHAR
STARTCHAR 007B
ENCODING 123
SWIDTH 630 0
DWIDTH 7 0
BBX 4 11 1 -2
BITMAP
30
20
20
20
20
C0
20
20
20
20
30
ENDCHAR
STARTCHAR 007C
ENCODING 124
SWIDTH 630 0
DWIDTH 7 0
BBX 1 10 3 -1
BITMAP
80
80
80
80
80
80
80
80
80
80
ENDCHAR
STARTCHAR 007D
ENCODING 125
SWIDTH 630 0
DWIDTH 7 0
BBX 4 11 2 -2
BITMAP
80
40
40
40
40
30
40
40
40
40
80
ENDCHAR
STARTCHAR 007E
ENCODING 126
SWIDTH 630 0
DWIDTH 7 0
BBX 6 2 0 2
BITMAP
64
DC
ENDCHAR
STARTCHAR 00A0
ENCODING 160
SWIDTH 630 0
DWIDTH 7 0
BBX 0 0 0 0
BITMAP
ENDCHAR
STARTCHAR 00A1
ENCODING 161
SWIDTH 630 0
DWIDTH 7 0
BBX 1 8 3 -2
BITMAP
80
80
00
80
80
80
80
80
ENDCHAR
STARTCHAR 00A2
ENCODING 162
SWIDTH 630 0
DWIDTH 7 0
BBX 5 9 1 -1
BITMAP
20
30
48
80
80
80
48
30
20
ENDCHAR
STARTCHAR 00A3
ENCODING 163
SWIDTH 630 0
DWIDTH 7 0
BBX 5 8 1 0
BITMAP
78
40
40
F0
40
40
40
F8
ENDCHAR
STARTCHAR 00A4
ENCODING 164
SWIDTH 630 0
DWIDTH 7 0
BBX 6 7 0 0
BITMAP
C4
7C
44
44
44
FC
44
ENDCHAR
STARTCHAR 00A5
ENCODING 165
SWIDTH 630 0
DWIDTH 7 0
BBX 6 8 0 0
BITMAP
C4
44
28
28
7C
10
7C
10
ENDCHAR
STARTCHAR 00A6
ENCODING 166
SWIDTH 630 0
DWIDTH 7 0
BBX 1 10 3 -1
BITMAP
80
80
80
80
00
00
80
80
80
80
ENDCHAR
STARTCHAR 00A7
ENCODING 167
SWIDTH 630 0
DWIDTH 7 0
BBX 5 9 1 -1
BITMAP
78
80
40
70
88
70
10
10
F0
ENDCHAR
STARTCHAR 00A8
ENCODING 168
SWIDTH 630 0
DWIDTH 7 0
BBX 3 1 2 7
BITMAP
A0
ENDCHAR
STARTCHAR 00A9
ENCODING 169
SWIDTH 630 0
DWIDTH 7 0
BBX 7 7 0 1
BITMAP
38
7C
A2
A2
A2
7C
38
ENDCHAR
STARTCHAR 00AA
ENCODING 170
SWIDTH 630 0
DWIDTH 7 0
BBX 5 9 1 0
BITMAP
70
10
70
90
68
00
00
00
F8
ENDCHAR
STARTCHAR 00AB
ENCODING 171
SWIDTH 630 0
DWIDTH 7 0
BBX 5 5 1 1
BITMAP
68
50
A0
D0
68
ENDCHAR
STARTCHAR 00AC
ENCODING 172
SWIDTH 630 0
DWIDTH 7 0
BBX 5 2 1 2
BITMAP
F8
08
ENDCHAR
STARTCHAR 00AD
ENCODING 173
SWIDTH 630 0
DWIDTH 7 0
BBX 3 1 2 3
BITMAP
E0
ENDCHAR
STARTCHAR 00AE
ENCODING 174
SWIDTH 630 0
DWIDTH 7 0
BBX 5 6 1 2
BITMAP
70
F8
E8
D8
88
70
ENDCHAR
STARTCHAR 00AF
ENCODING 175
SWIDTH 630 0
DWIDTH 7 0
BBX 3 1 2 7
BITMAP
E0
ENDCHAR
STARTCHAR 00B0
ENCODING 176
SWIDTH 630 0
DWIDTH 7 0
BBX 3 4 1 5
BITMAP
E0
A0
A0
E0
ENDCHAR
STARTCHAR 00B1
ENCODING 177
SWIDTH 630 0
DWIDTH 7 0
BBX 5 6 1 0
BITMAP
20
20
F8
20
00
F8
ENDCHAR
STARTCHAR 00B2
ENCODING 178
SWIDTH 630 0
DWIDTH 7 0
BBX 3 4 2 4
BITMAP
E0
20
40
E0
ENDCHAR
STARTCHAR 00B3
ENCODING 179
SWIDTH 630 0
DWIDTH 7 0
BBX 3 4 2 4
BITMAP
E0
20
60
E0
ENDCHAR
STARTCHAR 00B4
ENCODING 180
SWIDTH 630 0
DWIDTH 7 0
BBX 3 2 2 7
BITMAP
60
80
ENDCHAR
STARTCHAR 00B5
ENCODING 181
SWIDTH 630 0
DWIDTH 7 0
BBX 5 8 1 -2
BITMAP
88
88
88
88
98
E8
80
80
ENDCHAR
STARTCHAR 00B6
ENCODING 182
SWIDTH 630 0
DWIDTH 7 0
BBX 6 10 0 -2
BITMAP
7C
74
F4
74
14
14
14
14
14
14
ENDCHAR
STARTCHAR 00B7
ENCODING 183
SWIDTH 630 0
DWIDTH 7 0
BBX 2 2 2 3
BITMAP
40
C0
ENDCHAR
STARTCHAR 00B8
ENCODING 184
SWIDTH 630 0
DWIDTH 7 0
BBX 3 3 2 -3
BITMAP
40
20
C0
ENDCHAR
STARTCHAR 00B9
ENCODING 185
SWIDTH 630 0
DWIDTH 7 0
BBX 3 4 2 4
BITMAP
60
A0
20
20
ENDCHAR
STARTCHAR 00BA
ENCODING 186
SWIDTH 630 0
DWIDTH 7 0
BBX 5 9 1 0
BITMAP
70
88
88
88
70
00
00
00
F8
ENDCHAR
STARTCHAR 00BB
ENCODING 187
SWIDTH 630 0
DWIDTH 7 0
BBX 5 5 1 1
BITMAP
A0
50
68
50
B0
ENDCHAR
STARTCHAR 00BC
ENCODING 188
SWIDTH 630 0
DWIDTH 7 0
BBX 7 8 0 0
BITMAP
40
C0
42
4C
3C
C8
0C
1E
ENDCHAR
STARTCHAR 00BD
ENCODING 189
SWIDTH 630 0
DWIDTH 7 0
BBX 7 8 0 0
BITMAP
40
C0
42
4C
7C
82
04
0E
ENDCHAR
STARTCHAR 00BE
ENCODING 190
SWIDTH 630 0
DWIDTH 7 0
BBX 7 8 0 0
BITMAP
E0
20
60
EE
34
C8
0C
1E
ENDCHAR
STARTCHAR 00BF
ENCODING 191
SWIDTH 630 0
DWIDTH 7 0
BBX 5 8 1 -2
BITMAP
20
20
00
20
20
C0
88
70
ENDCHAR
STARTCHAR 00C0
ENCODING 192
SWIDTH 630 0
DWIDTH 7 0
BBX 7 10 0 0
BITMAP
30
08
10
28
28
28
48
7C
44
86
ENDCHAR
STARTCHAR 00C1
ENCODING 193
SWIDTH 630 0
DWIDTH 7 0
BBX 7 10 0 0
BITMAP
18
20
10
28
28
28
48
7C
44
86
ENDCHAR
STARTCHAR 00C2
ENCODING 194
SWIDTH 630 0
DWIDTH 7 0
BBX 7 10 0 0
BITMAP
30
28
10
28
28
28
48
7C
44
86
ENDCHAR
STARTCHAR 00C3
ENCODING 195
SWIDTH 630 0
DWIDTH 7 0
BBX 7 10 0 0
BITMAP
38
38
10
28
28
28
48
7C
44
86
ENDCHAR
STARTCHAR 00C4
ENCODING 196
SWIDTH 630 0
DWIDTH 7 0
BBX 7 9 0 0
BITMAP
28
10
28
28
28
48
7C
44
86
ENDCHAR
STARTCHAR 00C5
ENCODING 197
SWIDTH 630 0
DWIDTH 7 0
BBX 7 11 0 0
BITMAP
10
28
10
10
28
28
28
48
7C
44
86
ENDCHAR
STARTCHAR 00C6
ENCODING 198
SWIDTH 630 0
DWIDTH 7 0
BBX 7 8 0 0
BITMAP
3C
30
50
50
5C
78
88
8E
ENDCHAR
STARTCHAR 00C7
ENCODING 199
SWIDTH 630 0
DWIDTH 7 0
BBX 5 11 1 -3
BITMAP
78
80
80
80
80
80
80
78
20
10
30
ENDCHAR
STARTCHAR 00C8
ENCODING 200
SWIDTH 630 0
DWIDTH 7 0
BBX 5 10 1 0
BITMAP
70
00
F8
80
80
80
F0
80
80
F8
ENDCHAR
STARTCHAR 00C9
ENCODING 201
SWIDTH 630 0
DWIDTH 7 0
BBX 5 10 1 0
BITMAP
70
00
F8
80
80
80
F0
80
80
F8
ENDCHAR
STARTCHAR 00CA
ENCODING 202
SWIDTH 630 0
DWIDTH 7 0
BBX 5 10 1 0
BITMAP
30
48
F8
80
80
80
F0
80
80
F8
ENDCHAR
STARTCHAR 00CB
ENCODING 203
SWIDTH 630 0
DWIDTH 7 0
BBX 5 9 1 0
BITMAP
50
F8
80
80
80
F0
80
80
F8
ENDCHAR
STARTCHAR 00CC
ENCODING 204
SWIDTH 630 0
DWIDTH 7 0
BBX 5 10 1 0
BITMAP
60
10
F8
20
20
20
20
20
20
F8
ENDCHAR
STARTCHAR 00CD
ENCODING 205
SWIDTH 630 0
DWIDTH 7 0
BBX 5 10 1 0
BITMAP
30
40
F8
20
20
20
20
20
20
F8
ENDCHAR
STARTCHAR 00CE
ENCODING 206
SWIDTH 630 0
DWIDTH 7 0
BBX 5 10 1 0
BITMAP
60
50
F8
20
20
20
20
20
20
F8
ENDCHAR
STARTCHAR 00CF
ENCODING 207
SWIDTH 630 0
DWIDTH 7 0
BBX 5 9 1 0
BITMAP
50
F8
20
20
20
20
20
20
F8
ENDCHAR
STARTCHAR 00D0
ENCODING 208
SWIDTH 630 0
DWIDTH 7 0
BBX 6 8 0 0
BITMAP
78
44
44
44
F4
44
44
78
ENDCHAR
STARTCHAR 00D1
ENCODING 209
SWIDTH 630 0
DWIDTH 7 0
BBX 5 10 1 0
BITMAP
70
70
88
C8
C8
A8
A8
A8
98
98
ENDCHAR
STARTCHAR 00D2
ENCODING 210
SWIDTH 630 0
DWIDTH 7 0
BBX 5 10 1 0
BITMAP
60
10
70
88
88
88
88
88
88
70
ENDCHAR
STARTCHAR 00D3
ENCODING 211
SWIDTH 630 0
DWIDTH 7 0
BBX 5 10 1 0
BITMAP
30
40
70
88
88
88
88
88
88
70
ENDCHAR
STARTCHAR 00D4
ENCODING 212
SWIDTH 630 0
DWIDTH 7 0
BBX 5 10 1 0
BITMAP
60
50
70
88
88
88
88
88
88
70
ENDCHAR
STARTCHAR 00D5
ENCODING 213
SWIDTH 630 0
DWIDTH 7 0
BBX 5 10 1 0
BITMAP
70
70
70
88
88
88
88
88
88
70
ENDCHAR
STARTCHAR 00D6
ENCODING 214
SWIDTH 630 0
DWIDTH 7 0
BBX 5 9 1 0
BITMAP
50
70
88
88
88
88
88
88
70
ENDCHAR
STARTCHAR 00D7
ENCODING 215
SWIDTH 630 0
DWIDTH 7 0
BBX 4 5 1 1
BITMAP
50
D0
20
D0
50
ENDCHAR
STARTCHAR 00D8
ENCODING 216
SWIDTH 630 0
DWIDTH 7 0
BBX 5 10 1 -1
BITMAP
10
70
98
A8
A8
A8
C8
C8
70
C0
ENDCHAR
STARTCHAR 00D9
ENCODING 217
SWIDTH 630 0
DWIDTH 7 0
BBX 5 10 1 0
BITMAP
60
10
88
88
88
88
88
88
88
70
ENDCHAR
STARTCHAR 00DA
ENCODING 218
SWIDTH 630 0
DWIDTH 7 0
BBX 5 10 1 0
BITMAP
30
40
88
88
88
88
88
88
88
70
ENDCHAR
STARTCHAR 00DB
ENCODING 219
SWIDTH 630 0
DWIDTH 7 0
BBX 5 10 1 0
BITMAP
60
50
88
88
88
88
88
88
88
70
ENDCHAR
STARTCHAR 00DC
ENCODING 220
SWIDTH 630 0
DWIDTH 7 0
BBX 5 9 1 0
BITMAP
50
88
88
88
88
88
88
88
70
ENDCHAR
STARTCHAR 00DD
ENCODING 221
SWIDTH 630 0
DWIDTH 7 0
BBX 7 10 0 0
BITMAP
18
20
C6
44
28
28
10
10
10
10
ENDCHAR
STARTCHAR 00DE
ENCODING 222
SWIDTH 630 0
DWIDTH 7 0
BBX 5 8 1 0
BITMAP
80
F0
88
88
88
88
F0
80
ENDCHAR
STARTCHAR 00DF
ENCODING 223
SWIDTH 630 0
DWIDTH 7 0
BBX 5 8 1 0
BITMAP
70
90
90
A0
90
88
88
B8
ENDCHAR
STARTCHAR 00E0
ENCODING 224
SWIDTH 630 0
DWIDTH 7 0
BBX 5 9 1 0
BITMAP
40
30
00
F0
10
70
90
90
E8
ENDCHAR
STARTCHAR 00E1
ENCODING 225
SWIDTH 630 0
DWIDTH 7 0
BBX 5 9 1 0
BITMAP
30
40
00
F0
10
70
90
90
E8
ENDCHAR
STARTCHAR 00E2
ENCODING 226
SWIDTH 630 0
DWIDTH 7 0
BBX 5 9 1 0
BITMAP
60
90
00
F0
10
70
90
90
E8
ENDCHAR
STARTCHAR 00E3
ENCODING 227
SWIDTH 630 0
DWIDTH 7 0
BBX 5 9 1 0
BITMAP
50
B0
00
F0
10
70
90
90
E8
ENDCHAR
STARTCHAR 00E4
ENCODING 228
SWIDTH 630 0
DWIDTH 7 0
BBX 5 8 1 0
BITMAP
50
00
F0
10
70
90
90
E8
ENDCHAR
STARTCHAR 00E5
ENCODING 229
SWIDTH 630 0
DWIDTH 7 0
BBX 5 10 1 0
BITMAP
20
50
20
00
F0
10
70
90
90
E8
ENDCHAR
STARTCHAR 00E6
ENCODING 230
SWIDTH 630 0
DWIDTH 7 0
BBX 7 6 0 0
BITMAP
EC
12
7E
90
90
EE
ENDCHAR
STARTCHAR 00E7
ENCODING 231
SWIDTH 630 0
DWIDTH 7 0
BBX 5 9 1 -3
BITMAP
78
80
80
80
80
78
20
10
30
ENDCHAR
STARTCHAR 00E8
ENCODING 232
SWIDTH 630 0
DWIDTH 7 0
BBX 5 9 1 0
BITMAP
60
10
00
70
88
F8
80
80
78
ENDCHAR
STARTCHAR 00E9
ENCODING 233
SWIDTH 630 0
DWIDTH 7 0
BBX 5 9 1 0
BITMAP
30
40
00
70
88
F8
80
80
78
ENDCHAR
STARTCHAR 00EA
ENCODING 234
SWIDTH 630 0
DWIDTH 7 0
BBX 5 9 1 0
BITMAP
20
50
00
70
88
F8
80
80
78
ENDCHAR
STARTCHAR 00EB
ENCODING 235
SWIDTH 630 0
DWIDTH 7 0
BBX 5 8 1 0
BITMAP
50
00
70
88
F8
80
80
78
ENDCHAR
STARTCHAR 00EC
ENCODING 236
SWIDTH 630 0
DWIDTH 7 0
BBX 5 9 1 0
BITMAP
40
30
00
E0
20
20
20
20
F8
ENDCHAR
STARTCHAR 00ED
ENCODING 237
SWIDTH 630 0
DWIDTH 7 0
BBX 5 9 1 0
BITMAP
30
40
00
E0
20
20
20
20
F8
ENDCHAR
STARTCHAR 00EE
ENCODING 238
SWIDTH 630 0
DWIDTH 7 0
BBX 5 9 1 0
BITMAP
20
50
00
E0
20
20
20
20
F8
ENDCHAR
STARTCHAR 00EF
ENCODING 239
SWIDTH 630 0
DWIDTH 7 0
BBX 5 8 1 0
BITMAP
50
00
E0
20
20
20
20
F8
ENDCHAR
STARTCHAR 00F0
ENCODING 240
SWIDTH 630 0
DWIDTH 7 0
BBX 5 9 1 0
BITMAP
50
30
50
78
88
88
88
88
70
ENDCHAR
STARTCHAR 00F1
ENCODING 241
SWIDTH 630 0
DWIDTH 7 0
BBX 5 9 1 0
BITMAP
70
70
00
F0
88
88
88
88
88
ENDCHAR
STARTCHAR 00F2
ENCODING 242
SWIDTH 630 0
DWIDTH 7 0
BBX 5 9 1 0
BITMAP
40
30
00
70
88
88
88
88
70
ENDCHAR
STARTCHAR 00F3
ENCODING 243
SWIDTH 630 0
DWIDTH 7 0
BBX 5 9 1 0
BITMAP
30
40
00
70
88
88
88
88
70
ENDCHAR
STARTCHAR 00F4
ENCODING 244
SWIDTH 630 0
DWIDTH 7 0
BBX 5 9 1 0
BITMAP
20
50
00
70
88
88
88
88
70
ENDCHAR
STARTCHAR 00F5
ENCODING 245
SWIDTH 630 0
DWIDTH 7 0
BBX 5 9 1 0
BITMAP
70
70
00
70
88
88
88
88
70
ENDCHAR
STARTCHAR 00F6
ENCODING 246
SWIDTH 630 0
DWIDTH 7 0
BBX 5 8 1 0
BITMAP
50
00
70
88
88
88
88
70
ENDCHAR
STARTCHAR 00F7
ENCODING 247
SWIDTH 630 0
DWIDTH 7 0
BBX 5 6 1 1
BITMAP
20
20
00
F8
20
20
ENDCHAR
STARTCHAR 00F8
ENCODING 248
SWIDTH 630 0
DWIDTH 7 0
BBX 5 8 1 -1
BITMAP
10
70
A8
A8
A8
C8
70
40
ENDCHAR
STARTCHAR 00F9
ENCODING 249
SWIDTH 630 0
DWIDTH 7 0
BBX 5 9 1 0
BITMAP
40
30
00
88
88
88
88
88
78
ENDCHAR
STARTCHAR 00FA
ENCODING 250
SWIDTH 630 0
DWIDTH 7 0
BBX 5 9 1 0
BITMAP
30
40
00
88
88
88
88
88
78
ENDCHAR
STARTCHAR 00FB
ENCODING 251
SWIDTH 630 0
DWIDTH 7 0
BBX 5 9 1 0
BITMAP
20
50
00
88
88
88
88
88
78
ENDCHAR
STARTCHAR 00FC
ENCODING 252
SWIDTH 630 0
DWIDTH 7 0
BBX 5 8 1 0
BITMAP
50
00
88
88
88
88
88
78
ENDCHAR
STARTCHAR 00FD
ENCODING 253
SWIDTH 630 0
DWIDTH 7 0
BBX 5 11 1 -2
BITMAP
30
40
00
88
88
50
50
50
20
20
C0
ENDCHAR
STARTCHAR 00FE
ENCODING 254
SWIDTH 630 0
DWIDTH 7 0
BBX 5 10 1 -2
BITMAP
80
80
F0
88
88
88
88
F0
80
80
ENDCHAR
STARTCHAR 00FF
ENCODING 255
SWIDTH 630 0
DWIDTH 7 0
BBX 5 10 1 -2
BITMAP
50
00
88
88
50
50
50
20
20
C0
ENDCHAR
STARTCHAR 0100
ENCODING 256
SWIDTH 630 0
DWIDTH 7 0
BBX 7 9 0 0
BITMAP
38
10
28
28
28
48
7C
44
86
ENDCHAR
STARTCHAR 0101
ENCODING 257
SWIDTH 630 0
DWIDTH 7 0
BBX 5 8 1 0
BITMAP
70
00
F0
10
70
90
90
E8
ENDCHAR
STARTCHAR 0102
ENCODING 258
SWIDTH 630 0
DWIDTH 7 0
BBX 7 10 0 0
BITMAP
28
38
10
28
28
28
48
7C
44
86
ENDCHAR
STARTCHAR 0103
ENCODING 259
SWIDTH 630 0
DWIDTH 7 0
BBX 5 9 1 0
BITMAP
50
60
00
F0
10
70
90
90
E8
ENDCHAR
STARTCHAR 0104
ENCODING 260
SWIDTH 630 0
DWIDTH 7 0
BBX 7 11 0 -3
BITMAP
10
28
28
28
48
7C
44
86
04
08
0C
ENDCHAR
STARTCHAR 0105
ENCODING 261
SWIDTH 630 0
DWIDTH 7 0
BBX 5 9 1 -3
BITMAP
F0
10
70
90
90
E8
10
20
18
ENDCHAR
STARTCHAR 0106
ENCODING 262
SWIDTH 630 0
DWIDTH 7 0
BBX 5 10 1 0
BITMAP
38
00
78
80
80
80
80
80
80
78
ENDCHAR
STARTCHAR 0107
ENCODING 263
SWIDTH 630 0
DWIDTH 7 0
BBX 5 9 1 0
BITMAP
10
20
00
78
80
80
80
80
78
ENDCHAR
STARTCHAR 0108
ENCODING 264
SWIDTH 630 0
DWIDTH 7 0
BBX 5 10 1 0
BITMAP
30
48
78
80
80
80
80
80
80
78
ENDCHAR
STARTCHAR 0109
ENCODING 265
SWIDTH 630 0
DWIDTH 7 0
BBX 5 9 1 0
BITMAP
30
48
00
78
80
80
80
80
78
ENDCHAR
STARTCHAR 010A
ENCODING 266
SWIDTH 630 0
DWIDTH 7 0
BBX 5 9 1 0
BITMAP
30
78
80
80
80
80
80
80
78
ENDCHAR
STARTCHAR 010B
ENCODING 267
SWIDTH 630 0
DWIDTH 7 0
BBX 5 8 1 0
BITMAP
30
00
78
80
80
80
80
78
ENDCHAR
STARTCHAR 010C
ENCODING 268
SWIDTH 630 0
DWIDTH 7 0
BBX 5 10 1 0
BITMAP
48
30
78
80
80
80
80
80
80
78
ENDCHAR
STARTCHAR 010D
ENCODING 269
SWIDTH 630 0
DWIDTH 7 0
BBX 5 9 1 0
BITMAP
48
30
00
78
80
80
80
80
78
ENDCHAR
STARTCHAR 010E
ENCODING 270
SWIDTH 630 0
DWIDTH 7 0
BBX 5 10 1 0
BITMAP
90
60
F0
88
88
88
88
88
88
F0
ENDCHAR
STARTCHAR 010F
ENCODING 271
SWIDTH 630 0
DWIDTH 7 0
BBX 7 9 0 0
BITMAP
02
0A
08
78
48
C8
C8
48
78
ENDCHAR
STARTCHAR 0110
ENCODING 272
SWIDTH 630 0
DWIDTH 7 0
BBX 6 8 0 0
BITMAP
78
44
44
44
F4
44
44
78
ENDCHAR
STARTCHAR 0111
ENCODING 273
SWIDTH 630 0
DWIDTH 7 0
BBX 6 9 1 0
BITMAP
08
3C
08
78
88
88
88
88
78
ENDCHAR
STARTCHAR 0112
ENCODING 274
SWIDTH 630 0
DWIDTH 7 0
BBX 5 9 1 0
BITMAP
70
F8
80
80
80
F0
80
80
F8
ENDCHAR
STARTCHAR 0113
ENCODING 275
SWIDTH 630 0
DWIDTH 7 0
BBX 5 8 1 0
BITMAP
70
00
70
88
F8
80
80
78
ENDCHAR
STARTCHAR 0114
ENCODING 276
SWIDTH 630 0
DWIDTH 7 0
BBX 5 10 1 0
BITMAP
50
30
F8
80
80
80
F0
80
80
F8
ENDCHAR
STARTCHAR 0115
ENCODING 277
SWIDTH 630 0
DWIDTH 7 0
BBX 5 9 1 0
BITMAP
50
70
00
70
88
F8
80
80
78
ENDCHAR
STARTCHAR 0116
ENCODING 278
SWIDTH 630 0
DWIDTH 7 0
BBX 5 9 1 0
BITMAP
20
F8
80
80
80
F0
80
80
F8
ENDCHAR
STARTCHAR 0117
ENCODING 279
SWIDTH 630 0
DWIDTH 7 0
BBX 5 8 1 0
BITMAP
20
00
70
88
F8
80
80
78
ENDCHAR
STARTCHAR 0118
ENCODING 280
SWIDTH 630 0
DWIDTH 7 0
BBX 5 11 1 -3
BITMAP
F8
80
80
80
F0
80
80
F8
10
20
30
ENDCHAR
STARTCHAR 0119
ENCODING 281
SWIDTH 630 0
DWIDTH 7 0
BBX 5 8 1 -2
BITMAP
70
88
F8
80
80
78
40
60
ENDCHAR
STARTCHAR 011A
ENCODING 282
SWIDTH 630 0
DWIDTH 7 0
BBX 5 10 1 0
BITMAP
48
30
F8
80
80
80
F0
80
80
F8
ENDCHAR
STARTCHAR 011B
ENCODING 283
SWIDTH 630 0
DWIDTH 7 0
BBX 5 9 1 0
BITMAP
50
20
00
70
88
F8
80
80
78
ENDCHAR
STARTCHAR 011C
ENCODING 284
SWIDTH 630 0
DWIDTH 7 0
BBX 5 10 1 0
BITMAP
30
48
78
88
80
80
B8
88
88
78
ENDCHAR
STARTCHAR 011D
ENCODING 285
SWIDTH 630 0
DWIDTH 7 0
BBX 5 11 1 -2
BITMAP
60
90
08
78
88
98
70
80
70
08
F8
ENDCHAR
STARTCHAR 011E
ENCODING 286
SWIDTH 630 0
DWIDTH 7 0
BBX 5 10 1 0
BITMAP
48
30
78
88
80
80
B8
88
88
78
ENDCHAR
STARTCHAR 011F
ENCODING 287
SWIDTH 630 0
DWIDTH 7 0
BBX 5 11 1 -2
BITMAP
50
60
08
78
88
98
70
80
70
08
F8
ENDCHAR
STARTCHAR 0120
ENCODING 288
SWIDTH 630 0
DWIDTH 7 0
BBX 5 9 1 0
BITMAP
20
78
88
80
80
B8
88
88
78
ENDCHAR
STARTCHAR 0121
ENCODING 289
SWIDTH 630 0
DWIDTH 7 0
BBX 5 10 1 -2
BITMAP
20
08
78
88
98
70
80
70
08
F8
ENDCHAR
STARTCHAR 0122
ENCODING 290
SWIDTH 630 0
DWIDTH 7 0
BBX 5 11 1 -3
BITMAP
78
88
80
80
B8
88
88
78
00
20
20
ENDCHAR
STARTCHAR 0123
ENCODING 291
SWIDTH 630 0
DWIDTH 7 0
BBX 5 11 1 -2
BITMAP
20
20
08
78
88
98
70
80
70
08
F8
ENDCHAR
STARTCHAR 0124
ENCODING 292
SWIDTH 630 0
DWIDTH 7 0
BBX 5 10 1 0
BITMAP
60
50
88
88
88
F8
88
88
88
88
ENDCHAR
STARTCHAR 0125
ENCODING 293
SWIDTH 630 0
DWIDTH 7 0
BBX 5 11 1 0
BITMAP
60
50
00
80
80
F0
88
88
88
88
88
ENDCHAR
STARTCHAR 0126
ENCODING 294
SWIDTH 630 0
DWIDTH 7 0
BBX 7 8 0 0
BITMAP
44
FE
44
7C
44
44
44
44
ENDCHAR
STARTCHAR 0127
ENCODING 295
SWIDTH 630 0
DWIDTH 7 0
BBX 6 9 0 0
BITMAP
40
F0
40
78
44
44
44
44
44
ENDCHAR
STARTCHAR 0128
ENCODING 296
SWIDTH 630 0
DWIDTH 7 0
BBX 5 10 1 0
BITMAP
70
70
F8
20
20
20
20
20
20
F8
ENDCHAR
STARTCHAR 0129
ENCODING 297
SWIDTH 630 0
DWIDTH 7 0
BBX 5 9 1 0
BITMAP
70
70
00
E0
20
20
20
20
F8
ENDCHAR
STARTCHAR 012A
ENCODING 298
SWIDTH 630 0
DWIDTH 7 0
BBX 5 9 1 0
BITMAP
70
F8
20
20
20
20
20
20
F8
ENDCHAR
STARTCHAR 012B
ENCODING 299
SWIDTH 630 0
DWIDTH 7 0
BBX 5 8 1 0
BITMAP
70
00
E0
20
20
20
20
F8
ENDCHAR
STARTCHAR 012C
ENCODING 300
SWIDTH 630 0
DWIDTH 7 0
BBX 5 10 1 0
BITMAP
50
70
F8
20
20
20
20
20
20
F8
ENDCHAR
STARTCHAR 012D
ENCODING 301
SWIDTH 630 0
DWIDTH 7 0
BBX 5 9 1 0
BITMAP
50
60
00
E0
20
20
20
20
F8
ENDCHAR
STARTCHAR 012E
ENCODING 302
SWIDTH 630 0
DWIDTH 7 0
BBX 5 11 1 -3
BITMAP
F8
20
20
20
20
20
20
F8
60
40
60
ENDCHAR
STARTCHAR 012F
ENCODING 303
SWIDTH 630 0
DWIDTH 7 0
BBX 5 11 1 -3
BITMAP
20
00
E0
20
20
20
20
F8
20
40
60
ENDCHAR
STARTCHAR 0130
ENCODING 304
SWIDTH 630 0
DWIDTH 7 0
BBX 5 9 1 0
BITMAP
20
F8
20
20
20
20
20
20
F8
ENDCHAR
STARTCHAR 0131
ENCODING 305
SWIDTH 630 0
DWIDTH 7 0
BBX 5 6 1 0
BITMAP
E0
20
20
20
20
F8
ENDCHAR
STARTCHAR 0132
ENCODING 306
SWIDTH 630 0
DWIDTH 7 0
BBX 6 10 0 -2
BITMAP
FC
44
44
44
44
44
44
E4
18
20
ENDCHAR
STARTCHAR 0133
ENCODING 307
SWIDTH 630 0
DWIDTH 7 0
BBX 5 10 1 -2
BITMAP
D8
00
F8
48
48
48
48
E8
10
70
ENDCHAR
STARTCHAR 0134
ENCODING 308
SWIDTH 630 0
DWIDTH 7 0
BBX 5 10 1 0
BITMAP
30
48
78
08
08
08
08
08
10
F0
ENDCHAR
STARTCHAR 0135
ENCODING 309
SWIDTH 630 0
DWIDTH 7 0
BBX 5 11 1 -2
BITMAP
30
48
00
70
10
10
10
10
10
10
E0
ENDCHAR
STARTCHAR 0136
ENCODING 310
SWIDTH 630 0
DWIDTH 7 0
BBX 6 11 1 -3
BITMAP
88
90
A0
E0
A0
90
98
8C
00
20
20
ENDCHAR
STARTCHAR 0137
ENCODING 311
SWIDTH 630 0
DWIDTH 7 0
BBX 5 11 1 -3
BITMAP
80
80
98
B0
E0
A0
90
88
00
20
20
ENDCHAR
STARTCHAR 0138
ENCODING 312
SWIDTH 630 0
DWIDTH 7 0
BBX 5 6 1 0
BITMAP
98
B0
E0
A0
90
88
ENDCHAR
STARTCHAR 0139
ENCODING 313
SWIDTH 630 0
DWIDTH 7 0
BBX 5 10 1 0
BITMAP
C0
00
40
40
40
40
40
40
40
78
ENDCHAR
STARTCHAR 013A
ENCODING 314
SWIDTH 630 0
DWIDTH 7 0
BBX 5 11 1 0
BITMAP
20
40
00
C0
20
20
20
20
20
20
38
ENDCHAR
STARTCHAR 013B
ENCODING 315
SWIDTH 630 0
DWIDTH 7 0
BBX 4 11 2 -3
BITMAP
80
80
80
80
80
80
80
F0
00
40
40
ENDCHAR
STARTCHAR 013C
ENCODING 316
SWIDTH 630 0
DWIDTH 7 0
BBX 5 11 1 -3
BITMAP
C0
20
20
20
20
20
20
38
00
10
20
ENDCHAR
STARTCHAR 013D
ENCODING 317
SWIDTH 630 0
DWIDTH 7 0
BBX 4 8 2 0
BITMAP
C0
C0
80
80
80
80
80
F0
ENDCHAR
STARTCHAR 013E
ENCODING 318
SWIDTH 630 0
DWIDTH 7 0
BBX 5 9 1 0
BITMAP
10
D0
20
20
20
20
20
20
38
ENDCHAR
STARTCHAR 013F
ENCODING 319
SWIDTH 630 0
DWIDTH 7 0
BBX 4 8 2 0
BITMAP
80
80
80
80
90
80
80
F0
ENDCHAR
STARTCHAR 0140
ENCODING 320
SWIDTH 630 0
DWIDTH 7 0
BBX 6 8 1 0
BITMAP
C0
20
20
20
24
20
20
38
ENDCHAR
STARTCHAR 0141
ENCODING 321
SWIDTH 630 0
DWIDTH 7 0
BBX 6 8 0 0
BITMAP
20
20
28
30
E0
20
20
3C
ENDCHAR
STARTCHAR 0142
ENCODING 322
SWIDTH 630 0
DWIDTH 7 0
BBX 5 8 1 0
BITMAP
C0
20
20
30
C0
20
20
38
ENDCHAR
STARTCHAR 0143
ENCODING 323
SWIDTH 630 0
DWIDTH 7 0
BBX 5 10 1 0
BITMAP
70
00
88
C8
C8
A8
A8
A8
98
98
ENDCHAR
STARTCHAR 0144
ENCODING 324
SWIDTH 630 0
DWIDTH 7 0
BBX 5 9 1 0
BITMAP
30
40
00
F0
88
88
88
88
88
ENDCHAR
STARTCHAR 0145
ENCODING 325
SWIDTH 630 0
DWIDTH 7 0
BBX 5 11 1 -3
BITMAP
88
C8
C8
A8
A8
A8
98
98
00
20
20
ENDCHAR
STARTCHAR 0146
ENCODING 326
SWIDTH 630 0
DWIDTH 7 0
BBX 5 9 1 -3
BITMAP
F0
88
88
88
88
88
00
20
20
ENDCHAR
STARTCHAR 0147
ENCODING 327
SWIDTH 630 0
DWIDTH 7 0
BBX 5 10 1 0
BITMAP
50
60
88
C8
C8
A8
A8
A8
98
98
ENDCHAR
STARTCHAR 0148
ENCODING 328
SWIDTH 630 0
DWIDTH 7 0
BBX 5 9 1 0
BITMAP
50
20
00
F0
88
88
88
88
88
ENDCHAR
STARTCHAR 0149
ENCODING 329
SWIDTH 630 0
DWIDTH 7 0
BBX 6 8 0 0
BITMAP
80
80
58
64
44
44
44
44
ENDCHAR
STARTCHAR 014A
ENCODING 330
SWIDTH 630 0
DWIDTH 7 0
BBX 5 10 1 -2
BITMAP
88
C8
C8
A8
A8
A8
98
98
08
38
ENDCHAR
STARTCHAR 014B
ENCODING 331
SWIDTH 630 0
DWIDTH 7 0
BBX 5 8 1 -2
BITMAP
F0
88
88
88
88
88
08
10
ENDCHAR
STARTCHAR 014C
ENCODING 332
SWIDTH 630 0
DWIDTH 7 0
BBX 5 9 1 0
BITMAP
70
70
88
88
88
88
88
88
70
ENDCHAR
STARTCHAR 014D
ENCODING 333
SWIDTH 630 0
DWIDTH 7 0
BBX 5 8 1 0
BITMAP
70
00
70
88
88
88
88
70
ENDCHAR
STARTCHAR 014E
ENCODING 334
SWIDTH 630 0
DWIDTH 7 0
BBX 5 10 1 0
BITMAP
50
70
70
88
88
88
88
88
88
70
ENDCHAR
STARTCHAR 014F
ENCODING 335
SWIDTH 630 0
DWIDTH 7 0
BBX 5 9 1 0
BITMAP
50
60
00
70
88
88
88
88
70
ENDCHAR
STARTCHAR 0150
ENCODING 336
SWIDTH 630 0
DWIDTH 7 0
BBX 5 11 1 0
BITMAP
50
78
50
70
88
88
88
88
88
88
70
ENDCHAR
STARTCHAR 0151
ENCODING 337
SWIDTH 630 0
DWIDTH 7 0
BBX 5 10 1 0
BITMAP
50
78
50
00
70
88
88
88
88
70
ENDCHAR
STARTCHAR 0152
ENCODING 338
SWIDTH 630 0
DWIDTH 7 0
BBX 7 8 0 0
BITMAP
7E
90
88
88
8E
88
90
7E
ENDCHAR
STARTCHAR 0153
ENCODING 339
SWIDTH 630 0
DWIDTH 7 0
BBX 7 6 0 0
BITMAP
6C
92
9E
90
90
6E
ENDCHAR
STARTCHAR 0154
ENCODING 340
SWIDTH 630 0
DWIDTH 7 0
BBX 6 10 1 0
BITMAP
30
40
F0
88
88
88
F0
90
90
8C
ENDCHAR
STARTCHAR 0155
ENCODING 341
SWIDTH 630 0
DWIDTH 7 0
BBX 5 9 1 0
BITMAP
10
60
00
D8
68
40
40
40
E0
ENDCHAR
STARTCHAR 0156
ENCODING 342
SWIDTH 630 0
DWIDTH 7 0
BBX 6 11 1 -3
BITMAP
F0
88
88
88
F0
90
90
8C
00
20
20
ENDCHAR
STARTCHAR 0157
ENCODING 343
SWIDTH 630 0
DWIDTH 7 0
BBX 5 9 1 -3
BITMAP
D8
68
40
40
40
E0
00
40
40
ENDCHAR
STARTCHAR 0158
ENCODING 344
SWIDTH 630 0
DWIDTH 7 0
BBX 6 10 1 0
BITMAP
50
60
F0
88
88
88
F0
90
90
8C
ENDCHAR
STARTCHAR 0159
ENCODING 345
SWIDTH 630 0
DWIDTH 7 0
BBX 5 9 1 0
BITMAP
48
30
00
D8
68
40
40
40
E0
ENDCHAR
STARTCHAR 015A
ENCODING 346
SWIDTH 630 0
DWIDTH 7 0
BBX 6 10 0 0
BITMAP
18
20
38
44
40
30
0C
04
44
F8
ENDCHAR
STARTCHAR 015B
ENCODING 347
SWIDTH 630 0
DWIDTH 7 0
BBX 5 9 1 0
BITMAP
30
40
00
78
80
60
18
08
F0
ENDCHAR
STARTCHAR 015C
ENCODING 348
SWIDTH 630 0
DWIDTH 7 0
BBX 6 10 0 0
BITMAP
10
28
38
44
40
30
0C
04
44
F8
ENDCHAR
STARTCHAR 015D
ENCODING 349
SWIDTH 630 0
DWIDTH 7 0
BBX 5 9 1 0
BITMAP
20
50
00
78
80
60
18
08
F0
ENDCHAR
STARTCHAR 015E
ENCODING 350
SWIDTH 630 0
DWIDTH 7 0
BBX 6 11 0 -3
BITMAP
38
44
40
30
0C
04
44
F8
10
08
30
ENDCHAR
STARTCHAR 015F
ENCODING 351
SWIDTH 630 0
DWIDTH 7 0
BBX 5 9 1 -3
BITMAP
78
80
60
18
08
F0
20
10
60
ENDCHAR
STARTCHAR 0160
ENCODING 352
SWIDTH 630 0
DWIDTH 7 0
BBX 6 10 0 0
BITMAP
28
10
38
44
40
30
0C
04
44
F8
ENDCHAR
STARTCHAR 0161
ENCODING 353
SWIDTH 630 0
DWIDTH 7 0
BBX 5 9 1 0
BITMAP
50
20
00
78
80
60
18
08
F0
ENDCHAR
STARTCHAR 0162
ENCODING 354
SWIDTH 630 0
DWIDTH 7 0
BBX 6 11 0 -3
BITMAP
FC
10
10
10
10
10
10
10
10
08
30
ENDCHAR
STARTCHAR 0163
ENCODING 355
SWIDTH 630 0
DWIDTH 7 0
BBX 5 10 1 -3
BITMAP
40
F0
40
40
40
40
38
10
08
30
ENDCHAR
STARTCHAR 0164
ENCODING 356
SWIDTH 630 0
DWIDTH 7 0
BBX 6 10 0 0
BITMAP
28
30
FC
10
10
10
10
10
10
10
ENDCHAR
STARTCHAR 0165
ENCODING 357
SWIDTH 630 0
DWIDTH 7 0
BBX 5 9 1 0
BITMAP
10
10
40
F0
40
40
40
40
38
ENDCHAR
STARTCHAR 0166
ENCODING 358
SWIDTH 630 0
DWIDTH 7 0
BBX 6 8 0 0
BITMAP
FC
10
10
78
10
10
10
10
ENDCHAR
STARTCHAR 0167
ENCODING 359
SWIDTH 630 0
DWIDTH 7 0
BBX 5 7 1 0
BITMAP
40
F0
40
F0
40
40
38
ENDCHAR
STARTCHAR 0168
ENCODING 360
SWIDTH 630 0
DWIDTH 7 0
BBX 5 10 1 0
BITMAP
70
70
88
88
88
88
88
88
88
70
ENDCHAR
STARTCHAR 0169
ENCODING 361
SWIDTH 630 0
DWIDTH 7 0
BBX 5 9 1 0
BITMAP
70
70
00
88
88
88
88
88
78
ENDCHAR
STARTCHAR 016A
ENCODING 362
SWIDTH 630 0
DWIDTH 7 0
BBX 5 9 1 0
BITMAP
70
88
88
88
88
88
88
88
70
ENDCHAR
STARTCHAR 016B
ENCODING 363
SWIDTH 630 0
DWIDTH 7 0
BBX 5 8 1 0
BITMAP
70
00
88
88
88
88
88
78
ENDCHAR
STARTCHAR 016C
ENCODING 364
SWIDTH 630 0
DWIDTH 7 0
BBX 5 10 1 0
BITMAP
50
70
88
88
88
88
88
88
88
70
ENDCHAR
STARTCHAR 016D
ENCODING 365
SWIDTH 630 0
DWIDTH 7 0
BBX 5 9 1 0
BITMAP
50
60
00
88
88
88
88
88
78
ENDCHAR
STARTCHAR 016E
ENCODING 366
SWIDTH 630 0
DWIDTH 7 0
BBX 5 11 1 0
BITMAP
20
50
20
88
88
88
88
88
88
88
70
ENDCHAR
STARTCHAR 016F
ENCODING 367
SWIDTH 630 0
DWIDTH 7 0
BBX 5 10 1 0
BITMAP
20
50
20
00
88
88
88
88
88
78
ENDCHAR
STARTCHAR 0170
ENCODING 368
SWIDTH 630 0
DWIDTH 7 0
BBX 5 11 1 0
BITMAP
50
78
50
88
88
88
88
88
88
88
70
ENDCHAR
STARTCHAR 0171
ENCODING 369
SWIDTH 630 0
DWIDTH 7 0
BBX 5 10 1 0
BITMAP
50
78
50
00
88
88
88
88
88
78
ENDCHAR
STARTCHAR 0172
ENCODING 370
SWIDTH 630 0
DWIDTH 7 0
BBX 5 11 1 -3
BITMAP
88
88
88
88
88
88
88
70
20
40
60
ENDCHAR
STARTCHAR 0173
ENCODING 371
SWIDTH 630 0
DWIDTH 7 0
BBX 5 9 1 -3
BITMAP
88
88
88
88
88
78
10
20
18
ENDCHAR
STARTCHAR 0174
ENCODING 372
SWIDTH 630 0
DWIDTH 7 0
BBX 7 10 0 0
BITMAP
30
28
82
92
94
AC
6C
6C
6C
6C
ENDCHAR
STARTCHAR 0175
ENCODING 373
SWIDTH 630 0
DWIDTH 7 0
BBX 7 9 0 0
BITMAP
10
28
00
82
94
74
6C
6C
6C
ENDCHAR
STARTCHAR 0176
ENCODING 374
SWIDTH 630 0
DWIDTH 7 0
BBX 7 10 0 0
BITMAP
10
28
C6
44
28
28
10
10
10
10
ENDCHAR
STARTCHAR 0177
ENCODING 375
SWIDTH 630 0
DWIDTH 7 0
BBX 5 11 1 -2
BITMAP
20
50
00
88
88
50
50
50
20
20
C0
ENDCHAR
STARTCHAR 0178
ENCODING 376
SWIDTH 630 0
DWIDTH 7 0
BBX 7 9 0 0
BITMAP
28
C6
44
28
28
10
10
10
10
ENDCHAR
STARTCHAR 0179
ENCODING 377
SWIDTH 630 0
DWIDTH 7 0
BBX 5 10 1 0
BITMAP
30
40
F8
08
10
20
20
40
80
F8
ENDCHAR
STARTCHAR 017A
ENCODING 378
SWIDTH 630 0
DWIDTH 7 0
BBX 5 9 1 0
BITMAP
30
40
00
F8
10
20
60
40
F8
ENDCHAR
STARTCHAR 017B
ENCODING 379
SWIDTH 630 0
DWIDTH 7 0
BBX 5 9 1 0
BITMAP
20
F8
08
10
20
20
40
80
F8
ENDCHAR
STARTCHAR 017C
ENCODING 380
SWIDTH 630 0
DWIDTH 7 0
BBX 5 8 1 0
BITMAP
20
00
F8
10
20
60
40
F8
ENDCHAR
STARTCHAR 017D
ENCODING 381
SWIDTH 630 0
DWIDTH 7 0
BBX 5 10 1 0
BITMAP
50
30
F8
08
10
20
20
40
80
F8
ENDCHAR
STARTCHAR 017E
ENCODING 382
SWIDTH 630 0
DWIDTH 7 0
BBX 5 9 1 0
BITMAP
50
20
00
F8
10
20
60
40
F8
ENDCHAR
STARTCHAR 0192
ENCODING 402
SWIDTH 630 0
DWIDTH 7 0
BBX 5 10 1 -2
BITMAP
38
40
F0
40
40
40
40
40
40
C0
ENDCHAR
STARTCHAR 01FC
ENCODING 508
SWIDTH 630 0
DWIDTH 7 0
BBX 7 10 0 0
BITMAP
18
00
3C
30
50
50
5C
78
88
8E
ENDCHAR
STARTCHAR 01FD
ENCODING 509
SWIDTH 630 0
DWIDTH 7 0
BBX 7 9 0 0
BITMAP
18
20
00
EC
12
7E
90
90
EE
ENDCHAR
STARTCHAR 01FE
ENCODING 510
SWIDTH 630 0
DWIDTH 7 0
BBX 5 11 1 -1
BITMAP
30
50
70
98
A8
A8
A8
C8
C8
70
C0
ENDCHAR
STARTCHAR 01FF
ENCODING 511
SWIDTH 630 0
DWIDTH 7 0
BBX 5 10 1 -1
BITMAP
30
40
10
70
A8
A8
A8
C8
70
40
ENDCHAR
STARTCHAR 0218
ENCODING 536
SWIDTH 630 0
DWIDTH 7 0
BBX 6 11 0 -3
BITMAP
38
44
40
30
0C
04
44
F8
00
10
10
ENDCHAR
STARTCHAR 0219
ENCODING 537
SWIDTH 630 0
DWIDTH 7 0
BBX 5 9 1 -3
BITMAP
78
80
60
18
08
F0
00
20
20
ENDCHAR
STARTCHAR 021A
ENCODING 538
SWIDTH 630 0
DWIDTH 7 0
BBX 6 11 0 -3
BITMAP
FC
10
10
10
10
10
10
10
00
10
10
ENDCHAR
STARTCHAR 021B
ENCODING 539
SWIDTH 630 0
DWIDTH 7 0
BBX 5 10 1 -3
BITMAP
40
F0
40
40
40
40
38
00
10
10
ENDCHAR
STARTCHAR 0237
ENCODING 567
SWIDTH 630 0
DWIDTH 7 0
BBX 4 8 1 -2
BITMAP
70
10
10
10
10
10
10
E0
ENDCHAR
STARTCHAR 02B9
ENCODING 697
SWIDTH 630 0
DWIDTH 7 0
BBX 2 3 2 5
BITMAP
40
40
80
ENDCHAR
STARTCHAR 02BA
ENCODING 698
SWIDTH 630 0
DWIDTH 7 0
BBX 3 3 2 5
BITMAP
E0
A0
C0
ENDCHAR
STARTCHAR 02BC
ENCODING 700
SWIDTH 630 0
DWIDTH 7 0
BBX 1 2 3 6
BITMAP
80
80
ENDCHAR
STARTCHAR 02C6
ENCODING 710
SWIDTH 630 0
DWIDTH 7 0
BBX 3 2 2 7
BITMAP
40
A0
ENDCHAR
STARTCHAR 02C7
ENCODING 711
SWIDTH 630 0
DWIDTH 7 0
BBX 3 2 2 7
BITMAP
A0
40
ENDCHAR
STARTCHAR 02C9
ENCODING 713
SWIDTH 630 0
DWIDTH 7 0
BBX 3 1 2 7
BITMAP
E0
ENDCHAR
STARTCHAR 02D8
ENCODING 728
SWIDTH 630 0
DWIDTH 7 0
BBX 3 2 2 7
BITMAP
A0
C0
ENDCHAR
STARTCHAR 02D9
ENCODING 729
SWIDTH 630 0
DWIDTH 7 0
BBX 1 1 3 7
BITMAP
80
ENDCHAR
STARTCHAR 02DA
ENCODING 730
SWIDTH 630 0
DWIDTH 7 0
BBX 3 3 2 7
BITMAP
40
A0
40
ENDCHAR
STARTCHAR 02DB
ENCODING 731
SWIDTH 630 0
DWIDTH 7 0
BBX 3 3 2 -3
BITMAP
60
80
60
ENDCHAR
STARTCHAR 02DC
ENCODING 732
SWIDTH 630 0
DWIDTH 7 0
BBX 3 2 2 7
BITMAP
E0
E0
ENDCHAR
STARTCHAR 02DD
ENCODING 733
SWIDTH 630 0
DWIDTH 7 0
BBX 3 3 2 7
BITMAP
A0
A0
C0
ENDCHAR
STARTCHAR 0300
ENCODING 768
SWIDTH 0 0
DWIDTH 0 0
BBX 3 2 2 7
BITMAP
C0
20
ENDCHAR
STARTCHAR 0301
ENCODING 769
SWIDTH 0 0
DWIDTH 0 0
BBX 3 2 2 7
BITMAP
60
80
ENDCHAR
STARTCHAR 0302
ENCODING 770
SWIDTH 0 0
DWIDTH 0 0
BBX 3 2 2 6
BITMAP
C0
A0
ENDCHAR
STARTCHAR 0303
ENCODING 771
SWIDTH 0 0
DWIDTH 0 0
BBX 3 2 2 7
BITMAP
E0
E0
ENDCHAR
STARTCHAR 0304
ENCODING 772
SWIDTH 0 0
DWIDTH 0 0
BBX 3 1 2 6
BITMAP
E0
ENDCHAR
STARTCHAR 0305
ENCODING 773
SWIDTH 0 0
DWIDTH 0 0
BBX 5 1 1 7
BITMAP
F8
ENDCHAR
STARTCHAR 0306
ENCODING 774
SWIDTH 0 0
DWIDTH 0 0
BBX 3 2 2 6
BITMAP
A0
E0
ENDCHAR
STARTCHAR 0307
ENCODING 775
SWIDTH 0 0
DWIDTH 0 0
BBX 1 1 3 6
BITMAP
80
ENDCHAR
STARTCHAR 0308
ENCODING 776
SWIDTH 0 0
DWIDTH 0 0
BBX 3 1 2 7
BITMAP
A0
ENDCHAR
STARTCHAR 030A
ENCODING 778
SWIDTH 0 0
DWIDTH 0 0
BBX 3 3 2 6
BITMAP
40
A0
40
ENDCHAR
STARTCHAR 030B
ENCODING 779
SWIDTH 0 0
DWIDTH 0 0
BBX 3 3 2 6
BITMAP
A0
A0
C0
ENDCHAR
STARTCHAR 030C
ENCODING 780
SWIDTH 0 0
DWIDTH 0 0
BBX 3 2 2 7
BITMAP
A0
C0
ENDCHAR
STARTCHAR 030F
ENCODING 783
SWIDTH 0 0
DWIDTH 0 0
BBX 3 3 2 7
BITMAP
A0
A0
A0
ENDCHAR
STARTCHAR 0313
ENCODING 787
SWIDTH 0 0
DWIDTH 0 0
BBX 1 2 3 7
BITMAP
80
80
ENDCHAR
STARTCHAR 0314
ENCODING 788
SWIDTH 0 0
DWIDTH 0 0
BBX 2 2 2 7
BITMAP
80
40
ENDCHAR
STARTCHAR 0326
ENCODING 806
SWIDTH 0 0
DWIDTH 0 0
BBX 1 2 3 -3
BITMAP
80
80
ENDCHAR
STARTCHAR 0327
ENCODING 807
SWIDTH 0 0
DWIDTH 0 0
BBX 3 3 2 -3
BITMAP
40
20
C0
ENDCHAR
STARTCHAR 0335
ENCODING 821
SWIDTH 630 0
DWIDTH 7 0
BBX 4 1 1 3
BITMAP
F0
ENDCHAR
STARTCHAR 0336
ENCODING 822
SWIDTH 630 0
DWIDTH 7 0
BBX 7 1 0 3
BITMAP
FE
ENDCHAR
STARTCHAR 0342
ENCODING 834
SWIDTH 0 0
DWIDTH 0 0
BBX 3 2 2 7
BITMAP
E0
E0
ENDCHAR
STARTCHAR 0345
ENCODING 837
SWIDTH 0 0
DWIDTH 0 0
BBX 3 2 2 -2
BITMAP
80
60
ENDCHAR
STARTCHAR 0370
ENCODING 880
SWIDTH 630 0
DWIDTH 7 0
BBX 5 8 1 0
BITMAP
80
80
80
F8
80
80
80
80
ENDCHAR
STARTCHAR 0371
ENCODING 881
SWIDTH 630 0
DWIDTH 7 0
BBX 5 6 1 0
BITMAP
80
40
78
40
40
40
ENDCHAR
STARTCHAR 0372
ENCODING 882
SWIDTH 630 0
DWIDTH 7 0
BBX 6 8 0 0
BITMAP
FC
94
94
10
10
10
10
10
ENDCHAR
STARTCHAR 0373
ENCODING 883
SWIDTH 630 0
DWIDTH 7 0
BBX 6 8 0 -2
BITMAP
FC
10
10
10
10
10
10
10
ENDCHAR
STARTCHAR 0374
ENCODING 884
SWIDTH 630 0
DWIDTH 7 0
BBX 2 3 2 5
BITMAP
40
40
80
ENDCHAR
STARTCHAR 0375
ENCODING 885
SWIDTH 630 0
DWIDTH 7 0
BBX 2 3 2 -2
BITMAP
40
40
C0
ENDCHAR
STARTCHAR 0376
ENCODING 886
SWIDTH 630 0
DWIDTH 7 0
BBX 5 8 1 0
BITMAP
98
98
98
A8
A8
C8
C8
88
ENDCHAR
STARTCHAR 0377
ENCODING 887
SWIDTH 630 0
DWIDTH 7 0
BBX 5 6 1 0
BITMAP
98
98
A8
A8
C8
C8
ENDCHAR
STARTCHAR 037A
ENCODING 890
SWIDTH 630 0
DWIDTH 7 0
BBX 3 2 2 -2
BITMAP
80
60
ENDCHAR
STARTCHAR 037B
ENCODING 891
SWIDTH 630 0
DWIDTH 7 0
BBX 5 6 1 0
BITMAP
F0
18
08
08
18
F0
ENDCHAR
STARTCHAR 037C
ENCODING 892
SWIDTH 630 0
DWIDTH 7 0
BBX 5 6 1 0
BITMAP
78
80
80
80
B0
78
ENDCHAR
STARTCHAR 037D
ENCODING 893
SWIDTH 630 0
DWIDTH 7 0
BBX 5 6 1 0
BITMAP
F0
18
08
08
78
F0
ENDCHAR
STARTCHAR 037E
ENCODING 894
SWIDTH 630 0
DWIDTH 7 0
BBX 2 8 2 -2
BITMAP
40
40
00
00
40
40
40
C0
ENDCHAR
STARTCHAR 037F
ENCODING 895
SWIDTH 630 0
DWIDTH 7 0
BBX 5 8 1 0
BITMAP
78
08
08
08
08
08
10
F0
ENDCHAR
STARTCHAR 0384
ENCODING 900
SWIDTH 630 0
DWIDTH 7 0
BBX 1 2 3 7
BITMAP
80
80
ENDCHAR
STARTCHAR 0385
ENCODING 901
SWIDTH 630 0
DWIDTH 7 0
BBX 3 3 2 7
BITMAP
40
40
A0
ENDCHAR
STARTCHAR 0386
ENCODING 902
SWIDTH 630 0
DWIDTH 7 0
BBX 7 8 0 0
BITMAP
50
68
28
28
48
7C
44
86
ENDCHAR
STARTCHAR 0387
ENCODING 903
SWIDTH 630 0
DWIDTH 7 0
BBX 2 2 2 3
BITMAP
40
C0
ENDCHAR
STARTCHAR 0388
ENCODING 904
SWIDTH 630 0
DWIDTH 7 0
BBX 6 8 0 0
BITMAP
FC
C0
40
40
78
40
40
7C
ENDCHAR
STARTCHAR 0389
ENCODING 905
SWIDTH 630 0
DWIDTH 7 0
BBX 7 8 -1 0
BITMAP
E2
A2
22
3E
22
22
22
22
ENDCHAR
STARTCHAR 038A
ENCODING 906
SWIDTH 630 0
DWIDTH 7 0
BBX 7 8 -1 0
BITMAP
7E
48
88
08
08
08
08
3E
ENDCHAR
STARTCHAR 038C
ENCODING 908
SWIDTH 630 0
DWIDTH 7 0
BBX 6 8 0 0
BITMAP
B8
C4
44
44
44
44
44
38
ENDCHAR
STARTCHAR 038E
ENCODING 910
SWIDTH 630 0
DWIDTH 7 0
BBX 8 8 -1 0
BITMAP
E3
A2
14
14
08
08
08
08
ENDCHAR
STARTCHAR 038F
ENCODING 911
SWIDTH 630 0
DWIDTH 7 0
BBX 6 8 0 0
BITMAP
B8
C4
44
44
44
44
44
6C
ENDCHAR
STARTCHAR 0390
ENCODING 912
SWIDTH 630 0
DWIDTH 7 0
BBX 5 10 1 0
BITMAP
20
20
D0
00
E0
20
20
20
20
38
ENDCHAR
STARTCHAR 0391
ENCODING 913
SWIDTH 630 0
DWIDTH 7 0
BBX 7 8 0 0
BITMAP
10
28
28
28
48
7C
44
86
ENDCHAR
STARTCHAR 0392
ENCODING 914
SWIDTH 630 0
DWIDTH 7 0
BBX 5 8 1 0
BITMAP
F0
88
88
F0
88
88
88
F0
ENDCHAR
STARTCHAR 0393
ENCODING 915
SWIDTH 630 0
DWIDTH 7 0
BBX 4 8 2 0
BITMAP
F0
80
80
80
80
80
80
80
ENDCHAR
STARTCHAR 0394
ENCODING 916
SWIDTH 630 0
DWIDTH 7 0
BBX 7 8 0 0
BITMAP
10
28
28
28
48
44
44
FE
ENDCHAR
STARTCHAR 0395
ENCODING 917
SWIDTH 630 0
DWIDTH 7 0
BBX 5 8 1 0
BITMAP
F8
80
80
80
F0
80
80
F8
ENDCHAR
STARTCHAR 0396
ENCODING 918
SWIDTH 630 0
DWIDTH 7 0
BBX 5 8 1 0
BITMAP
F8
08
10
20
20
40
80
F8
ENDCHAR
STARTCHAR 0397
ENCODING 919
SWIDTH 630 0
DWIDTH 7 0
BBX 5 8 1 0
BITMAP
88
88
88
F8
88
88
88
88
ENDCHAR
STARTCHAR 0398
ENCODING 920
SWIDTH 630 0
DWIDTH 7 0
BBX 5 8 1 0
BITMAP
70
88
88
F8
88
88
88
70
ENDCHAR
STARTCHAR 0399
ENCODING 921
SWIDTH 630 0
DWIDTH 7 0
BBX 5 8 1 0
BITMAP
F8
20
20
20
20
20
20
F8
ENDCHAR
STARTCHAR 039A
ENCODING 922
SWIDTH 630 0
DWIDTH 7 0
BBX 6 8 1 0
BITMAP
88
90
A0
E0
A0
90
98
8C
ENDCHAR
STARTCHAR 039B
ENCODING 923
SWIDTH 630 0
DWIDTH 7 0
BBX 7 8 0 0
BITMAP
10
28
28
28
48
44
44
86
ENDCHAR
STARTCHAR 039C
ENCODING 924
SWIDTH 630 0
DWIDTH 7 0
BBX 6 8 0 0
BITMAP
44
6C
6C
6C
AC
94
94
84
ENDCHAR
STARTCHAR 039D
ENCODING 925
SWIDTH 630 0
DWIDTH 7 0
BBX 5 8 1 0
BITMAP
88
C8
C8
A8
A8
A8
98
98
ENDCHAR
STARTCHAR 039E
ENCODING 926
SWIDTH 630 0
DWIDTH 7 0
BBX 5 8 1 0
BITMAP
F8
00
00
00
F0
00
00
F8
ENDCHAR
STARTCHAR 039F
ENCODING 927
SWIDTH 630 0
DWIDTH 7 0
BBX 5 8 1 0
BITMAP
70
88
88
88
88
88
88
70
ENDCHAR
STARTCHAR 03A0
ENCODING 928
SWIDTH 630 0
DWIDTH 7 0
BBX 5 8 1 0
BITMAP
F8
88
88
88
88
88
88
88
ENDCHAR
STARTCHAR 03A1
ENCODING 929
SWIDTH 630 0
DWIDTH 7 0
BBX 5 8 1 0
BITMAP
F0
88
88
88
F0
80
80
80
ENDCHAR
STARTCHAR 03A3
ENCODING 931
SWIDTH 630 0
DWIDTH 7 0
BBX 5 8 1 0
BITMAP
F8
C0
60
30
20
60
C0
F8
ENDCHAR
STARTCHAR 03A4
ENCODING 932
SWIDTH 630 0
DWIDTH 7 0
BBX 6 8 0 0
BITMAP
FC
10
10
10
10
10
10
10
ENDCHAR
STARTCHAR 03A5
ENCODING 933
SWIDTH 630 0
DWIDTH 7 0
BBX 7 8 0 0
BITMAP
C6
44
28
28
10
10
10
10
ENDCHAR
STARTCHAR 03A6
ENCODING 934
SWIDTH 630 0
DWIDTH 7 0
BBX 7 8 0 0
BITMAP
10
7C
94
92
92
94
7C
10
ENDCHAR
STARTCHAR 03A7
ENCODING 935
SWIDTH 630 0
DWIDTH 7 0
BBX 6 8 0 0
BITMAP
44
68
28
10
30
28
44
C4
ENDCHAR
STARTCHAR 03A8
ENCODING 936
SWIDTH 630 0
DWIDTH 7 0
BBX 7 8 0 0
BITMAP
92
92
92
92
54
38
10
10
ENDCHAR
STARTCHAR 03A9
ENCODING 937
SWIDTH 630 0
DWIDTH 7 0
BBX 5 8 1 0
BITMAP
70
88
88
88
88
88
88
D8
ENDCHAR
STARTCHAR 03AA
ENCODING 938
SWIDTH 630 0
DWIDTH 7 0
BBX 5 9 1 0
BITMAP
50
F8
20
20
20
20
20
20
F8
ENDCHAR
STARTCHAR 03AB
ENCODING 939
SWIDTH 630 0
DWIDTH 7 0
BBX 7 9 0 0
BITMAP
28
C6
44
28
28
10
10
10
10
ENDCHAR
STARTCHAR 03AC
ENCODING 940
SWIDTH 630 0
DWIDTH 7 0
BBX 5 9 1 0
BITMAP
20
20
00
68
98
98
90
98
E8
ENDCHAR
STARTCHAR 03AD
ENCODING 941
SWIDTH 630 0
DWIDTH 7 0
BBX 5 9 1 0
BITMAP
10
20
00
78
80
70
80
88
78
ENDCHAR
STARTCHAR 03AE
ENCODING 942
SWIDTH 630 0
DWIDTH 7 0
BBX 5 11 1 -2
BITMAP
30
20
00
F0
88
88
88
88
88
08
08
ENDCHAR
STARTCHAR 03AF
ENCODING 943
SWIDTH 630 0
DWIDTH 7 0
BBX 5 9 1 0
BITMAP
20
20
00
E0
20
20
20
20
38
ENDCHAR
STARTCHAR 03B0
ENCODING 944
SWIDTH 630 0
DWIDTH 7 0
BBX 5 10 1 0
BITMAP
20
20
50
00
88
88
88
88
88
70
ENDCHAR
STARTCHAR 03B1
ENCODING 945
SWIDTH 630 0
DWIDTH 7 0
BBX 5 6 1 0
BITMAP
68
98
98
90
98
E8
ENDCHAR
STARTCHAR 03B2
ENCODING 946
SWIDTH 630 0
DWIDTH 7 0
BBX 5 10 1 -2
BITMAP
70
88
88
B0
88
88
88
F0
80
80
ENDCHAR
STARTCHAR 03B3
ENCODING 947
SWIDTH 630 0
DWIDTH 7 0
BBX 6 8 0 -2
BITMAP
C4
44
28
28
28
10
10
10
ENDCHAR
STARTCHAR 03B4
ENCODING 948
SWIDTH 630 0
DWIDTH 7 0
BBX 5 8 1 0
BITMAP
78
80
60
98
88
88
88
70
ENDCHAR
STARTCHAR 03B5
ENCODING 949
SWIDTH 630 0
DWIDTH 7 0
BBX 5 6 1 0
BITMAP
78
80
70
80
88
78
ENDCHAR
STARTCHAR 03B6
ENCODING 950
SWIDTH 630 0
DWIDTH 7 0
BBX 5 11 1 -3
BITMAP
78
10
20
40
80
80
C0
70
08
08
10
ENDCHAR
STARTCHAR 03B7
ENCODING 951
SWIDTH 630 0
DWIDTH 7 0
BBX 5 8 1 -2
BITMAP
F0
88
88
88
88
88
08
08
ENDCHAR
STARTCHAR 03B8
ENCODING 952
SWIDTH 630 0
DWIDTH 7 0
BBX 5 8 1 0
BITMAP
70
88
88
F8
88
88
88
70
ENDCHAR
STARTCHAR 03B9
ENCODING 953
SWIDTH 630 0
DWIDTH 7 0
BBX 5 6 1 0
BITMAP
E0
20
20
20
20
38
ENDCHAR
STARTCHAR 03BA
ENCODING 954
SWIDTH 630 0
DWIDTH 7 0
BBX 5 6 1 0
BITMAP
88
90
E0
A0
90
88
ENDCHAR
STARTCHAR 03BB
ENCODING 955
SWIDTH 630 0
DWIDTH 7 0
BBX 5 9 1 0
BITMAP
80
40
20
20
50
50
90
98
88
ENDCHAR
STARTCHAR 03BC
ENCODING 956
SWIDTH 630 0
DWIDTH 7 0
BBX 5 8 1 -2
BITMAP
88
88
88
88
98
E8
80
80
ENDCHAR
STARTCHAR 03BD
ENCODING 957
SWIDTH 630 0
DWIDTH 7 0
BBX 6 6 0 0
BITMAP
C4
44
28
28
28
10
ENDCHAR
STARTCHAR 03BE
ENCODING 958
SWIDTH 630 0
DWIDTH 7 0
BBX 5 11 1 -3
BITMAP
78
40
40
30
C0
80
C0
70
08
08
10
ENDCHAR
STARTCHAR 03BF
ENCODING 959
SWIDTH 630 0
DWIDTH 7 0
BBX 5 6 1 0
BITMAP
70
88
88
88
88
70
ENDCHAR
STARTCHAR 03C0
ENCODING 960
SWIDTH 630 0
DWIDTH 7 0
BBX 6 6 0 0
BITMAP
FC
48
48
48
48
44
ENDCHAR
STARTCHAR 03C1
ENCODING 961
SWIDTH 630 0
DWIDTH 7 0
BBX 5 8 1 -2
BITMAP
70
88
88
88
88
F0
80
80
ENDCHAR
STARTCHAR 03C2
ENCODING 962
SWIDTH 630 0
DWIDTH 7 0
BBX 5 8 1 -2
BITMAP
78
C0
80
80
40
30
08
10
ENDCHAR
STARTCHAR 03C3
ENCODING 963
SWIDTH 630 0
DWIDTH 7 0
BBX 5 6 1 0
BITMAP
78
88
88
88
88
70
ENDCHAR
STARTCHAR 03C4
ENCODING 964
SWIDTH 630 0
DWIDTH 7 0
BBX 6 6 0 0
BITMAP
FC
10
10
10
10
1C
ENDCHAR
STARTCHAR 03C5
ENCODING 965
SWIDTH 630 0
DWIDTH 7 0
BBX 5 6 1 0
BITMAP
88
88
88
88
88
70
ENDCHAR
STARTCHAR 03C6
ENCODING 966
SWIDTH 630 0
DWIDTH 7 0
BBX 6 8 0 -2
BITMAP
5C
54
94
94
54
7C
10
10
ENDCHAR
STARTCHAR 03C7
ENCODING 967
SWIDTH 630 0
DWIDTH 7 0
BBX 5 8 1 -2
BITMAP
88
50
50
20
20
50
50
88
ENDCHAR
STARTCHAR 03C8
ENCODING 968
SWIDTH 630 0
DWIDTH 7 0
BBX 6 8 0 -2
BITMAP
94
94
94
94
54
78
10
10
ENDCHAR
STARTCHAR 03C9
ENCODING 969
SWIDTH 630 0
DWIDTH 7 0
BBX 7 6 0 0
BITMAP
44
84
92
92
94
6C
ENDCHAR
STARTCHAR 03CA
ENCODING 970
SWIDTH 630 0
DWIDTH 7 0
BBX 5 8 1 0
BITMAP
D0
00
E0
20
20
20
20
38
ENDCHAR
STARTCHAR 03CB
ENCODING 971
SWIDTH 630 0
DWIDTH 7 0
BBX 5 8 1 0
BITMAP
50
00
88
88
88
88
88
70
ENDCHAR
STARTCHAR 03CC
ENCODING 972
SWIDTH 630 0
DWIDTH 7 0
BBX 5 9 1 0
BITMAP
30
20
00
70
88
88
88
88
70
ENDCHAR
STARTCHAR 03CD
ENCODING 973
SWIDTH 630 0
DWIDTH 7 0
BBX 5 9 1 0
BITMAP
30
20
00
88
88
88
88
88
70
ENDCHAR
STARTCHAR 03CE
ENCODING 974
SWIDTH 630 0
DWIDTH 7 0
BBX 7 9 0 0
BITMAP
18
10
00
44
84
92
92
94
6C
ENDCHAR
STARTCHAR 03CF
ENCODING 975
SWIDTH 630 0
DWIDTH 7 0
BBX 6 10 1 -2
BITMAP
88
90
A0
E0
A0
B0
90
8C
04
18
ENDCHAR
STARTCHAR 03D0
ENCODING 976
SWIDTH 630 0
DWIDTH 7 0
BBX 5 8 1 0
BITMAP
70
58
90
F0
88
88
88
70
ENDCHAR
STARTCHAR 03D1
ENCODING 977
SWIDTH 630 0
DWIDTH 7 0
BBX 5 8 1 0
BITMAP
F0
98
78
08
88
90
90
60
ENDCHAR
STARTCHAR 03D2
ENCODING 978
SWIDTH 630 0
DWIDTH 7 0
BBX 7 8 0 0
BITMAP
C6
48
28
28
10
10
10
10
ENDCHAR
STARTCHAR 03D3
ENCODING 979
SWIDTH 630 0
DWIDTH 7 0
BBX 8 8 -1 0
BITMAP
E3
A4
14
14
08
08
08
08
ENDCHAR
STARTCHAR 03D4
ENCODING 980
SWIDTH 630 0
DWIDTH 7 0
BBX 7 9 0 0
BITMAP
28
C6
48
28
28
10
10
10
10
ENDCHAR
STARTCHAR 03D5
ENCODING 981
SWIDTH 630 0
DWIDTH 7 0
BBX 6 11 0 -2
BITMAP
10
10
10
38
54
54
D4
54
78
10
10
ENDCHAR
STARTCHAR 03D6
ENCODING 982
SWIDTH 630 0
DWIDTH 7 0
BBX 7 6 0 0
BITMAP
FE
44
92
92
54
6C
ENDCHAR
STARTCHAR 03D7
ENCODING 983
SWIDTH 630 0
DWIDTH 7 0
BBX 5 8 1 -2
BITMAP
98
98
A8
A8
C8
48
08
38
ENDCHAR
STARTCHAR 03D8
ENCODING 984
SWIDTH 630 0
DWIDTH 7 0
BBX 5 10 1 -2
BITMAP
70
88
88
88
88
88
88
70
20
20
ENDCHAR
STARTCHAR 03D9
ENCODING 985
SWIDTH 630 0
DWIDTH 7 0
BBX 5 8 1 -2
BITMAP
70
88
88
88
88
70
20
20
ENDCHAR
STARTCHAR 03DA
ENCODING 986
SWIDTH 630 0
DWIDTH 7 0
BBX 5 10 1 -2
BITMAP
78
C0
80
80
80
80
60
18
08
10
ENDCHAR
STARTCHAR 03DB
ENCODING 987
SWIDTH 630 0
DWIDTH 7 0
BBX 5 9 1 -2
BITMAP
08
30
C0
80
80
C0
30
08
30
ENDCHAR
STARTCHAR 03DC
ENCODING 988
SWIDTH 630 0
DWIDTH 7 0
BBX 5 8 1 0
BITMAP
F8
80
80
80
F0
80
80
80
ENDCHAR
STARTCHAR 03DD
ENCODING 989
SWIDTH 630 0
DWIDTH 7 0
BBX 5 8 1 -2
BITMAP
78
80
80
F8
80
80
80
80
ENDCHAR
STARTCHAR 03DE
ENCODING 990
SWIDTH 630 0
DWIDTH 7 0
BBX 5 8 1 0
BITMAP
30
60
40
80
F8
18
10
60
ENDCHAR
STARTCHAR 03DF
ENCODING 991
SWIDTH 630 0
DWIDTH 7 0
BBX 5 9 1 0
BITMAP
20
20
40
40
F8
90
10
20
20
ENDCHAR
STARTCHAR 03E0
ENCODING 992
SWIDTH 630 0
DWIDTH 7 0
BBX 7 8 0 0
BITMAP
10
10
30
28
28
54
54
A6
ENDCHAR
STARTCHAR 03E1
ENCODING 993
SWIDTH 630 0
DWIDTH 7 0
BBX 6 10 0 -2
BITMAP
60
10
18
18
2C
2C
54
D4
04
0C
ENDCHAR
STARTCHAR 03F0
ENCODING 1008
SWIDTH 630 0
DWIDTH 7 0
BBX 5 6 1 0
BITMAP
98
98
A8
A8
C8
C8
ENDCHAR
STARTCHAR 03F1
ENCODING 1009
SWIDTH 630 0
DWIDTH 7 0
BBX 5 9 1 -3
BITMAP
70
88
88
88
88
F0
80
70
10
ENDCHAR
STARTCHAR 03F2
ENCODING 1010
SWIDTH 630 0
DWIDTH 7 0
BBX 5 6 1 0
BITMAP
78
80
80
80
80
78
ENDCHAR
STARTCHAR 03F3
ENCODING 1011
SWIDTH 630 0
DWIDTH 7 0
BBX 4 10 1 -2
BITMAP
30
00
70
10
10
10
10
10
10
E0
ENDCHAR
STARTCHAR 03F4
ENCODING 1012
SWIDTH 630 0
DWIDTH 7 0
BBX 5 8 1 0
BITMAP
70
88
88
F8
88
88
88
70
ENDCHAR
STARTCHAR 03F5
ENCODING 1013
SWIDTH 630 0
DWIDTH 7 0
BBX 5 6 1 0
BITMAP
78
80
F0
80
80
78
ENDCHAR
STARTCHAR 03F6
ENCODING 1014
SWIDTH 630 0
DWIDTH 7 0
BBX 5 6 1 0
BITMAP
F0
08
78
08
18
F0
ENDCHAR
STARTCHAR 03F7
ENCODING 1015
SWIDTH 630 0
DWIDTH 7 0
BBX 5 8 1 0
BITMAP
80
F0
88
88
88
88
F0
80
ENDCHAR
STARTCHAR 03F8
ENCODING 1016
SWIDTH 630 0
DWIDTH 7 0
BBX 5 10 1 -2
BITMAP
80
80
F0
88
88
88
88
F0
80
80
ENDCHAR
STARTCHAR 03F9
ENCODING 1017
SWIDTH 630 0
DWIDTH 7 0
BBX 5 8 1 0
BITMAP
78
80
80
80
80
80
80
78
ENDCHAR
STARTCHAR 03FA
ENCODING 1018
SWIDTH 630 0
DWIDTH 7 0
BBX 6 8 0 0
BITMAP
44
6C
6C
6C
AC
94
94
84
ENDCHAR
STARTCHAR 03FB
ENCODING 1019
SWIDTH 630 0
DWIDTH 7 0
BBX 6 8 0 -2
BITMAP
4C
6C
6C
74
54
84
80
80
ENDCHAR
STARTCHAR 03FC
ENCODING 1020
SWIDTH 630 0
DWIDTH 7 0
BBX 6 8 0 -2
BITMAP
38
24
44
44
44
78
F0
40
ENDCHAR
STARTCHAR 03FD
ENCODING 1021
SWIDTH 630 0
DWIDTH 7 0
BBX 6 8 0 0
BITMAP
F8
0C
04
04
04
04
08
F8
ENDCHAR
STARTCHAR 03FE
ENCODING 1022
SWIDTH 630 0
DWIDTH 7 0
BBX 5 8 1 0
BITMAP
78
80
80
80
80
B0
80
78
ENDCHAR
STARTCHAR 03FF
ENCODING 1023
SWIDTH 630 0
DWIDTH 7 0
BBX 6 8 0 0
BITMAP
F8
0C
04
04
04
24
08
F8
ENDCHAR
STARTCHAR 0400
ENCODING 1024
SWIDTH 630 0
DWIDTH 7 0
BBX 5 10 1 0
BITMAP
70
00
F8
80
80
80
F0
80
80
F8
ENDCHAR
STARTCHAR 0401
ENCODING 1025
SWIDTH 630 0
DWIDTH 7 0
BBX 5 9 1 0
BITMAP
50
F8
80
80
80
F0
80
80
F8
ENDCHAR
STARTCHAR 0402
ENCODING 1026
SWIDTH 630 0
DWIDTH 7 0
BBX 6 10 0 -2
BITMAP
F8
20
20
3C
24
24
24
24
04
08
ENDCHAR
STARTCHAR 0403
ENCODING 1027
SWIDTH 630 0
DWIDTH 7 0
BBX 4 10 2 0
BITMAP
60
00
F0
80
80
80
80
80
80
80
ENDCHAR
STARTCHAR 0404
ENCODING 1028
SWIDTH 630 0
DWIDTH 7 0
BBX 5 8 1 0
BITMAP
78
80
80
F0
80
80
88
78
ENDCHAR
STARTCHAR 0405
ENCODING 1029
SWIDTH 630 0
DWIDTH 7 0
BBX 6 8 0 0
BITMAP
38
44
40
30
0C
04
44
F8
ENDCHAR
STARTCHAR 0406
ENCODING 1030
SWIDTH 630 0
DWIDTH 7 0
BBX 5 8 1 0
BITMAP
F8
20
20
20
20
20
20
F8
ENDCHAR
STARTCHAR 0407
ENCODING 1031
SWIDTH 630 0
DWIDTH 7 0
BBX 5 9 1 0
BITMAP
50
F8
20
20
20
20
20
20
F8
ENDCHAR
STARTCHAR 0408
ENCODING 1032
SWIDTH 630 0
DWIDTH 7 0
BBX 5 8 1 0
BITMAP
78
08
08
08
08
08
10
F0
ENDCHAR
STARTCHAR 0409
ENCODING 1033
SWIDTH 630 0
DWIDTH 7 0
BBX 7 8 0 0
BITMAP
70
50
50
5C
52
52
92
9C
ENDCHAR
STARTCHAR 040A
ENCODING 1034
SWIDTH 630 0
DWIDTH 7 0
BBX 7 8 0 0
BITMAP
90
90
90
FC
92
92
92
9C
ENDCHAR
STARTCHAR 040B
ENCODING 1035
SWIDTH 630 0
DWIDTH 7 0
BBX 6 8 0 0
BITMAP
F8
20
20
3C
24
24
24
24
ENDCHAR
STARTCHAR 040C
ENCODING 1036
SWIDTH 630 0
DWIDTH 7 0
BBX 6 10 1 0
BITMAP
30
40
88
90
B0
E0
A0
90
88
8C
ENDCHAR
STARTCHAR 040D
ENCODING 1037
SWIDTH 630 0
DWIDTH 7 0
BBX 5 10 1 0
BITMAP
60
10
98
98
98
A8
A8
C8
C8
88
ENDCHAR
STARTCHAR 040E
ENCODING 1038
SWIDTH 630 0
DWIDTH 7 0
BBX 7 10 0 0
BITMAP
28
38
C6
44
44
28
28
10
10
60
ENDCHAR
STARTCHAR 040F
ENCODING 1039
SWIDTH 630 0
DWIDTH 7 0
BBX 5 9 1 -1
BITMAP
88
88
88
88
88
88
88
F8
20
ENDCHAR
STARTCHAR 0410
ENCODING 1040
SWIDTH 630 0
DWIDTH 7 0
BBX 7 8 0 0
BITMAP
10
28
28
28
48
7C
44
86
ENDCHAR
STARTCHAR 0411
ENCODING 1041
SWIDTH 630 0
DWIDTH 7 0
BBX 5 8 1 0
BITMAP
F8
80
80
F0
88
88
88
F0
ENDCHAR
STARTCHAR 0412
ENCODING 1042
SWIDTH 630 0
DWIDTH 7 0
BBX 5 8 1 0
BITMAP
F0
88
88
F0
88
88
88
F0
ENDCHAR
STARTCHAR 0413
ENCODING 1043
SWIDTH 630 0
DWIDTH 7 0
BBX 4 8 2 0
BITMAP
F0
80
80
80
80
80
80
80
ENDCHAR
STARTCHAR 0414
ENCODING 1044
SWIDTH 630 0
DWIDTH 7 0
BBX 6 9 0 -1
BITMAP
3C
24
24
44
44
44
44
FC
84
ENDCHAR
STARTCHAR 0415
ENCODING 1045
SWIDTH 630 0
DWIDTH 7 0
BBX 5 8 1 0
BITMAP
F8
80
80
80
F0
80
80
F8
ENDCHAR
STARTCHAR 0416
ENCODING 1046
SWIDTH 630 0
DWIDTH 7 0
BBX 7 8 0 0
BITMAP
96
54
54
38
54
54
54
92
ENDCHAR
STARTCHAR 0417
ENCODING 1047
SWIDTH 630 0
DWIDTH 7 0
BBX 6 8 0 0
BITMAP
78
04
04
38
04
04
C4
78
ENDCHAR
STARTCHAR 0418
ENCODING 1048
SWIDTH 630 0
DWIDTH 7 0
BBX 5 8 1 0
BITMAP
98
98
98
A8
A8
C8
C8
88
ENDCHAR
STARTCHAR 0419
ENCODING 1049
SWIDTH 630 0
DWIDTH 7 0
BBX 5 10 1 0
BITMAP
50
60
98
98
98
A8
A8
C8
C8
88
ENDCHAR
STARTCHAR 041A
ENCODING 1050
SWIDTH 630 0
DWIDTH 7 0
BBX 6 8 1 0
BITMAP
88
90
B0
E0
A0
90
88
8C
ENDCHAR
STARTCHAR 041B
ENCODING 1051
SWIDTH 630 0
DWIDTH 7 0
BBX 6 8 0 0
BITMAP
3C
24
24
44
44
44
44
84
ENDCHAR
STARTCHAR 041C
ENCODING 1052
SWIDTH 630 0
DWIDTH 7 0
BBX 6 8 0 0
BITMAP
44
6C
6C
6C
AC
94
94
84
ENDCHAR
STARTCHAR 041D
ENCODING 1053
SWIDTH 630 0
DWIDTH 7 0
BBX 5 8 1 0
BITMAP
88
88
88
F8
88
88
88
88
ENDCHAR
STARTCHAR 041E
ENCODING 1054
SWIDTH 630 0
DWIDTH 7 0
BBX 5 8 1 0
BITMAP
70
88
88
88
88
88
88
70
ENDCHAR
STARTCHAR 041F
ENCODING 1055
SWIDTH 630 0
DWIDTH 7 0
BBX 5 8 1 0
BITMAP
F8
88
88
88
88
88
88
88
ENDCHAR
STARTCHAR 0420
ENCODING 1056
SWIDTH 630 0
DWIDTH 7 0
BBX 5 8 1 0
BITMAP
F0
88
88
88
F0
80
80
80
ENDCHAR
STARTCHAR 0421
ENCODING 1057
SWIDTH 630 0
DWIDTH 7 0
BBX 5 8 1 0
BITMAP
78
80
80
80
80
80
80
78
ENDCHAR
STARTCHAR 0422
ENCODING 1058
SWIDTH 630 0
DWIDTH 7 0
BBX 6 8 0 0
BITMAP
FC
10
10
10
10
10
10
10
ENDCHAR
STARTCHAR 0423
ENCODING 1059
SWIDTH 630 0
DWIDTH 7 0
BBX 7 8 0 0
BITMAP
C6
44
44
28
28
10
10
60
ENDCHAR
STARTCHAR 0424
ENCODING 1060
SWIDTH 630 0
DWIDTH 7 0
BBX 7 9 0 0
BITMAP
10
38
54
92
92
92
94
54
38
ENDCHAR
STARTCHAR 0425
ENCODING 1061
SWIDTH 630 0
DWIDTH 7 0
BBX 6 8 0 0
BITMAP
44
68
28
10
30
28
44
C4
ENDCHAR
STARTCHAR 0426
ENCODING 1062
SWIDTH 630 0
DWIDTH 7 0
BBX 6 10 1 -2
BITMAP
88
88
88
88
88
88
88
FC
04
04
ENDCHAR
STARTCHAR 0427
ENCODING 1063
SWIDTH 630 0
DWIDTH 7 0
BBX 5 8 1 0
BITMAP
88
88
88
88
88
78
08
08
ENDCHAR
STARTCHAR 0428
ENCODING 1064
SWIDTH 630 0
DWIDTH 7 0
BBX 5 8 1 0
BITMAP
A8
A8
A8
A8
A8
A8
A8
F8
ENDCHAR
STARTCHAR 0429
ENCODING 1065
SWIDTH 630 0
DWIDTH 7 0
BBX 6 10 1 -2
BITMAP
A8
A8
A8
A8
A8
A8
A8
FC
04
04
ENDCHAR
STARTCHAR 042A
ENCODING 1066
SWIDTH 630 0
DWIDTH 7 0
BBX 7 8 0 0
BITMAP
C0
40
40
7C
44
42
44
7C
ENDCHAR
STARTCHAR 042B
ENCODING 1067
SWIDTH 630 0
DWIDTH 7 0
BBX 6 8 0 0
BITMAP
84
84
84
F4
8C
8C
8C
F4
ENDCHAR
STARTCHAR 042C
ENCODING 1068
SWIDTH 630 0
DWIDTH 7 0
BBX 5 8 1 0
BITMAP
80
80
80
F0
88
88
88
F0
ENDCHAR
STARTCHAR 042D
ENCODING 1069
SWIDTH 630 0
DWIDTH 7 0
BBX 6 8 0 0
BITMAP
78
04
04
3C
04
04
4C
F8
ENDCHAR
STARTCHAR 042E
ENCODING 1070
SWIDTH 630 0
DWIDTH 7 0
BBX 6 8 1 0
BITMAP
B8
A8
C4
C4
C4
C4
A8
B8
ENDCHAR
STARTCHAR 042F
ENCODING 1071
SWIDTH 630 0
DWIDTH 7 0
BBX 6 8 0 0
BITMAP
3C
44
44
44
3C
24
44
C4
ENDCHAR
STARTCHAR 0430
ENCODING 1072
SWIDTH 630 0
DWIDTH 7 0
BBX 5 6 1 0
BITMAP
F0
10
70
90
90
E8
ENDCHAR
STARTCHAR 0431
ENCODING 1073
SWIDTH 630 0
DWIDTH 7 0
BBX 5 9 1 0
BITMAP
10
60
80
F0
88
88
88
88
70
ENDCHAR
STARTCHAR 0432
ENCODING 1074
SWIDTH 630 0
DWIDTH 7 0
BBX 5 6 1 0
BITMAP
F0
88
F0
88
88
F0
ENDCHAR
STARTCHAR 0433
ENCODING 1075
SWIDTH 630 0
DWIDTH 7 0
BBX 4 6 2 0
BITMAP
F0
80
80
80
80
80
ENDCHAR
STARTCHAR 0434
ENCODING 1076
SWIDTH 630 0
DWIDTH 7 0
BBX 6 7 0 -1
BITMAP
3C
24
24
44
44
FC
84
ENDCHAR
STARTCHAR 0435
ENCODING 1077
SWIDTH 630 0
DWIDTH 7 0
BBX 5 6 1 0
BITMAP
70
88
F8
80
80
78
ENDCHAR
STARTCHAR 0436
ENCODING 1078
SWIDTH 630 0
DWIDTH 7 0
BBX 7 6 0 0
BITMAP
D6
54
38
54
54
96
ENDCHAR
STARTCHAR 0437
ENCODING 1079
SWIDTH 630 0
DWIDTH 7 0
BBX 5 6 1 0
BITMAP
F0
08
70
08
88
F0
ENDCHAR
STARTCHAR 0438
ENCODING 1080
SWIDTH 630 0
DWIDTH 7 0
BBX 5 6 1 0
BITMAP
98
98
A8
A8
C8
C8
ENDCHAR
STARTCHAR 0439
ENCODING 1081
SWIDTH 630 0
DWIDTH 7 0
BBX 5 9 1 0
BITMAP
50
60
00
98
98
A8
A8
C8
C8
ENDCHAR
STARTCHAR 043A
ENCODING 1082
SWIDTH 630 0
DWIDTH 7 0
BBX 5 6 1 0
BITMAP
88
90
E0
90
90
88
ENDCHAR
STARTCHAR 043B
ENCODING 1083
SWIDTH 630 0
DWIDTH 7 0
BBX 6 6 0 0
BITMAP
3C
24
24
44
44
C4
ENDCHAR
STARTCHAR 043C
ENCODING 1084
SWIDTH 630 0
DWIDTH 7 0
BBX 6 6 0 0
BITMAP
4C
6C
6C
74
54
84
ENDCHAR
STARTCHAR 043D
ENCODING 1085
SWIDTH 630 0
DWIDTH 7 0
BBX 5 6 1 0
BITMAP
88
88
F8
88
88
88
ENDCHAR
STARTCHAR 043E
ENCODING 1086
SWIDTH 630 0
DWIDTH 7 0
BBX 5 6 1 0
BITMAP
70
88
88
88
88
70
ENDCHAR
STARTCHAR 043F
ENCODING 1087
SWIDTH 630 0
DWIDTH 7 0
BBX 5 6 1 0
BITMAP
F8
88
88
88
88
88
ENDCHAR
STARTCHAR 0440
ENCODING 1088
SWIDTH 630 0
DWIDTH 7 0
BBX 5 8 1 -2
BITMAP
F0
88
88
88
88
F0
80
80
ENDCHAR
STARTCHAR 0441
ENCODING 1089
SWIDTH 630 0
DWIDTH 7 0
BBX 5 6 1 0
BITMAP
78
80
80
80
80
78
ENDCHAR
STARTCHAR 0442
ENCODING 1090
SWIDTH 630 0
DWIDTH 7 0
BBX 5 6 1 0
BITMAP
F8
20
20
20
20
20
ENDCHAR
STARTCHAR 0443
ENCODING 1091
SWIDTH 630 0
DWIDTH 7 0
BBX 5 8 1 -2
BITMAP
88
88
50
50
50
20
20
C0
ENDCHAR
STARTCHAR 0444
ENCODING 1092
SWIDTH 630 0
DWIDTH 7 0
BBX 7 10 0 -2
BITMAP
10
10
7C
94
92
92
94
7C
10
10
ENDCHAR
STARTCHAR 0445
ENCODING 1093
SWIDTH 630 0
DWIDTH 7 0
BBX 5 6 1 0
BITMAP
88
50
20
60
50
88
ENDCHAR
STARTCHAR 0446
ENCODING 1094
SWIDTH 630 0
DWIDTH 7 0
BBX 6 8 1 -2
BITMAP
88
88
88
88
88
FC
04
04
ENDCHAR
STARTCHAR 0447
ENCODING 1095
SWIDTH 630 0
DWIDTH 7 0
BBX 5 6 1 0
BITMAP
88
88
98
E8
08
08
ENDCHAR
STARTCHAR 0448
ENCODING 1096
SWIDTH 630 0
DWIDTH 7 0
BBX 5 6 1 0
BITMAP
A8
A8
A8
A8
A8
F8
ENDCHAR
STARTCHAR 0449
ENCODING 1097
SWIDTH 630 0
DWIDTH 7 0
BBX 6 8 1 -2
BITMAP
A8
A8
A8
A8
A8
FC
04
04
ENDCHAR
STARTCHAR 044A
ENCODING 1098
SWIDTH 630 0
DWIDTH 7 0
BBX 6 6 0 0
BITMAP
E0
20
38
24
24
3C
ENDCHAR
STARTCHAR 044B
ENCODING 1099
SWIDTH 630 0
DWIDTH 7 0
BBX 5 6 1 0
BITMAP
88
88
E8
B8
98
E8
ENDCHAR
STARTCHAR 044C
ENCODING 1100
SWIDTH 630 0
DWIDTH 7 0
BBX 5 6 1 0
BITMAP
80
80
F0
88
88
F0
ENDCHAR
STARTCHAR 044D
ENCODING 1101
SWIDTH 630 0
DWIDTH 7 0
BBX 5 6 1 0
BITMAP
F0
08
78
08
18
F0
ENDCHAR
STARTCHAR 044E
ENCODING 1102
SWIDTH 630 0
DWIDTH 7 0
BBX 5 6 1 0
BITMAP
B8
C8
C8
C8
A8
B8
ENDCHAR
STARTCHAR 044F
ENCODING 1103
SWIDTH 630 0
DWIDTH 7 0
BBX 5 6 1 0
BITMAP
78
88
88
78
48
88
ENDCHAR
STARTCHAR 0450
ENCODING 1104
SWIDTH 630 0
DWIDTH 7 0
BBX 5 9 1 0
BITMAP
60
10
00
70
88
F8
80
80
78
ENDCHAR
STARTCHAR 0451
ENCODING 1105
SWIDTH 630 0
DWIDTH 7 0
BBX 5 8 1 0
BITMAP
50
00
70
88
F8
80
80
78
ENDCHAR
STARTCHAR 0452
ENCODING 1106
SWIDTH 630 0
DWIDTH 7 0
BBX 6 11 0 -2
BITMAP
40
F0
40
78
44
44
44
44
44
04
08
ENDCHAR
STARTCHAR 0453
ENCODING 1107
SWIDTH 630 0
DWIDTH 7 0
BBX 4 9 2 0
BITMAP
20
40
00
F0
80
80
80
80
80
ENDCHAR
STARTCHAR 0454
ENCODING 1108
SWIDTH 630 0
DWIDTH 7 0
BBX 5 6 1 0
BITMAP
78
80
F0
80
80
78
ENDCHAR
STARTCHAR 0455
ENCODING 1109
SWIDTH 630 0
DWIDTH 7 0
BBX 5 6 1 0
BITMAP
78
80
60
18
08
F0
ENDCHAR
STARTCHAR 0456
ENCODING 1110
SWIDTH 630 0
DWIDTH 7 0
BBX 5 8 1 0
BITMAP
20
00
E0
20
20
20
20
F8
ENDCHAR
STARTCHAR 0457
ENCODING 1111
SWIDTH 630 0
DWIDTH 7 0
BBX 5 8 1 0
BITMAP
50
00
E0
20
20
20
20
F8
ENDCHAR
STARTCHAR 0458
ENCODING 1112
SWIDTH 630 0
DWIDTH 7 0
BBX 4 10 1 -2
BITMAP
30
00
70
10
10
10
10
10
10
E0
ENDCHAR
STARTCHAR 0459
ENCODING 1113
SWIDTH 630 0
DWIDTH 7 0
BBX 7 6 0 0
BITMAP
70
50
5C
52
52
9C
ENDCHAR
STARTCHAR 045A
ENCODING 1114
SWIDTH 630 0
DWIDTH 7 0
BBX 6 6 1 0
BITMAP
A0
A0
F8
A4
A4
B8
ENDCHAR
STARTCHAR 045B
ENCODING 1115
SWIDTH 630 0
DWIDTH 7 0
BBX 6 9 0 0
BITMAP
40
F0
40
78
44
44
44
44
44
ENDCHAR
STARTCHAR 045C
ENCODING 1116
SWIDTH 630 0
DWIDTH 7 0
BBX 5 9 1 0
BITMAP
30
40
00
88
90
E0
90
90
88
ENDCHAR
STARTCHAR 045D
ENCODING 1117
SWIDTH 630 0
DWIDTH 7 0
BBX 5 9 1 0
BITMAP
40
30
00
98
98
A8
A8
C8
C8
ENDCHAR
STARTCHAR 045E
ENCODING 1118
SWIDTH 630 0
DWIDTH 7 0
BBX 5 11 1 -2
BITMAP
50
60
00
88
88
50
50
50
20
20
C0
ENDCHAR
STARTCHAR 045F
ENCODING 1119
SWIDTH 630 0
DWIDTH 7 0
BBX 5 7 1 -1
BITMAP
88
88
88
88
88
F8
20
ENDCHAR
STARTCHAR 0460
ENCODING 1120
SWIDTH 630 0
DWIDTH 7 0
BBX 7 8 0 0
BITMAP
44
44
82
92
92
92
94
6C
ENDCHAR
STARTCHAR 0461
ENCODING 1121
SWIDTH 630 0
DWIDTH 7 0
BBX 7 6 0 0
BITMAP
44
84
92
92
94
6C
ENDCHAR
STARTCHAR 0462
ENCODING 1122
SWIDTH 630 0
DWIDTH 7 0
BBX 6 8 0 0
BITMAP
20
F0
20
38
24
24
24
38
ENDCHAR
STARTCHAR 0463
ENCODING 1123
SWIDTH 630 0
DWIDTH 7 0
BBX 5 7 1 0
BITMAP
40
E0
40
70
48
48
70
ENDCHAR
STARTCHAR 0464
ENCODING 1124
SWIDTH 630 0
DWIDTH 7 0
BBX 7 8 0 0
BITMAP
9E
90
A0
FC
A0
A0
90
8E
ENDCHAR
STARTCHAR 0465
ENCODING 1125
SWIDTH 630 0
DWIDTH 7 0
BBX 6 6 1 0
BITMAP
BC
A0
F8
A0
A0
9C
ENDCHAR
STARTCHAR 0466
ENCODING 1126
SWIDTH 630 0
DWIDTH 7 0
BBX 7 8 0 0
BITMAP
10
38
28
28
78
54
54
96
ENDCHAR
STARTCHAR 0467
ENCODING 1127
SWIDTH 630 0
DWIDTH 7 0
BBX 6 6 0 0
BITMAP
10
28
28
78
54
D4
ENDCHAR
STARTCHAR 0468
ENCODING 1128
SWIDTH 630 0
DWIDTH 7 0
BBX 7 8 0 0
BITMAP
88
98
94
94
FC
AC
AC
AA
ENDCHAR
STARTCHAR 0469
ENCODING 1129
SWIDTH 630 0
DWIDTH 7 0
BBX 6 6 1 0
BITMAP
90
B0
A8
F8
D8
D4
ENDCHAR
STARTCHAR 046A
ENCODING 1130
SWIDTH 630 0
DWIDTH 7 0
BBX 6 8 0 0
BITMAP
7C
48
28
38
38
54
54
D4
ENDCHAR
STARTCHAR 046B
ENCODING 1131
SWIDTH 630 0
DWIDTH 7 0
BBX 7 6 0 0
BITMAP
7C
28
38
7C
54
96
ENDCHAR
STARTCHAR 046C
ENCODING 1132
SWIDTH 630 0
DWIDTH 7 0
BBX 7 8 0 0
BITMAP
BE
A4
94
98
FC
AC
AA
EA
ENDCHAR
STARTCHAR 046D
ENCODING 1133
SWIDTH 630 0
DWIDTH 7 0
BBX 7 6 0 0
BITMAP
BC
94
98
FC
AC
AA
ENDCHAR
STARTCHAR 046E
ENCODING 1134
SWIDTH 630 0
DWIDTH 7 0
BBX 5 12 1 -2
BITMAP
F0
00
F8
10
20
70
08
08
18
E0
80
40
ENDCHAR
STARTCHAR 046F
ENCODING 1135
SWIDTH 630 0
DWIDTH 7 0
BBX 5 12 1 -3
BITMAP
D0
20
00
F8
10
20
70
08
18
E0
80
40
ENDCHAR
STARTCHAR 0470
ENCODING 1136
SWIDTH 630 0
DWIDTH 7 0
BBX 7 8 0 0
BITMAP
92
92
92
92
54
38
10
10
ENDCHAR
STARTCHAR 0471
ENCODING 1137
SWIDTH 630 0
DWIDTH 7 0
BBX 6 8 0 -2
BITMAP
94
94
94
94
54
78
10
10
ENDCHAR
STARTCHAR 0472
ENCODING 1138
SWIDTH 630 0
DWIDTH 7 0
BBX 5 8 1 0
BITMAP
70
88
88
F8
88
88
88
70
ENDCHAR
STARTCHAR 0473
ENCODING 1139
SWIDTH 630 0
DWIDTH 7 0
BBX 5 6 1 0
BITMAP
70
88
F8
88
88
70
ENDCHAR
STARTCHAR 0474
ENCODING 1140
SWIDTH 630 0
DWIDTH 7 0
BBX 7 8 0 0
BITMAP
C6
48
48
48
28
30
30
10
ENDCHAR
STARTCHAR 0475
ENCODING 1141
SWIDTH 630 0
DWIDTH 7 0
BBX 6 7 1 0
BITMAP
0C
88
90
50
50
60
20
ENDCHAR
STARTCHAR 0476
ENCODING 1142
SWIDTH 630 0
DWIDTH 7 0
BBX 7 12 0 0
BITMAP
50
50
28
00
C6
48
48
48
28
30
30
10
ENDCHAR
STARTCHAR 0477
ENCODING 1143
SWIDTH 630 0
DWIDTH 7 0
BBX 6 10 1 0
BITMAP
A0
A0
50
0C
88
90
50
50
60
20
ENDCHAR
STARTCHAR 0478
ENCODING 1144
SWIDTH 630 0
DWIDTH 7 0
BBX 7 10 0 -2
BITMAP
60
A0
9A
9A
9C
9C
AC
64
04
08
ENDCHAR
STARTCHAR 0479
ENCODING 1145
SWIDTH 630 0
DWIDTH 7 0
BBX 7 8 0 -2
BITMAP
72
AA
AC
BC
AC
6C
04
18
ENDCHAR
STARTCHAR 048A
ENCODING 1162
SWIDTH 630 0
DWIDTH 7 0
BBX 6 11 1 -1
BITMAP
50
70
98
98
98
A8
A8
C8
C8
8C
08
ENDCHAR
STARTCHAR 048B
ENCODING 1163
SWIDTH 630 0
DWIDTH 7 0
BBX 5 10 1 -1
BITMAP
90
60
00
98
A8
A8
C8
C8
88
08
ENDCHAR
STARTCHAR 048C
ENCODING 1164
SWIDTH 630 0
DWIDTH 7 0
BBX 6 8 0 0
BITMAP
40
F0
40
78
44
44
44
7C
ENDCHAR
STARTCHAR 048D
ENCODING 1165
SWIDTH 630 0
DWIDTH 7 0
BBX 5 6 1 0
BITMAP
40
E0
70
48
48
70
ENDCHAR
STARTCHAR 048E
ENCODING 1166
SWIDTH 630 0
DWIDTH 7 0
BBX 5 8 1 0
BITMAP
F0
88
A8
98
F0
88
80
80
ENDCHAR
STARTCHAR 048F
ENCODING 1167
SWIDTH 630 0
DWIDTH 7 0
BBX 5 8 1 -2
BITMAP
F0
88
88
A8
A8
F0
88
80
ENDCHAR
STARTCHAR 0490
ENCODING 1168
SWIDTH 630 0
DWIDTH 7 0
BBX 4 10 2 0
BITMAP
10
10
F0
80
80
80
80
80
80
80
ENDCHAR
STARTCHAR 0491
ENCODING 1169
SWIDTH 630 0
DWIDTH 7 0
BBX 4 8 2 0
BITMAP
10
10
F0
80
80
80
80
80
ENDCHAR
STARTCHAR 0492
ENCODING 1170
SWIDTH 630 0
DWIDTH 7 0
BBX 6 8 1 0
BITMAP
7C
40
40
F0
40
40
40
40
ENDCHAR
STARTCHAR 0493
ENCODING 1171
SWIDTH 630 0
DWIDTH 7 0
BBX 5 6 1 0
BITMAP
78
40
F0
40
40
40
ENDCHAR
STARTCHAR 0494
ENCODING 1172
SWIDTH 630 0
DWIDTH 7 0
BBX 5 10 1 -2
BITMAP
F0
80
80
F0
88
88
88
88
08
38
ENDCHAR
STARTCHAR 0495
ENCODING 1173
SWIDTH 630 0
DWIDTH 7 0
BBX 5 8 1 -2
BITMAP
F0
80
B0
C8
88
88
08
30
ENDCHAR
STARTCHAR 0496
ENCODING 1174
SWIDTH 630 0
DWIDTH 7 0
BBX 7 9 0 -1
BITMAP
96
54
54
38
54
54
54
92
02
ENDCHAR
STARTCHAR 0497
ENCODING 1175
SWIDTH 630 0
DWIDTH 7 0
BBX 7 7 0 -1
BITMAP
D4
54
38
54
54
96
02
ENDCHAR
STARTCHAR 0498
ENCODING 1176
SWIDTH 630 0
DWIDTH 7 0
BBX 6 11 0 -3
BITMAP
78
04
04
38
04
04
C4
78
10
08
30
ENDCHAR
STARTCHAR 0499
ENCODING 1177
SWIDTH 630 0
DWIDTH 7 0
BBX 5 9 1 -3
BITMAP
F0
08
70
08
88
F0
20
10
60
ENDCHAR
STARTCHAR 049A
ENCODING 1178
SWIDTH 630 0
DWIDTH 7 0
BBX 6 9 1 -1
BITMAP
88
90
B0
E0
A0
90
88
8C
04
ENDCHAR
STARTCHAR 049B
ENCODING 1179
SWIDTH 630 0
DWIDTH 7 0
BBX 6 7 1 -1
BITMAP
88
90
E0
90
98
8C
04
ENDCHAR
STARTCHAR 049C
ENCODING 1180
SWIDTH 630 0
DWIDTH 7 0
BBX 6 8 1 0
BITMAP
88
C8
D0
E0
D0
D0
88
8C
ENDCHAR
STARTCHAR 049D
ENCODING 1181
SWIDTH 630 0
DWIDTH 7 0
BBX 5 6 1 0
BITMAP
88
D0
E0
D0
88
88
ENDCHAR
STARTCHAR 049E
ENCODING 1182
SWIDTH 630 0
DWIDTH 7 0
BBX 7 8 0 0
BITMAP
44
F8
48
70
48
48
44
46
ENDCHAR
STARTCHAR 049F
ENCODING 1183
SWIDTH 630 0
DWIDTH 7 0
BBX 6 8 0 0
BITMAP
40
F0
44
48
70
48
48
44
ENDCHAR
STARTCHAR 04A0
ENCODING 1184
SWIDTH 630 0
DWIDTH 7 0
BBX 7 8 0 0
BITMAP
E6
6C
68
70
68
68
64
66
ENDCHAR
STARTCHAR 04A1
ENCODING 1185
SWIDTH 630 0
DWIDTH 7 0
BBX 7 6 0 0
BITMAP
C4
48
30
48
44
46
ENDCHAR
STARTCHAR 04A2
ENCODING 1186
SWIDTH 630 0
DWIDTH 7 0
BBX 6 9 1 -1
BITMAP
88
88
88
F8
88
88
88
8C
04
ENDCHAR
STARTCHAR 04A3
ENCODING 1187
SWIDTH 630 0
DWIDTH 7 0
BBX 5 7 1 -1
BITMAP
88
88
F8
88
88
88
08
ENDCHAR
STARTCHAR 04A4
ENCODING 1188
SWIDTH 630 0
DWIDTH 7 0
BBX 6 8 1 0
BITMAP
9C
90
90
F0
90
90
90
90
ENDCHAR
STARTCHAR 04A5
ENCODING 1189
SWIDTH 630 0
DWIDTH 7 0
BBX 6 6 1 0
BITMAP
9C
90
F0
90
90
90
ENDCHAR
STARTCHAR 04A6
ENCODING 1190
SWIDTH 630 0
DWIDTH 7 0
BBX 7 10 0 -2
BITMAP
F0
90
90
9C
92
92
92
92
02
0C
ENDCHAR
STARTCHAR 04A7
ENCODING 1191
SWIDTH 630 0
DWIDTH 7 0
BBX 7 8 0 -2
BITMAP
F0
90
9C
92
92
92
02
0C
ENDCHAR
STARTCHAR 04A8
ENCODING 1192
SWIDTH 630 0
DWIDTH 7 0
BBX 7 9 0 -1
BITMAP
3C
40
40
8C
92
52
54
38
04
ENDCHAR
STARTCHAR 04A9
ENCODING 1193
SWIDTH 630 0
DWIDTH 7 0
BBX 5 7 1 -1
BITMAP
70
80
B8
A8
A8
70
08
ENDCHAR
STARTCHAR 04AA
ENCODING 1194
SWIDTH 630 0
DWIDTH 7 0
BBX 5 11 1 -3
BITMAP
78
80
80
80
80
80
80
78
10
10
30
ENDCHAR
STARTCHAR 04AB
ENCODING 1195
SWIDTH 630 0
DWIDTH 7 0
BBX 5 9 1 -3
BITMAP
78
80
80
80
80
78
10
10
30
ENDCHAR
STARTCHAR 04AC
ENCODING 1196
SWIDTH 630 0
DWIDTH 7 0
BBX 6 9 0 -1
BITMAP
FC
10
10
10
10
10
10
18
08
ENDCHAR
STARTCHAR 04AD
ENCODING 1197
SWIDTH 630 0
DWIDTH 7 0
BBX 5 7 1 -1
BITMAP
F8
20
20
20
20
30
10
ENDCHAR
STARTCHAR 04AE
ENCODING 1198
SWIDTH 630 0
DWIDTH 7 0
BBX 7 8 0 0
BITMAP
C6
44
28
28
10
10
10
10
ENDCHAR
STARTCHAR 04AF
ENCODING 1199
SWIDTH 630 0
DWIDTH 7 0
BBX 5 8 1 -2
BITMAP
88
88
50
50
60
20
20
20
ENDCHAR
STARTCHAR 04B0
ENCODING 1200
SWIDTH 630 0
DWIDTH 7 0
BBX 7 8 0 0
BITMAP
C6
44
28
28
78
10
10
10
ENDCHAR
STARTCHAR 04B1
ENCODING 1201
SWIDTH 630 0
DWIDTH 7 0
BBX 5 8 1 -2
BITMAP
88
88
50
50
50
70
20
20
ENDCHAR
STARTCHAR 04B2
ENCODING 1202
SWIDTH 630 0
DWIDTH 7 0
BBX 7 9 0 -1
BITMAP
44
68
28
10
28
28
44
C6
02
ENDCHAR
STARTCHAR 04B3
ENCODING 1203
SWIDTH 630 0
DWIDTH 7 0
BBX 5 7 1 -1
BITMAP
88
50
20
50
50
88
08
ENDCHAR
STARTCHAR 04B4
ENCODING 1204
SWIDTH 630 0
DWIDTH 7 0
BBX 6 10 0 -2
BITMAP
F4
44
44
44
44
44
44
7C
04
04
ENDCHAR
STARTCHAR 04B5
ENCODING 1205
SWIDTH 630 0
DWIDTH 7 0
BBX 6 8 0 -2
BITMAP
F4
44
44
44
44
7C
04
04
ENDCHAR
STARTCHAR 04B6
ENCODING 1206
SWIDTH 630 0
DWIDTH 7 0
BBX 6 9 1 -1
BITMAP
88
88
88
88
88
78
08
0C
04
ENDCHAR
STARTCHAR 04B7
ENCODING 1207
SWIDTH 630 0
DWIDTH 7 0
BBX 5 7 1 -1
BITMAP
90
90
90
F0
10
18
08
ENDCHAR
STARTCHAR 04B8
ENCODING 1208
SWIDTH 630 0
DWIDTH 7 0
BBX 5 8 1 0
BITMAP
88
88
A8
A8
A8
78
28
08
ENDCHAR
STARTCHAR 04B9
ENCODING 1209
SWIDTH 630 0
DWIDTH 7 0
BBX 5 6 1 0
BITMAP
88
88
A8
F8
28
08
ENDCHAR
STARTCHAR 04BA
ENCODING 1210
SWIDTH 630 0
DWIDTH 7 0
BBX 5 8 1 0
BITMAP
80
80
80
F0
88
88
88
88
ENDCHAR
STARTCHAR 04BB
ENCODING 1211
SWIDTH 630 0
DWIDTH 7 0
BBX 5 8 1 0
BITMAP
80
80
80
B0
C8
88
88
88
ENDCHAR
STARTCHAR 04BC
ENCODING 1212
SWIDTH 630 0
DWIDTH 7 0
BBX 6 8 0 0
BITMAP
18
24
A4
A4
FC
20
20
1C
ENDCHAR
STARTCHAR 04BD
ENCODING 1213
SWIDTH 630 0
DWIDTH 7 0
BBX 6 6 0 0
BITMAP
3C
A4
FC
20
20
1C
ENDCHAR
STARTCHAR 04BE
ENCODING 1214
SWIDTH 630 0
DWIDTH 7 0
BBX 6 11 0 -3
BITMAP
18
24
A4
A4
FC
20
20
1C
08
10
18
ENDCHAR
STARTCHAR 04BF
ENCODING 1215
SWIDTH 630 0
DWIDTH 7 0
BBX 6 9 0 -3
BITMAP
3C
A4
FC
20
20
1C
08
10
18
ENDCHAR
STARTCHAR 04C0
ENCODING 1216
SWIDTH 630 0
DWIDTH 7 0
BBX 5 8 1 0
BITMAP
F8
20
20
20
20
20
20
F8
ENDCHAR
STARTCHAR 04C1
ENCODING 1217
SWIDTH 630 0
DWIDTH 7 0
BBX 7 10 0 0
BITMAP
28
30
96
54
54
38
54
54
54
92
ENDCHAR
STARTCHAR 04C2
ENCODING 1218
SWIDTH 630 0
DWIDTH 7 0
BBX 7 9 0 0
BITMAP
28
30
00
D6
54
38
54
54
96
ENDCHAR
STARTCHAR 04C3
ENCODING 1219
SWIDTH 630 0
DWIDTH 7 0
BBX 5 10 1 -2
BITMAP
88
90
A0
F0
88
88
88
88
08
38
ENDCHAR
STARTCHAR 04C4
ENCODING 1220
SWIDTH 630 0
DWIDTH 7 0
BBX 5 8 1 -2
BITMAP
98
A0
F0
88
88
88
08
30
ENDCHAR
STARTCHAR 04C5
ENCODING 1221
SWIDTH 630 0
DWIDTH 7 0
BBX 7 9 0 -1
BITMAP
3C
24
24
24
44
44
44
86
04
ENDCHAR
STARTCHAR 04C6
ENCODING 1222
SWIDTH 630 0
DWIDTH 7 0
BBX 6 7 0 -1
BITMAP
38
28
48
48
48
CC
04
ENDCHAR
STARTCHAR 04C7
ENCODING 1223
SWIDTH 630 0
DWIDTH 7 0
BBX 5 10 1 -2
BITMAP
88
88
88
F8
88
88
88
88
08
38
ENDCHAR
STARTCHAR 04C8
ENCODING 1224
SWIDTH 630 0
DWIDTH 7 0
BBX 5 8 1 -2
BITMAP
88
88
F8
88
88
88
08
30
ENDCHAR
STARTCHAR 04C9
ENCODING 1225
SWIDTH 630 0
DWIDTH 7 0
BBX 6 9 1 -1
BITMAP
88
88
88
F8
88
88
88
8C
08
ENDCHAR
STARTCHAR 04CA
ENCODING 1226
SWIDTH 630 0
DWIDTH 7 0
BBX 5 7 1 -1
BITMAP
88
88
F8
88
88
88
08
ENDCHAR
STARTCHAR 04CB
ENCODING 1227
SWIDTH 630 0
DWIDTH 7 0
BBX 5 9 1 -1
BITMAP
88
88
88
88
88
78
08
18
10
ENDCHAR
STARTCHAR 04CC
ENCODING 1228
SWIDTH 630 0
DWIDTH 7 0
BBX 5 7 1 -1
BITMAP
88
88
98
E8
08
18
10
ENDCHAR
STARTCHAR 04CD
ENCODING 1229
SWIDTH 630 0
DWIDTH 7 0
BBX 7 9 0 -1
BITMAP
4C
4C
AC
B4
B4
B4
94
86
04
ENDCHAR
STARTCHAR 04CE
ENCODING 1230
SWIDTH 630 0
DWIDTH 7 0
BBX 6 7 1 -1
BITMAP
98
D8
D8
E8
A8
8C
08
ENDCHAR
STARTCHAR 04CF
ENCODING 1231
SWIDTH 630 0
DWIDTH 7 0
BBX 5 8 1 0
BITMAP
C0
20
20
20
20
20
20
38
ENDCHAR
STARTCHAR 04D0
ENCODING 1232
SWIDTH 630 0
DWIDTH 7 0
BBX 7 10 0 0
BITMAP
28
30
10
28
28
28
48
7C
44
86
ENDCHAR
STARTCHAR 04D1
ENCODING 1233
SWIDTH 630 0
DWIDTH 7 0
BBX 5 9 1 0
BITMAP
90
60
00
F0
10
70
90
90
E8
ENDCHAR
STARTCHAR 04D2
ENCODING 1234
SWIDTH 630 0
DWIDTH 7 0
BBX 7 9 0 0
BITMAP
28
10
28
28
28
48
7C
44
86
ENDCHAR
STARTCHAR 04D3
ENCODING 1235
SWIDTH 630 0
DWIDTH 7 0
BBX 5 8 1 0
BITMAP
50
00
F0
10
70
90
90
E8
ENDCHAR
STARTCHAR 04D4
ENCODING 1236
SWIDTH 630 0
DWIDTH 7 0
BBX 7 8 0 0
BITMAP
3C
30
50
50
5C
78
88
8E
ENDCHAR
STARTCHAR 04D5
ENCODING 1237
SWIDTH 630 0
DWIDTH 7 0
BBX 7 6 0 0
BITMAP
EC
12
7E
90
90
EE
ENDCHAR
STARTCHAR 04D6
ENCODING 1238
SWIDTH 630 0
DWIDTH 7 0
BBX 5 10 1 0
BITMAP
50
30
F8
80
80
80
F0
80
80
F8
ENDCHAR
STARTCHAR 04D7
ENCODING 1239
SWIDTH 630 0
DWIDTH 7 0
BBX 5 9 1 0
BITMAP
50
70
00
70
88
F8
80
80
78
ENDCHAR
STARTCHAR 04D8
ENCODING 1240
SWIDTH 630 0
DWIDTH 7 0
BBX 6 8 0 0
BITMAP
38
44
04
04
FC
44
44
38
ENDCHAR
STARTCHAR 04D9
ENCODING 1241
SWIDTH 630 0
DWIDTH 7 0
BBX 5 6 1 0
BITMAP
F0
08
F8
88
88
70
ENDCHAR
STARTCHAR 04DA
ENCODING 1242
SWIDTH 630 0
DWIDTH 7 0
BBX 6 9 0 0
BITMAP
28
38
44
04
04
FC
44
44
38
ENDCHAR
STARTCHAR 04DB
ENCODING 1243
SWIDTH 630 0
DWIDTH 7 0
BBX 5 8 1 0
BITMAP
50
00
F0
08
F8
88
88
70
ENDCHAR
STARTCHAR 04DC
ENCODING 1244
SWIDTH 630 0
DWIDTH 7 0
BBX 7 9 0 0
BITMAP
28
96
54
54
38
54
54
54
92
ENDCHAR
STARTCHAR 04DD
ENCODING 1245
SWIDTH 630 0
DWIDTH 7 0
BBX 7 8 0 0
BITMAP
28
00
D6
54
38
54
54
96
ENDCHAR
STARTCHAR 04DE
ENCODING 1246
SWIDTH 630 0
DWIDTH 7 0
BBX 6 9 0 0
BITMAP
28
78
04
04
38
04
04
C4
78
ENDCHAR
STARTCHAR 04DF
ENCODING 1247
SWIDTH 630 0
DWIDTH 7 0
BBX 5 8 1 0
BITMAP
50
00
F0
08
70
08
88
F0
ENDCHAR
STARTCHAR 04E0
ENCODING 1248
SWIDTH 630 0
DWIDTH 7 0
BBX 5 8 1 0
BITMAP
F8
10
20
70
08
08
08
F0
ENDCHAR
STARTCHAR 04E1
ENCODING 1249
SWIDTH 630 0
DWIDTH 7 0
BBX 5 8 1 -2
BITMAP
F8
10
20
70
08
08
88
F0
ENDCHAR
STARTCHAR 04E2
ENCODING 1250
SWIDTH 630 0
DWIDTH 7 0
BBX 5 9 1 0
BITMAP
70
98
98
98
A8
A8
C8
C8
88
ENDCHAR
STARTCHAR 04E3
ENCODING 1251
SWIDTH 630 0
DWIDTH 7 0
BBX 5 8 1 0
BITMAP
70
00
98
98
A8
A8
C8
C8
ENDCHAR
STARTCHAR 04E4
ENCODING 1252
SWIDTH 630 0
DWIDTH 7 0
BBX 5 9 1 0
BITMAP
50
98
98
98
A8
A8
C8
C8
88
ENDCHAR
STARTCHAR 04E5
ENCODING 1253
SWIDTH 630 0
DWIDTH 7 0
BBX 5 8 1 0
BITMAP
50
00
98
98
A8
A8
C8
C8
ENDCHAR
STARTCHAR 04E6
ENCODING 1254
SWIDTH 630 0
DWIDTH 7 0
BBX 5 9 1 0
BITMAP
50
70
88
88
88
88
88
88
70
ENDCHAR
STARTCHAR 04E7
ENCODING 1255
SWIDTH 630 0
DWIDTH 7 0
BBX 5 8 1 0
BITMAP
50
00
70
88
88
88
88
70
ENDCHAR
STARTCHAR 04E8
ENCODING 1256
SWIDTH 630 0
DWIDTH 7 0
BBX 5 8 1 0
BITMAP
70
88
88
F8
88
88
88
70
ENDCHAR
STARTCHAR 04E9
ENCODING 1257
SWIDTH 630 0
DWIDTH 7 0
BBX 5 6 1 0
BITMAP
70
88
F8
88
88
70
ENDCHAR
STARTCHAR 04EA
ENCODING 1258
SWIDTH 630 0
DWIDTH 7 0
BBX 5 9 1 0
BITMAP
50
70
88
88
F8
88
88
88
70
ENDCHAR
STARTCHAR 04EB
ENCODING 1259
SWIDTH 630 0
DWIDTH 7 0
BBX 5 8 1 0
BITMAP
50
00
70
88
F8
88
88
70
ENDCHAR
STARTCHAR 04EC
ENCODING 1260
SWIDTH 630 0
DWIDTH 7 0
BBX 6 9 0 0
BITMAP
68
78
04
04
3C
04
04
4C
F8
ENDCHAR
STARTCHAR 04ED
ENCODING 1261
SWIDTH 630 0
DWIDTH 7 0
BBX 5 8 1 0
BITMAP
50
00
F0
08
78
08
18
F0
ENDCHAR
STARTCHAR 04EE
ENCODING 1262
SWIDTH 630 0
DWIDTH 7 0
BBX 7 9 0 0
BITMAP
38
C6
44
44
28
28
10
10
60
ENDCHAR
STARTCHAR 04EF
ENCODING 1263
SWIDTH 630 0
DWIDTH 7 0
BBX 5 10 1 -2
BITMAP
70
00
88
88
50
50
50
20
20
C0
ENDCHAR
STARTCHAR 04F0
ENCODING 1264
SWIDTH 630 0
DWIDTH 7 0
BBX 7 9 0 0
BITMAP
28
C6
44
44
28
28
10
10
60
ENDCHAR
STARTCHAR 04F1
ENCODING 1265
SWIDTH 630 0
DWIDTH 7 0
BBX 5 10 1 -2
BITMAP
50
00
88
88
50
50
50
20
20
C0
ENDCHAR
STARTCHAR 04F2
ENCODING 1266
SWIDTH 630 0
DWIDTH 7 0
BBX 7 11 0 0
BITMAP
14
14
28
C6
44
44
28
28
10
10
60
ENDCHAR
STARTCHAR 04F3
ENCODING 1267
SWIDTH 630 0
DWIDTH 7 0
BBX 5 12 1 -2
BITMAP
50
78
50
00
88
88
50
50
50
20
20
C0
ENDCHAR
STARTCHAR 04F4
ENCODING 1268
SWIDTH 630 0
DWIDTH 7 0
BBX 5 9 1 0
BITMAP
D0
88
88
88
88
88
78
08
08
ENDCHAR
STARTCHAR 04F5
ENCODING 1269
SWIDTH 630 0
DWIDTH 7 0
BBX 5 8 1 0
BITMAP
D0
00
88
88
98
E8
08
08
ENDCHAR
STARTCHAR 04F6
ENCODING 1270
SWIDTH 630 0
DWIDTH 7 0
BBX 4 9 2 -1
BITMAP
F0
80
80
80
80
80
80
80
80
ENDCHAR
STARTCHAR 04F7
ENCODING 1271
SWIDTH 630 0
DWIDTH 7 0
BBX 4 7 2 -1
BITMAP
F0
80
80
80
80
C0
40
ENDCHAR
STARTCHAR 04F8
ENCODING 1272
SWIDTH 630 0
DWIDTH 7 0
BBX 6 9 0 0
BITMAP
28
84
84
84
F4
8C
8C
8C
F4
ENDCHAR
STARTCHAR 04F9
ENCODING 1273
SWIDTH 630 0
DWIDTH 7 0
BBX 5 8 1 0
BITMAP
50
00
88
88
E8
B8
98
E8
ENDCHAR
STARTCHAR 04FA
ENCODING 1274
SWIDTH 630 0
DWIDTH 7 0
BBX 6 10 1 -2
BITMAP
7C
40
40
F0
40
40
40
60
20
C0
ENDCHAR
STARTCHAR 04FB
ENCODING 1275
SWIDTH 630 0
DWIDTH 7 0
BBX 5 8 1 -2
BITMAP
78
40
F0
40
40
60
20
C0
ENDCHAR
STARTCHAR 04FC
ENCODING 1276
SWIDTH 630 0
DWIDTH 7 0
BBX 7 10 0 -2
BITMAP
C4
48
28
30
30
28
48
C6
02
0C
ENDCHAR
STARTCHAR 04FD
ENCODING 1277
SWIDTH 630 0
DWIDTH 7 0
BBX 5 8 1 -2
BITMAP
98
50
60
60
50
88
08
38
ENDCHAR
STARTCHAR 04FE
ENCODING 1278
SWIDTH 630 0
DWIDTH 7 0
BBX 6 8 0 0
BITMAP
44
68
28
FC
30
28
44
C4
ENDCHAR
STARTCHAR 04FF
ENCODING 1279
SWIDTH 630 0
DWIDTH 7 0
BBX 5 6 1 0
BITMAP
88
50
F8
50
50
88
ENDCHAR
STARTCHAR 0500
ENCODING 1280
SWIDTH 630 0
DWIDTH 7 0
BBX 5 8 1 0
BITMAP
08
08
08
78
88
88
88
78
ENDCHAR
STARTCHAR 0501
ENCODING 1281
SWIDTH 630 0
DWIDTH 7 0
BBX 5 8 1 0
BITMAP
08
08
78
88
88
88
88
78
ENDCHAR
STARTCHAR 0502
ENCODING 1282
SWIDTH 630 0
DWIDTH 7 0
BBX 7 8 0 0
BITMAP
10
10
10
70
92
92
92
6C
ENDCHAR
STARTCHAR 0503
ENCODING 1283
SWIDTH 630 0
DWIDTH 7 0
BBX 7 8 0 0
BITMAP
10
10
70
90
92
92
92
6C
ENDCHAR
STARTCHAR 0504
ENCODING 1284
SWIDTH 630 0
DWIDTH 7 0
BBX 7 8 0 0
BITMAP
E0
10
10
10
62
22
24
1C
ENDCHAR
STARTCHAR 0505
ENCODING 1285
SWIDTH 630 0
DWIDTH 7 0
BBX 7 6 0 0
BITMAP
E0
10
12
62
24
1C
ENDCHAR
STARTCHAR 0506
ENCODING 1286
SWIDTH 630 0
DWIDTH 7 0
BBX 5 9 1 -1
BITMAP
F0
08
08
10
E0
20
10
08
08
ENDCHAR
STARTCHAR 0507
ENCODING 1287
SWIDTH 630 0
DWIDTH 7 0
BBX 5 7 1 -1
BITMAP
F0
10
10
E0
10
18
08
ENDCHAR
STARTCHAR 0508
ENCODING 1288
SWIDTH 630 0
DWIDTH 7 0
BBX 7 8 0 0
BITMAP
70
50
50
50
52
52
52
8C
ENDCHAR
STARTCHAR 0509
ENCODING 1289
SWIDTH 630 0
DWIDTH 7 0
BBX 7 6 0 0
BITMAP
70
50
52
52
52
8C
ENDCHAR
STARTCHAR 050A
ENCODING 1290
SWIDTH 630 0
DWIDTH 7 0
BBX 6 8 1 0
BITMAP
A0
A0
A0
E4
A4
A4
A4
98
ENDCHAR
STARTCHAR 050B
ENCODING 1291
SWIDTH 630 0
DWIDTH 7 0
BBX 6 6 1 0
BITMAP
A0
A4
E4
A4
A4
98
ENDCHAR
STARTCHAR 050C
ENCODING 1292
SWIDTH 630 0
DWIDTH 7 0
BBX 5 8 1 0
BITMAP
78
88
80
80
B8
88
88
78
ENDCHAR
STARTCHAR 050D
ENCODING 1293
SWIDTH 630 0
DWIDTH 7 0
BBX 5 6 1 0
BITMAP
78
80
B8
88
88
70
ENDCHAR
STARTCHAR 050E
ENCODING 1294
SWIDTH 630 0
DWIDTH 7 0
BBX 6 8 0 0
BITMAP
FC
20
20
24
24
24
24
18
ENDCHAR
STARTCHAR 050F
ENCODING 1295
SWIDTH 630 0
DWIDTH 7 0
BBX 6 6 0 0
BITMAP
F8
20
24
24
24
18
ENDCHAR
STARTCHAR 0510
ENCODING 1296
SWIDTH 630 0
DWIDTH 7 0
BBX 5 8 1 0
BITMAP
78
80
80
70
80
80
88
78
ENDCHAR
STARTCHAR 0511
ENCODING 1297
SWIDTH 630 0
DWIDTH 7 0
BBX 5 6 1 0
BITMAP
78
80
70
80
88
78
ENDCHAR
STARTCHAR 0512
ENCODING 1298
SWIDTH 630 0
DWIDTH 7 0
BBX 6 10 0 -2
BITMAP
3C
24
24
44
44
44
44
84
04
1C
ENDCHAR
STARTCHAR 0513
ENCODING 1299
SWIDTH 630 0
DWIDTH 7 0
BBX 6 8 0 -2
BITMAP
3C
24
44
44
44
C4
04
18
ENDCHAR
STARTCHAR 0514
ENCODING 1300
SWIDTH 630 0
DWIDTH 7 0
BBX 7 8 0 0
BITMAP
72
54
54
48
48
54
54
A2
ENDCHAR
STARTCHAR 0515
ENCODING 1301
SWIDTH 630 0
DWIDTH 7 0
BBX 7 6 0 0
BITMAP
76
54
48
4C
54
B2
ENDCHAR
STARTCHAR 0516
ENCODING 1302
SWIDTH 630 0
DWIDTH 7 0
BBX 6 8 1 0
BITMAP
EC
A8
90
B0
D0
98
88
8C
ENDCHAR
STARTCHAR 0517
ENCODING 1303
SWIDTH 630 0
DWIDTH 7 0
BBX 7 8 0 -2
BITMAP
B6
D4
C8
CC
D4
F2
C0
C0
ENDCHAR
STARTCHAR 0518
ENCODING 1304
SWIDTH 630 0
DWIDTH 7 0
BBX 7 8 0 0
BITMAP
7E
90
90
D0
7C
50
50
9E
ENDCHAR
STARTCHAR 0519
ENCODING 1305
SWIDTH 630 0
DWIDTH 7 0
BBX 7 6 0 0
BITMAP
7C
92
9E
70
50
8E
ENDCHAR
STARTCHAR 051A
ENCODING 1306
SWIDTH 630 0
DWIDTH 7 0
BBX 6 10 1 -2
BITMAP
70
88
88
88
88
88
88
70
08
04
ENDCHAR
STARTCHAR 051B
ENCODING 1307
SWIDTH 630 0
DWIDTH 7 0
BBX 5 8 1 -2
BITMAP
78
88
88
88
88
78
08
08
ENDCHAR
STARTCHAR 051C
ENCODING 1308
SWIDTH 630 0
DWIDTH 7 0
BBX 7 8 0 0
BITMAP
82
92
94
AC
6C
6C
6C
6C
ENDCHAR
STARTCHAR 051D
ENCODING 1309
SWIDTH 630 0
DWIDTH 7 0
BBX 7 6 0 0
BITMAP
82
94
74
6C
6C
6C
ENDCHAR
STARTCHAR 051E
ENCODING 1310
SWIDTH 630 0
DWIDTH 7 0
BBX 6 8 1 0
BITMAP
A8
B0
B8
E0
A0
90
88
8C
ENDCHAR
STARTCHAR 051F
ENCODING 1311
SWIDTH 630 0
DWIDTH 7 0
BBX 5 6 1 0
BITMAP
A8
98
E0
90
90
88
ENDCHAR
STARTCHAR 0520
ENCODING 1312
SWIDTH 630 0
DWIDTH 7 0
BBX 7 10 0 -2
BITMAP
70
50
50
5C
52
52
92
92
02
0C
ENDCHAR
STARTCHAR 0521
ENCODING 1313
SWIDTH 630 0
DWIDTH 7 0
BBX 7 8 0 -2
BITMAP
70
50
5C
52
92
92
02
0C
ENDCHAR
STARTCHAR 0522
ENCODING 1314
SWIDTH 630 0
DWIDTH 7 0
BBX 7 10 0 -2
BITMAP
90
90
90
FC
92
92
92
92
02
0C
ENDCHAR
STARTCHAR 0523
ENCODING 1315
SWIDTH 630 0
DWIDTH 7 0
BBX 7 8 0 -2
BITMAP
90
90
FC
92
92
92
02
0C
ENDCHAR
STARTCHAR 0524
ENCODING 1316
SWIDTH 630 0
DWIDTH 7 0
BBX 6 9 1 -1
BITMAP
F8
88
88
88
88
88
88
8C
04
ENDCHAR
STARTCHAR 0525
ENCODING 1317
SWIDTH 630 0
DWIDTH 7 0
BBX 6 7 1 -1
BITMAP
F8
88
88
88
88
8C
04
ENDCHAR
STARTCHAR 0526
ENCODING 1318
SWIDTH 630 0
DWIDTH 7 0
BBX 6 9 1 -1
BITMAP
80
80
80
F0
88
88
88
8C
04
ENDCHAR
STARTCHAR 0527
ENCODING 1319
SWIDTH 630 0
DWIDTH 7 0
BBX 6 9 1 -1
BITMAP
80
80
80
F0
88
88
88
8C
04
ENDCHAR
STARTCHAR 0528
ENCODING 1320
SWIDTH 630 0
DWIDTH 7 0
BBX 7 10 -1 -2
BITMAP
22
22
22
3E
22
22
22
22
20
E0
ENDCHAR
STARTCHAR 0529
ENCODING 1321
SWIDTH 630 0
DWIDTH 7 0
BBX 7 8 -1 -2
BITMAP
22
22
3E
22
22
22
20
E0
ENDCHAR
STARTCHAR 052A
ENCODING 1322
SWIDTH 630 0
DWIDTH 7 0
BBX 7 9 0 -1
BITMAP
6A
5C
5C
5C
5C
5C
9A
FA
90
ENDCHAR
STARTCHAR 052B
ENCODING 1323
SWIDTH 630 0
DWIDTH 7 0
BBX 7 7 0 -1
BITMAP
6A
6C
7C
6C
AC
FA
90
ENDCHAR
STARTCHAR 052C
ENCODING 1324
SWIDTH 630 0
DWIDTH 7 0
BBX 5 10 1 -2
BITMAP
B8
A8
E8
78
48
48
C8
F8
88
88
ENDCHAR
STARTCHAR 052D
ENCODING 1325
SWIDTH 630 0
DWIDTH 7 0
BBX 5 8 1 -2
BITMAP
F8
C8
F8
48
48
F8
88
88
ENDCHAR
STARTCHAR 052E
ENCODING 1326
SWIDTH 630 0
DWIDTH 7 0
BBX 6 9 0 -1
BITMAP
3C
24
44
44
44
44
44
84
04
ENDCHAR
STARTCHAR 052F
ENCODING 1327
SWIDTH 630 0
DWIDTH 7 0
BBX 6 7 0 -1
BITMAP
3C
24
44
44
44
C4
04
ENDCHAR
STARTCHAR 1405
ENCODING 5125
SWIDTH 630 0
DWIDTH 7 0
BBX 7 7 0 0
BITMAP
C0
B0
8C
8E
B0
C0
80
ENDCHAR
STARTCHAR 140A
ENCODING 5130
SWIDTH 630 0
DWIDTH 7 0
BBX 7 7 0 0
BITMAP
06
1A
62
E2
12
0E
02
ENDCHAR
STARTCHAR 1E80
ENCODING 7808
SWIDTH 630 0
DWIDTH 7 0
BBX 7 10 0 0
BITMAP
30
08
82
92
94
AC
6C
6C
6C
6C
ENDCHAR
STARTCHAR 1E81
ENCODING 7809
SWIDTH 630 0
DWIDTH 7 0
BBX 7 9 0 0
BITMAP
20
18
00
82
94
74
6C
6C
6C
ENDCHAR
STARTCHAR 1E82
ENCODING 7810
SWIDTH 630 0
DWIDTH 7 0
BBX 7 10 0 0
BITMAP
18
20
82
92
94
AC
6C
6C
6C
6C
ENDCHAR
STARTCHAR 1E83
ENCODING 7811
SWIDTH 630 0
DWIDTH 7 0
BBX 7 9 0 0
BITMAP
18
20
00
82
94
74
6C
6C
6C
ENDCHAR
STARTCHAR 1E84
ENCODING 7812
SWIDTH 630 0
DWIDTH 7 0
BBX 7 9 0 0
BITMAP
28
82
92
94
AC
6C
6C
6C
6C
ENDCHAR
STARTCHAR 1E85
ENCODING 7813
SWIDTH 630 0
DWIDTH 7 0
BBX 7 8 0 0
BITMAP
28
00
82
94
74
6C
6C
6C
ENDCHAR
STARTCHAR 1E9E
ENCODING 7838
SWIDTH 630 0
DWIDTH 7 0
BBX 6 8 1 0
BITMAP
70
88
90
B0
88
84
8C
B8
ENDCHAR
STARTCHAR 1EF2
ENCODING 7922
SWIDTH 630 0
DWIDTH 7 0
BBX 7 10 0 0
BITMAP
30
08
C6
44
28
28
10
10
10
10
ENDCHAR
STARTCHAR 1EF3
ENCODING 7923
SWIDTH 630 0
DWIDTH 7 0
BBX 5 11 1 -2
BITMAP
40
30
00
88
88
50
50
50
20
20
C0
ENDCHAR
STARTCHAR 1F00
ENCODING 7936
SWIDTH 630 0
DWIDTH 7 0
BBX 5 9 1 0
BITMAP
20
20
00
68
98
98
90
98
E8
ENDCHAR
STARTCHAR 1F01
ENCODING 7937
SWIDTH 630 0
DWIDTH 7 0
BBX 5 9 1 0
BITMAP
40
40
00
68
98
98
90
98
E8
ENDCHAR
STARTCHAR 1F02
ENCODING 7938
SWIDTH 630 0
DWIDTH 7 0
BBX 5 9 1 0
BITMAP
60
90
00
68
98
98
90
98
E8
ENDCHAR
STARTCHAR 1F03
ENCODING 7939
SWIDTH 630 0
DWIDTH 7 0
BBX 5 9 1 0
BITMAP
E0
60
00
68
98
98
90
98
E8
ENDCHAR
STARTCHAR 1F04
ENCODING 7940
SWIDTH 630 0
DWIDTH 7 0
BBX 5 9 1 0
BITMAP
50
50
00
68
98
98
90
98
E8
ENDCHAR
STARTCHAR 1F05
ENCODING 7941
SWIDTH 630 0
DWIDTH 7 0
BBX 5 9 1 0
BITMAP
50
60
00
68
98
98
90
98
E8
ENDCHAR
STARTCHAR 1F06
ENCODING 7942
SWIDTH 630 0
DWIDTH 7 0
BBX 5 9 1 0
BITMAP
F0
20
20
68
98
98
90
98
E8
ENDCHAR
STARTCHAR 1F07
ENCODING 7943
SWIDTH 630 0
DWIDTH 7 0
BBX 5 9 1 0
BITMAP
F0
20
20
68
98
98
90
98
E8
ENDCHAR
STARTCHAR 1F08
ENCODING 7944
SWIDTH 630 0
DWIDTH 7 0
BBX 7 8 0 0
BITMAP
50
68
28
28
48
7C
44
86
ENDCHAR
STARTCHAR 1F09
ENCODING 7945
SWIDTH 630 0
DWIDTH 7 0
BBX 7 8 0 0
BITMAP
D0
68
28
28
48
7C
44
86
ENDCHAR
STARTCHAR 1F0A
ENCODING 7946
SWIDTH 630 0
DWIDTH 7 0
BBX 8 8 -1 0
BITMAP
C8
B4
14
14
24
3E
22
43
ENDCHAR
STARTCHAR 1F0B
ENCODING 7947
SWIDTH 630 0
DWIDTH 7 0
BBX 8 8 -1 0
BITMAP
C8
B4
14
14
24
3E
22
43
ENDCHAR
STARTCHAR 1F0C
ENCODING 7948
SWIDTH 630 0
DWIDTH 7 0
BBX 8 8 -1 0
BITMAP
A8
B4
14
14
24
3E
22
43
ENDCHAR
STARTCHAR 1F0D
ENCODING 7949
SWIDTH 630 0
DWIDTH 7 0
BBX 8 8 -1 0
BITMAP
A8
B4
14
14
24
3E
22
43
ENDCHAR
STARTCHAR 1F0E
ENCODING 7950
SWIDTH 630 0
DWIDTH 7 0
BBX 8 8 -1 0
BITMAP
08
F4
54
54
24
3E
22
43
ENDCHAR
STARTCHAR 1F0F
ENCODING 7951
SWIDTH 630 0
DWIDTH 7 0
BBX 8 8 -1 0
BITMAP
08
F4
54
54
24
3E
22
43
ENDCHAR
STARTCHAR 1F10
ENCODING 7952
SWIDTH 630 0
DWIDTH 7 0
BBX 5 9 1 0
BITMAP
30
20
00
78
80
70
80
88
78
ENDCHAR
STARTCHAR 1F11
ENCODING 7953
SWIDTH 630 0
DWIDTH 7 0
BBX 5 9 1 0
BITMAP
20
20
00
78
80
70
80
88
78
ENDCHAR
STARTCHAR 1F12
ENCODING 7954
SWIDTH 630 0
DWIDTH 7 0
BBX 5 9 1 0
BITMAP
50
50
00
78
80
70
80
88
78
ENDCHAR
STARTCHAR 1F13
ENCODING 7955
SWIDTH 630 0
DWIDTH 7 0
BBX 5 9 1 0
BITMAP
60
50
00
78
80
70
80
88
78
ENDCHAR
STARTCHAR 1F14
ENCODING 7956
SWIDTH 630 0
DWIDTH 7 0
BBX 5 9 1 0
BITMAP
30
50
00
78
80
70
80
88
78
ENDCHAR
STARTCHAR 1F15
ENCODING 7957
SWIDTH 630 0
DWIDTH 7 0
BBX 5 9 1 0
BITMAP
50
30
00
78
80
70
80
88
78
ENDCHAR
STARTCHAR 1F18
ENCODING 7960
SWIDTH 630 0
DWIDTH 7 0
BBX 6 8 0 0
BITMAP
FC
C0
40
40
78
40
40
7C
ENDCHAR
STARTCHAR 1F19
ENCODING 7961
SWIDTH 630 0
DWIDTH 7 0
BBX 6 8 0 0
BITMAP
FC
C0
40
40
78
40
40
7C
ENDCHAR
STARTCHAR 1F1A
ENCODING 7962
SWIDTH 630 0
DWIDTH 7 0
BBX 8 8 -2 0
BITMAP
BF
B0
10
10
1E
10
10
1F
ENDCHAR
STARTCHAR 1F1B
ENCODING 7963
SWIDTH 630 0
DWIDTH 7 0
BBX 8 8 -2 0
BITMAP
BF
B0
10
10
1E
10
10
1F
ENDCHAR
STARTCHAR 1F1C
ENCODING 7964
SWIDTH 630 0
DWIDTH 7 0
BBX 8 8 -2 0
BITMAP
BF
B0
10
10
1E
10
10
1F
ENDCHAR
STARTCHAR 1F1D
ENCODING 7965
SWIDTH 630 0
DWIDTH 7 0
BBX 8 8 -2 0
BITMAP
BF
B0
10
10
1E
10
10
1F
ENDCHAR
STARTCHAR 1F20
ENCODING 7968
SWIDTH 630 0
DWIDTH 7 0
BBX 5 11 1 -2
BITMAP
20
20
00
F0
88
88
88
88
88
08
08
ENDCHAR
STARTCHAR 1F21
ENCODING 7969
SWIDTH 630 0
DWIDTH 7 0
BBX 5 11 1 -2
BITMAP
60
20
00
F0
88
88
88
88
88
08
08
ENDCHAR
STARTCHAR 1F22
ENCODING 7970
SWIDTH 630 0
DWIDTH 7 0
BBX 5 11 1 -2
BITMAP
70
50
00
F0
88
88
88
88
88
08
08
ENDCHAR
STARTCHAR 1F23
ENCODING 7971
SWIDTH 630 0
DWIDTH 7 0
BBX 5 11 1 -2
BITMAP
60
50
00
F0
88
88
88
88
88
08
08
ENDCHAR
STARTCHAR 1F24
ENCODING 7972
SWIDTH 630 0
DWIDTH 7 0
BBX 5 11 1 -2
BITMAP
70
50
00
F0
88
88
88
88
88
08
08
ENDCHAR
STARTCHAR 1F25
ENCODING 7973
SWIDTH 630 0
DWIDTH 7 0
BBX 5 11 1 -2
BITMAP
50
50
00
F0
88
88
88
88
88
08
08
ENDCHAR
STARTCHAR 1F26
ENCODING 7974
SWIDTH 630 0
DWIDTH 7 0
BBX 5 11 1 -2
BITMAP
70
20
20
F0
88
88
88
88
88
08
08
ENDCHAR
STARTCHAR 1F27
ENCODING 7975
SWIDTH 630 0
DWIDTH 7 0
BBX 5 11 1 -2
BITMAP
70
20
20
F0
88
88
88
88
88
08
08
ENDCHAR
STARTCHAR 1F28
ENCODING 7976
SWIDTH 630 0
DWIDTH 7 0
BBX 7 8 -1 0
BITMAP
E2
A2
22
3E
22
22
22
22
ENDCHAR
STARTCHAR 1F29
ENCODING 7977
SWIDTH 630 0
DWIDTH 7 0
BBX 7 8 -1 0
BITMAP
A2
A2
22
3E
22
22
22
22
ENDCHAR
STARTCHAR 1F2A
ENCODING 7978
SWIDTH 630 0
DWIDTH 7 0
BBX 9 8 -3 0
BITMAP
E880
A880
0880
0F80
0880
0880
0880
0880
ENDCHAR
STARTCHAR 1F2B
ENCODING 7979
SWIDTH 630 0
DWIDTH 7 0
BBX 9 8 -3 0
BITMAP
E880
6880
0880
0F80
0880
0880
0880
0880
ENDCHAR
STARTCHAR 1F2C
ENCODING 7980
SWIDTH 630 0
DWIDTH 7 0
BBX 8 8 -2 0
BITMAP
F1
D1
11
1F
11
11
11
11
ENDCHAR
STARTCHAR 1F2D
ENCODING 7981
SWIDTH 630 0
DWIDTH 7 0
BBX 8 8 -2 0
BITMAP
B1
D1
11
1F
11
11
11
11
ENDCHAR
STARTCHAR 1F2E
ENCODING 7982
SWIDTH 630 0
DWIDTH 7 0
BBX 9 8 -3 0
BITMAP
0880
F880
6880
4F80
0880
0880
0880
0880
ENDCHAR
STARTCHAR 1F2F
ENCODING 7983
SWIDTH 630 0
DWIDTH 7 0
BBX 9 8 -3 0
BITMAP
0880
F880
6880
4F80
0880
0880
0880
0880
ENDCHAR
STARTCHAR 1F30
ENCODING 7984
SWIDTH 630 0
DWIDTH 7 0
BBX 5 9 1 0
BITMAP
20
20
00
E0
20
20
20
20
38
ENDCHAR
STARTCHAR 1F31
ENCODING 7985
SWIDTH 630 0
DWIDTH 7 0
BBX 5 9 1 0
BITMAP
40
40
00
E0
20
20
20
20
38
ENDCHAR
STARTCHAR 1F32
ENCODING 7986
SWIDTH 630 0
DWIDTH 7 0
BBX 5 9 1 0
BITMAP
60
50
00
E0
20
20
20
20
38
ENDCHAR
STARTCHAR 1F33
ENCODING 7987
SWIDTH 630 0
DWIDTH 7 0
BBX 5 9 1 0
BITMAP
E0
60
00
E0
20
20
20
20
38
ENDCHAR
STARTCHAR 1F34
ENCODING 7988
SWIDTH 630 0
DWIDTH 7 0
BBX 5 9 1 0
BITMAP
50
50
00
E0
20
20
20
20
38
ENDCHAR
STARTCHAR 1F35
ENCODING 7989
SWIDTH 630 0
DWIDTH 7 0
BBX 5 9 1 0
BITMAP
50
60
00
E0
20
20
20
20
38
ENDCHAR
STARTCHAR 1F36
ENCODING 7990
SWIDTH 630 0
DWIDTH 7 0
BBX 5 9 1 0
BITMAP
70
20
20
E0
20
20
20
20
38
ENDCHAR
STARTCHAR 1F37
ENCODING 7991
SWIDTH 630 0
DWIDTH 7 0
BBX 5 9 1 0
BITMAP
F0
20
20
E0
20
20
20
20
38
ENDCHAR
STARTCHAR 1F38
ENCODING 7992
SWIDTH 630 0
DWIDTH 7 0
BBX 7 8 -1 0
BITMAP
7E
88
08
08
08
08
08
3E
ENDCHAR
STARTCHAR 1F39
ENCODING 7993
SWIDTH 630 0
DWIDTH 7 0
BBX 7 8 -1 0
BITMAP
FE
48
08
08
08
08
08
3E
ENDCHAR
STARTCHAR 1F3A
ENCODING 7994
SWIDTH 630 0
DWIDTH 7 0
BBX 8 8 -2 0
BITMAP
BF
A4
04
04
04
04
04
1F
ENDCHAR
STARTCHAR 1F3B
ENCODING 7995
SWIDTH 630 0
DWIDTH 7 0
BBX 8 8 -2 0
BITMAP
BF
A4
04
04
04
04
04
1F
ENDCHAR
STARTCHAR 1F3C
ENCODING 7996
SWIDTH 630 0
DWIDTH 7 0
BBX 8 8 -2 0
BITMAP
BF
C4
04
04
04
04
04
1F
ENDCHAR
STARTCHAR 1F3D
ENCODING 7997
SWIDTH 630 0
DWIDTH 7 0
BBX 8 8 -2 0
BITMAP
BF
C4
04
04
04
04
04
1F
ENDCHAR
STARTCHAR 1F3E
ENCODING 7998
SWIDTH 630 0
DWIDTH 7 0
BBX 9 8 -3 0
BITMAP
0F80
F200
2200
2200
0200
0200
0200
0F80
ENDCHAR
STARTCHAR 1F3F
ENCODING 7999
SWIDTH 630 0
DWIDTH 7 0
BBX 9 8 -3 0
BITMAP
0F80
F200
2200
2200
0200
0200
0200
0F80
ENDCHAR
STARTCHAR 1F40
ENCODING 8000
SWIDTH 630 0
DWIDTH 7 0
BBX 5 9 1 0
BITMAP
20
20
00
70
88
88
88
88
70
ENDCHAR
STARTCHAR 1F41
ENCODING 8001
SWIDTH 630 0
DWIDTH 7 0
BBX 5 9 1 0
BITMAP
60
20
00
70
88
88
88
88
70
ENDCHAR
STARTCHAR 1F42
ENCODING 8002
SWIDTH 630 0
DWIDTH 7 0
BBX 5 9 1 0
BITMAP
70
50
00
70
88
88
88
88
70
ENDCHAR
STARTCHAR 1F43
ENCODING 8003
SWIDTH 630 0
DWIDTH 7 0
BBX 5 9 1 0
BITMAP
60
50
00
70
88
88
88
88
70
ENDCHAR
STARTCHAR 1F44
ENCODING 8004
SWIDTH 630 0
DWIDTH 7 0
BBX 5 9 1 0
BITMAP
70
50
00
70
88
88
88
88
70
ENDCHAR
STARTCHAR 1F45
ENCODING 8005
SWIDTH 630 0
DWIDTH 7 0
BBX 5 9 1 0
BITMAP
50
50
00
70
88
88
88
88
70
ENDCHAR
STARTCHAR 1F48
ENCODING 8008
SWIDTH 630 0
DWIDTH 7 0
BBX 6 8 0 0
BITMAP
B8
C4
44
44
44
44
44
38
ENDCHAR
STARTCHAR 1F49
ENCODING 8009
SWIDTH 630 0
DWIDTH 7 0
BBX 7 8 -1 0
BITMAP
9C
62
22
22
22
22
22
1C
ENDCHAR
STARTCHAR 1F4A
ENCODING 8010
SWIDTH 630 0
DWIDTH 7 0
BBX 9 8 -3 0
BITMAP
E700
A880
0880
0880
0880
0880
0880
0700
ENDCHAR
STARTCHAR 1F4B
ENCODING 8011
SWIDTH 630 0
DWIDTH 7 0
BBX 9 8 -3 0
BITMAP
E700
6880
0880
0880
0880
0880
0880
0700
ENDCHAR
STARTCHAR 1F4C
ENCODING 8012
SWIDTH 630 0
DWIDTH 7 0
BBX 8 8 -2 0
BITMAP
AE
D1
11
11
11
11
11
0E
ENDCHAR
STARTCHAR 1F4D
ENCODING 8013
SWIDTH 630 0
DWIDTH 7 0
BBX 8 8 -2 0
BITMAP
AE
D1
11
11
11
11
11
0E
ENDCHAR
STARTCHAR 1F50
ENCODING 8016
SWIDTH 630 0
DWIDTH 7 0
BBX 5 9 1 0
BITMAP
20
20
00
88
88
88
88
88
70
ENDCHAR
STARTCHAR 1F51
ENCODING 8017
SWIDTH 630 0
DWIDTH 7 0
BBX 5 9 1 0
BITMAP
60
20
00
88
88
88
88
88
70
ENDCHAR
STARTCHAR 1F52
ENCODING 8018
SWIDTH 630 0
DWIDTH 7 0
BBX 5 9 1 0
BITMAP
70
50
00
88
88
88
88
88
70
ENDCHAR
STARTCHAR 1F53
ENCODING 8019
SWIDTH 630 0
DWIDTH 7 0
BBX 5 9 1 0
BITMAP
60
50
00
88
88
88
88
88
70
ENDCHAR
STARTCHAR 1F54
ENCODING 8020
SWIDTH 630 0
DWIDTH 7 0
BBX 5 9 1 0
BITMAP
70
50
00
88
88
88
88
88
70
ENDCHAR
STARTCHAR 1F55
ENCODING 8021
SWIDTH 630 0
DWIDTH 7 0
BBX 5 9 1 0
BITMAP
50
50
00
88
88
88
88
88
70
ENDCHAR
STARTCHAR 1F56
ENCODING 8022
SWIDTH 630 0
DWIDTH 7 0
BBX 5 9 1 0
BITMAP
70
20
20
88
88
88
88
88
70
ENDCHAR
STARTCHAR 1F57
ENCODING 8023
SWIDTH 630 0
DWIDTH 7 0
BBX 5 9 1 0
BITMAP
70
20
20
88
88
88
88
88
70
ENDCHAR
STARTCHAR 1F59
ENCODING 8025
SWIDTH 630 0
DWIDTH 7 0
BBX 8 8 -1 0
BITMAP
E3
A2
14
14
08
08
08
08
ENDCHAR
STARTCHAR 1F5B
ENCODING 8027
SWIDTH 630 0
DWIDTH 7 0
BBX 10 8 -3 0
BITMAP
F8C0
6880
0500
0500
0200
0200
0200
0200
ENDCHAR
STARTCHAR 1F5D
ENCODING 8029
SWIDTH 630 0
DWIDTH 7 0
BBX 10 8 -3 0
BITMAP
B8C0
A880
0500
0500
0200
0200
0200
0200
ENDCHAR
STARTCHAR 1F5F
ENCODING 8031
SWIDTH 630 0
DWIDTH 7 0
BBX 11 8 -4 0
BITMAP
0C60
F440
2280
2280
0100
0100
0100
0100
ENDCHAR
STARTCHAR 1F60
ENCODING 8032
SWIDTH 630 0
DWIDTH 7 0
BBX 7 9 0 0
BITMAP
10
10
00
44
84
92
92
94
6C
ENDCHAR
STARTCHAR 1F61
ENCODING 8033
SWIDTH 630 0
DWIDTH 7 0
BBX 7 9 0 0
BITMAP
30
10
00
44
84
92
92
94
6C
ENDCHAR
STARTCHAR 1F62
ENCODING 8034
SWIDTH 630 0
DWIDTH 7 0
BBX 7 9 0 0
BITMAP
38
28
00
44
84
92
92
94
6C
ENDCHAR
STARTCHAR 1F63
ENCODING 8035
SWIDTH 630 0
DWIDTH 7 0
BBX 7 9 0 0
BITMAP
30
28
00
44
84
92
92
94
6C
ENDCHAR
STARTCHAR 1F64
ENCODING 8036
SWIDTH 630 0
DWIDTH 7 0
BBX 7 9 0 0
BITMAP
38
28
00
44
84
92
92
94
6C
ENDCHAR
STARTCHAR 1F65
ENCODING 8037
SWIDTH 630 0
DWIDTH 7 0
BBX 7 9 0 0
BITMAP
28
28
00
44
84
92
92
94
6C
ENDCHAR
STARTCHAR 1F66
ENCODING 8038
SWIDTH 630 0
DWIDTH 7 0
BBX 7 9 0 0
BITMAP
38
10
10
44
84
92
92
94
6C
ENDCHAR
STARTCHAR 1F67
ENCODING 8039
SWIDTH 630 0
DWIDTH 7 0
BBX 7 9 0 0
BITMAP
38
10
10
44
84
92
92
94
6C
ENDCHAR
STARTCHAR 1F68
ENCODING 8040
SWIDTH 630 0
DWIDTH 7 0
BBX 6 8 0 0
BITMAP
B8
C4
44
44
44
44
44
6C
ENDCHAR
STARTCHAR 1F69
ENCODING 8041
SWIDTH 630 0
DWIDTH 7 0
BBX 7 8 -1 0
BITMAP
9C
62
22
22
22
22
22
36
ENDCHAR
STARTCHAR 1F6A
ENCODING 8042
SWIDTH 630 0
DWIDTH 7 0
BBX 9 8 -3 0
BITMAP
E700
A880
0880
0880
0880
0880
0880
0D80
ENDCHAR
STARTCHAR 1F6B
ENCODING 8043
SWIDTH 630 0
DWIDTH 7 0
BBX 9 8 -3 0
BITMAP
E700
6880
0880
0880
0880
0880
0880
0D80
ENDCHAR
STARTCHAR 1F6C
ENCODING 8044
SWIDTH 630 0
DWIDTH 7 0
BBX 8 8 -2 0
BITMAP
AE
D1
11
11
11
11
11
1B
ENDCHAR
STARTCHAR 1F6D
ENCODING 8045
SWIDTH 630 0
DWIDTH 7 0
BBX 8 8 -2 0
BITMAP
AE
D1
11
11
11
11
11
1B
ENDCHAR
STARTCHAR 1F6E
ENCODING 8046
SWIDTH 630 0
DWIDTH 7 0
BBX 9 8 -3 0
BITMAP
0700
F880
2880
2880
0880
0880
0880
0D80
ENDCHAR
STARTCHAR 1F6F
ENCODING 8047
SWIDTH 630 0
DWIDTH 7 0
BBX 9 8 -3 0
BITMAP
0700
F880
2880
2880
0880
0880
0880
0D80
ENDCHAR
STARTCHAR 1F70
ENCODING 8048
SWIDTH 630 0
DWIDTH 7 0
BBX 5 9 1 0
BITMAP
40
20
00
68
98
98
90
98
E8
ENDCHAR
STARTCHAR 1F71
ENCODING 8049
SWIDTH 630 0
DWIDTH 7 0
BBX 5 9 1 0
BITMAP
30
40
00
68
98
98
90
98
E8
ENDCHAR
STARTCHAR 1F72
ENCODING 8050
SWIDTH 630 0
DWIDTH 7 0
BBX 5 9 1 0
BITMAP
60
10
00
78
80
70
80
88
78
ENDCHAR
STARTCHAR 1F73
ENCODING 8051
SWIDTH 630 0
DWIDTH 7 0
BBX 5 9 1 0
BITMAP
30
40
00
78
80
70
80
88
78
ENDCHAR
STARTCHAR 1F74
ENCODING 8052
SWIDTH 630 0
DWIDTH 7 0
BBX 5 11 1 -2
BITMAP
40
30
00
F0
88
88
88
88
88
08
08
ENDCHAR
STARTCHAR 1F75
ENCODING 8053
SWIDTH 630 0
DWIDTH 7 0
BBX 5 11 1 -2
BITMAP
30
40
00
F0
88
88
88
88
88
08
08
ENDCHAR
STARTCHAR 1F76
ENCODING 8054
SWIDTH 630 0
DWIDTH 7 0
BBX 5 9 1 0
BITMAP
40
30
00
E0
20
20
20
20
38
ENDCHAR
STARTCHAR 1F77
ENCODING 8055
SWIDTH 630 0
DWIDTH 7 0
BBX 5 9 1 0
BITMAP
30
40
00
E0
20
20
20
20
38
ENDCHAR
STARTCHAR 1F78
ENCODING 8056
SWIDTH 630 0
DWIDTH 7 0
BBX 5 9 1 0
BITMAP
40
30
00
70
88
88
88
88
70
ENDCHAR
STARTCHAR 1F79
ENCODING 8057
SWIDTH 630 0
DWIDTH 7 0
BBX 5 9 1 0
BITMAP
30
40
00
70
88
88
88
88
70
ENDCHAR
STARTCHAR 1F7A
ENCODING 8058
SWIDTH 630 0
DWIDTH 7 0
BBX 5 9 1 0
BITMAP
40
30
00
88
88
88
88
88
70
ENDCHAR
STARTCHAR 1F7B
ENCODING 8059
SWIDTH 630 0
DWIDTH 7 0
BBX 5 9 1 0
BITMAP
30
40
00
88
88
88
88
88
70
ENDCHAR
STARTCHAR 1F7C
ENCODING 8060
SWIDTH 630 0
DWIDTH 7 0
BBX 7 9 0 0
BITMAP
20
18
00
44
84
92
92
94
6C
ENDCHAR
STARTCHAR 1F7D
ENCODING 8061
SWIDTH 630 0
DWIDTH 7 0
BBX 7 9 0 0
BITMAP
18
20
00
44
84
92
92
94
6C
ENDCHAR
STARTCHAR 1F80
ENCODING 8064
SWIDTH 630 0
DWIDTH 7 0
BBX 5 11 1 -2
BITMAP
20
20
00
68
98
98
90
98
E8
20
30
ENDCHAR
STARTCHAR 1F81
ENCODING 8065
SWIDTH 630 0
DWIDTH 7 0
BBX 5 11 1 -2
BITMAP
40
40
00
68
98
98
90
98
E8
20
30
ENDCHAR
STARTCHAR 1F82
ENCODING 8066
SWIDTH 630 0
DWIDTH 7 0
BBX 5 11 1 -2
BITMAP
60
90
00
68
98
98
90
98
E8
20
30
ENDCHAR
STARTCHAR 1F83
ENCODING 8067
SWIDTH 630 0
DWIDTH 7 0
BBX 5 11 1 -2
BITMAP
E0
60
00
68
98
98
90
98
E8
20
30
ENDCHAR
STARTCHAR 1F84
ENCODING 8068
SWIDTH 630 0
DWIDTH 7 0
BBX 5 11 1 -2
BITMAP
50
50
00
68
98
98
90
98
E8
20
30
ENDCHAR
STARTCHAR 1F85
ENCODING 8069
SWIDTH 630 0
DWIDTH 7 0
BBX 5 11 1 -2
BITMAP
50
60
00
68
98
98
90
98
E8
20
30
ENDCHAR
STARTCHAR 1F86
ENCODING 8070
SWIDTH 630 0
DWIDTH 7 0
BBX 5 11 1 -2
BITMAP
F0
20
20
68
98
98
90
98
E8
20
30
ENDCHAR
STARTCHAR 1F87
ENCODING 8071
SWIDTH 630 0
DWIDTH 7 0
BBX 5 11 1 -2
BITMAP
F0
20
20
68
98
98
90
98
E8
20
30
ENDCHAR
STARTCHAR 1F88
ENCODING 8072
SWIDTH 630 0
DWIDTH 7 0
BBX 7 10 0 -2
BITMAP
50
68
28
28
48
7C
44
86
10
18
ENDCHAR
STARTCHAR 1F89
ENCODING 8073
SWIDTH 630 0
DWIDTH 7 0
BBX 7 10 0 -2
BITMAP
D0
68
28
28
48
7C
44
86
10
18
ENDCHAR
STARTCHAR 1F8A
ENCODING 8074
SWIDTH 630 0
DWIDTH 7 0
BBX 8 10 -1 -2
BITMAP
C8
B4
14
14
24
3E
22
43
08
0C
ENDCHAR
STARTCHAR 1F8B
ENCODING 8075
SWIDTH 630 0
DWIDTH 7 0
BBX 8 10 -1 -2
BITMAP
C8
B4
14
14
24
3E
22
43
08
0C
ENDCHAR
STARTCHAR 1F8C
ENCODING 8076
SWIDTH 630 0
DWIDTH 7 0
BBX 8 10 -1 -2
BITMAP
A8
B4
14
14
24
3E
22
43
08
0C
ENDCHAR
STARTCHAR 1F8D
ENCODING 8077
SWIDTH 630 0
DWIDTH 7 0
BBX 8 10 -1 -2
BITMAP
A8
B4
14
14
24
3E
22
43
08
0C
ENDCHAR
STARTCHAR 1F8E
ENCODING 8078
SWIDTH 630 0
DWIDTH 7 0
BBX 8 10 -1 -2
BITMAP
08
F4
54
54
24
3E
22
43
08
0C
ENDCHAR
STARTCHAR 1F8F
ENCODING 8079
SWIDTH 630 0
DWIDTH 7 0
BBX 8 10 -1 -2
BITMAP
08
F4
54
54
24
3E
22
43
08
0C
ENDCHAR
STARTCHAR 1F90
ENCODING 8080
SWIDTH 630 0
DWIDTH 7 0
BBX 5 11 1 -2
BITMAP
20
20
00
F0
88
88
88
88
88
88
E8
ENDCHAR
STARTCHAR 1F91
ENCODING 8081
SWIDTH 630 0
DWIDTH 7 0
BBX 5 11 1 -2
BITMAP
60
20
00
F0
88
88
88
88
88
88
E8
ENDCHAR
STARTCHAR 1F92
ENCODING 8082
SWIDTH 630 0
DWIDTH 7 0
BBX 5 11 1 -2
BITMAP
70
50
00
F0
88
88
88
88
88
88
E8
ENDCHAR
STARTCHAR 1F93
ENCODING 8083
SWIDTH 630 0
DWIDTH 7 0
BBX 5 11 1 -2
BITMAP
60
50
00
F0
88
88
88
88
88
88
E8
ENDCHAR
STARTCHAR 1F94
ENCODING 8084
SWIDTH 630 0
DWIDTH 7 0
BBX 5 11 1 -2
BITMAP
70
50
00
F0
88
88
88
88
88
88
E8
ENDCHAR
STARTCHAR 1F95
ENCODING 8085
SWIDTH 630 0
DWIDTH 7 0
BBX 5 11 1 -2
BITMAP
50
50
00
F0
88
88
88
88
88
88
E8
ENDCHAR
STARTCHAR 1F96
ENCODING 8086
SWIDTH 630 0
DWIDTH 7 0
BBX 5 11 1 -2
BITMAP
70
20
20
F0
88
88
88
88
88
88
E8
ENDCHAR
STARTCHAR 1F97
ENCODING 8087
SWIDTH 630 0
DWIDTH 7 0
BBX 5 11 1 -2
BITMAP
70
20
20
F0
88
88
88
88
88
88
E8
ENDCHAR
STARTCHAR 1F98
ENCODING 8088
SWIDTH 630 0
DWIDTH 7 0
BBX 7 10 -1 -2
BITMAP
E2
A2
22
3E
22
22
22
22
08
0C
ENDCHAR
STARTCHAR 1F99
ENCODING 8089
SWIDTH 630 0
DWIDTH 7 0
BBX 7 10 -1 -2
BITMAP
A2
A2
22
3E
22
22
22
22
08
0C
ENDCHAR
STARTCHAR 1F9A
ENCODING 8090
SWIDTH 630 0
DWIDTH 7 0
BBX 9 10 -3 -2
BITMAP
E880
A880
0880
0F80
0880
0880
0880
0880
0200
0300
ENDCHAR
STARTCHAR 1F9B
ENCODING 8091
SWIDTH 630 0
DWIDTH 7 0
BBX 9 10 -3 -2
BITMAP
E880
6880
0880
0F80
0880
0880
0880
0880
0200
0300
ENDCHAR
STARTCHAR 1F9C
ENCODING 8092
SWIDTH 630 0
DWIDTH 7 0
BBX 8 10 -2 -2
BITMAP
F1
D1
11
1F
11
11
11
11
04
06
ENDCHAR
STARTCHAR 1F9D
ENCODING 8093
SWIDTH 630 0
DWIDTH 7 0
BBX 8 10 -2 -2
BITMAP
B1
D1
11
1F
11
11
11
11
04
06
ENDCHAR
STARTCHAR 1F9E
ENCODING 8094
SWIDTH 630 0
DWIDTH 7 0
BBX 9 10 -3 -2
BITMAP
0880
F880
6880
4F80
0880
0880
0880
0880
0200
0300
ENDCHAR
STARTCHAR 1F9F
ENCODING 8095
SWIDTH 630 0
DWIDTH 7 0
BBX 9 10 -3 -2
BITMAP
0880
F880
6880
4F80
0880
0880
0880
0880
0200
0300
ENDCHAR
STARTCHAR 1FA0
ENCODING 8096
SWIDTH 630 0
DWIDTH 7 0
BBX 7 11 0 -2
BITMAP
10
10
00
44
84
92
92
94
6C
10
18
ENDCHAR
STARTCHAR 1FA1
ENCODING 8097
SWIDTH 630 0
DWIDTH 7 0
BBX 7 11 0 -2
BITMAP
30
10
00
44
84
92
92
94
6C
10
18
ENDCHAR
STARTCHAR 1FA2
ENCODING 8098
SWIDTH 630 0
DWIDTH 7 0
BBX 7 11 0 -2
BITMAP
38
28
00
44
84
92
92
94
6C
10
18
ENDCHAR
STARTCHAR 1FA3
ENCODING 8099
SWIDTH 630 0
DWIDTH 7 0
BBX 7 11 0 -2
BITMAP
30
28
00
44
84
92
92
94
6C
10
18
ENDCHAR
STARTCHAR 1FA4
ENCODING 8100
SWIDTH 630 0
DWIDTH 7 0
BBX 7 11 0 -2
BITMAP
38
28
00
44
84
92
92
94
6C
10
18
ENDCHAR
STARTCHAR 1FA5
ENCODING 8101
SWIDTH 630 0
DWIDTH 7 0
BBX 7 11 0 -2
BITMAP
28
28
00
44
84
92
92
94
6C
10
18
ENDCHAR
STARTCHAR 1FA6
ENCODING 8102
SWIDTH 630 0
DWIDTH 7 0
BBX 7 11 0 -2
BITMAP
38
10
10
44
84
92
92
94
6C
10
18
ENDCHAR
STARTCHAR 1FA7
ENCODING 8103
SWIDTH 630 0
DWIDTH 7 0
BBX 7 11 0 -2
BITMAP
38
10
10
44
84
92
92
94
6C
10
18
ENDCHAR
STARTCHAR 1FA8
ENCODING 8104
SWIDTH 630 0
DWIDTH 7 0
BBX 6 10 0 -2
BITMAP
B8
C4
44
44
44
44
44
6C
10
18
ENDCHAR
STARTCHAR 1FA9
ENCODING 8105
SWIDTH 630 0
DWIDTH 7 0
BBX 7 10 -1 -2
BITMAP
9C
62
22
22
22
22
22
36
08
0C
ENDCHAR
STARTCHAR 1FAA
ENCODING 8106
SWIDTH 630 0
DWIDTH 7 0
BBX 9 10 -3 -2
BITMAP
E700
A880
0880
0880
0880
0880
0880
0D80
0200
0300
ENDCHAR
STARTCHAR 1FAB
ENCODING 8107
SWIDTH 630 0
DWIDTH 7 0
BBX 9 10 -3 -2
BITMAP
E700
6880
0880
0880
0880
0880
0880
0D80
0200
0300
ENDCHAR
STARTCHAR 1FAC
ENCODING 8108
SWIDTH 630 0
DWIDTH 7 0
BBX 8 10 -2 -2
BITMAP
AE
D1
11
11
11
11
11
1B
04
06
ENDCHAR
STARTCHAR 1FAD
ENCODING 8109
SWIDTH 630 0
DWIDTH 7 0
BBX 8 10 -2 -2
BITMAP
AE
D1
11
11
11
11
11
1B
04
06
ENDCHAR
STARTCHAR 1FAE
ENCODING 8110
SWIDTH 630 0
DWIDTH 7 0
BBX 9 10 -3 -2
BITMAP
0700
F880
2880
2880
0880
0880
0880
0D80
0200
0300
ENDCHAR
STARTCHAR 1FAF
ENCODING 8111
SWIDTH 630 0
DWIDTH 7 0
BBX 9 10 -3 -2
BITMAP
0700
F880
2880
2880
0880
0880
0880
0D80
0200
0300
ENDCHAR
STARTCHAR 1FB0
ENCODING 8112
SWIDTH 630 0
DWIDTH 7 0
BBX 5 9 1 0
BITMAP
90
60
00
68
98
98
90
98
E8
ENDCHAR
STARTCHAR 1FB1
ENCODING 8113
SWIDTH 630 0
DWIDTH 7 0
BBX 5 8 1 0
BITMAP
70
00
68
98
98
90
98
E8
ENDCHAR
STARTCHAR 1FB2
ENCODING 8114
SWIDTH 630 0
DWIDTH 7 0
BBX 5 11 1 -2
BITMAP
40
20
00
68
98
98
90
98
E8
20
30
ENDCHAR
STARTCHAR 1FB3
ENCODING 8115
SWIDTH 630 0
DWIDTH 7 0
BBX 5 8 1 -2
BITMAP
68
98
98
90
98
E8
20
30
ENDCHAR
STARTCHAR 1FB4
ENCODING 8116
SWIDTH 630 0
DWIDTH 7 0
BBX 5 11 1 -2
BITMAP
30
40
00
68
98
98
90
98
E8
20
30
ENDCHAR
STARTCHAR 1FB6
ENCODING 8118
SWIDTH 630 0
DWIDTH 7 0
BBX 5 9 1 0
BITMAP
50
B0
00
68
98
98
90
98
E8
ENDCHAR
STARTCHAR 1FB7
ENCODING 8119
SWIDTH 630 0
DWIDTH 7 0
BBX 5 11 1 -2
BITMAP
50
B0
00
68
98
98
90
98
E8
20
30
ENDCHAR
STARTCHAR 1FB8
ENCODING 8120
SWIDTH 630 0
DWIDTH 7 0
BBX 7 10 0 0
BITMAP
28
38
10
28
28
28
48
7C
44
86
ENDCHAR
STARTCHAR 1FB9
ENCODING 8121
SWIDTH 630 0
DWIDTH 7 0
BBX 7 9 0 0
BITMAP
38
10
28
28
28
48
7C
44
86
ENDCHAR
STARTCHAR 1FBA
ENCODING 8122
SWIDTH 630 0
DWIDTH 7 0
BBX 7 8 0 0
BITMAP
90
68
28
28
48
7C
44
86
ENDCHAR
STARTCHAR 1FBB
ENCODING 8123
SWIDTH 630 0
DWIDTH 7 0
BBX 7 8 0 0
BITMAP
50
A8
28
28
48
7C
44
86
ENDCHAR
STARTCHAR 1FBC
ENCODING 8124
SWIDTH 630 0
DWIDTH 7 0
BBX 7 10 0 -2
BITMAP
10
28
28
28
48
7C
44
86
10
18
ENDCHAR
STARTCHAR 1FBD
ENCODING 8125
SWIDTH 630 0
DWIDTH 7 0
BBX 1 2 3 7
BITMAP
80
80
ENDCHAR
STARTCHAR 1FBE
ENCODING 8126
SWIDTH 630 0
DWIDTH 7 0
BBX 3 2 2 -2
BITMAP
80
60
ENDCHAR
STARTCHAR 1FBF
ENCODING 8127
SWIDTH 630 0
DWIDTH 7 0
BBX 1 2 3 7
BITMAP
80
80
ENDCHAR
STARTCHAR 1FC0
ENCODING 8128
SWIDTH 630 0
DWIDTH 7 0
BBX 3 2 2 7
BITMAP
E0
E0
ENDCHAR
STARTCHAR 1FC1
ENCODING 8129
SWIDTH 630 0
DWIDTH 7 0
BBX 3 3 2 7
BITMAP
E0
00
A0
ENDCHAR
STARTCHAR 1FC2
ENCODING 8130
SWIDTH 630 0
DWIDTH 7 0
BBX 5 11 1 -2
BITMAP
60
10
00
F0
88
88
88
88
88
88
E8
ENDCHAR
STARTCHAR 1FC3
ENCODING 8131
SWIDTH 630 0
DWIDTH 7 0
BBX 5 8 1 -2
BITMAP
F0
88
88
88
88
88
88
E8
ENDCHAR
STARTCHAR 1FC4
ENCODING 8132
SWIDTH 630 0
DWIDTH 7 0
BBX 5 11 1 -2
BITMAP
30
40
00
F0
88
88
88
88
88
88
E8
ENDCHAR
STARTCHAR 1FC6
ENCODING 8134
SWIDTH 630 0
DWIDTH 7 0
BBX 5 11 1 -2
BITMAP
70
70
00
F0
88
88
88
88
88
08
08
ENDCHAR
STARTCHAR 1FC7
ENCODING 8135
SWIDTH 630 0
DWIDTH 7 0
BBX 5 11 1 -2
BITMAP
70
70
00
F0
88
88
88
88
88
88
E8
ENDCHAR
STARTCHAR 1FC8
ENCODING 8136
SWIDTH 630 0
DWIDTH 7 0
BBX 6 8 0 0
BITMAP
FC
C0
40
40
78
40
40
7C
ENDCHAR
STARTCHAR 1FC9
ENCODING 8137
SWIDTH 630 0
DWIDTH 7 0
BBX 6 8 0 0
BITMAP
FC
C0
40
40
78
40
40
7C
ENDCHAR
STARTCHAR 1FCA
ENCODING 8138
SWIDTH 630 0
DWIDTH 7 0
BBX 7 8 -1 0
BITMAP
A2
62
22
3E
22
22
22
22
ENDCHAR
STARTCHAR 1FCB
ENCODING 8139
SWIDTH 630 0
DWIDTH 7 0
BBX 7 8 -1 0
BITMAP
E2
A2
22
3E
22
22
22
22
ENDCHAR
STARTCHAR 1FCC
ENCODING 8140
SWIDTH 630 0
DWIDTH 7 0
BBX 5 10 1 -2
BITMAP
88
88
88
F8
88
88
88
88
20
30
ENDCHAR
STARTCHAR 1FCD
ENCODING 8141
SWIDTH 630 0
DWIDTH 7 0
BBX 3 2 2 7
BITMAP
E0
A0
ENDCHAR
STARTCHAR 1FCE
ENCODING 8142
SWIDTH 630 0
DWIDTH 7 0
BBX 3 2 2 7
BITMAP
A0
C0
ENDCHAR
STARTCHAR 1FCF
ENCODING 8143
SWIDTH 630 0
DWIDTH 7 0
BBX 3 3 2 6
BITMAP
E0
40
40
ENDCHAR
STARTCHAR 1FD0
ENCODING 8144
SWIDTH 630 0
DWIDTH 7 0
BBX 5 9 1 0
BITMAP
90
60
00
E0
20
20
20
20
38
ENDCHAR
STARTCHAR 1FD1
ENCODING 8145
SWIDTH 630 0
DWIDTH 7 0
BBX 5 8 1 0
BITMAP
70
00
E0
20
20
20
20
38
ENDCHAR
STARTCHAR 1FD2
ENCODING 8146
SWIDTH 630 0
DWIDTH 7 0
BBX 5 10 1 0
BITMAP
40
60
D0
00
E0
20
20
20
20
38
ENDCHAR
STARTCHAR 1FD3
ENCODING 8147
SWIDTH 630 0
DWIDTH 7 0
BBX 5 10 1 0
BITMAP
10
20
D0
00
E0
20
20
20
20
38
ENDCHAR
STARTCHAR 1FD6
ENCODING 8150
SWIDTH 630 0
DWIDTH 7 0
BBX 5 9 1 0
BITMAP
50
B0
00
E0
20
20
20
20
38
ENDCHAR
STARTCHAR 1FD7
ENCODING 8151
SWIDTH 630 0
DWIDTH 7 0
BBX 5 10 1 0
BITMAP
F0
00
D0
00
E0
20
20
20
20
38
ENDCHAR
STARTCHAR 1FD8
ENCODING 8152
SWIDTH 630 0
DWIDTH 7 0
BBX 5 10 1 0
BITMAP
50
70
F8
20
20
20
20
20
20
F8
ENDCHAR
STARTCHAR 1FD9
ENCODING 8153
SWIDTH 630 0
DWIDTH 7 0
BBX 5 9 1 0
BITMAP
70
F8
20
20
20
20
20
20
F8
ENDCHAR
STARTCHAR 1FDA
ENCODING 8154
SWIDTH 630 0
DWIDTH 7 0
BBX 6 8 0 0
BITMAP
FC
90
10
10
10
10
10
7C
ENDCHAR
STARTCHAR 1FDB
ENCODING 8155
SWIDTH 630 0
DWIDTH 7 0
BBX 7 8 -1 0
BITMAP
7E
48
88
08
08
08
08
3E
ENDCHAR
STARTCHAR 1FDD
ENCODING 8157
SWIDTH 630 0
DWIDTH 7 0
BBX 3 2 2 7
BITMAP
E0
A0
ENDCHAR
STARTCHAR 1FDE
ENCODING 8158
SWIDTH 630 0
DWIDTH 7 0
BBX 3 2 2 7
BITMAP
A0
C0
ENDCHAR
STARTCHAR 1FDF
ENCODING 8159
SWIDTH 630 0
DWIDTH 7 0
BBX 3 3 2 6
BITMAP
E0
40
40
ENDCHAR
STARTCHAR 1FE0
ENCODING 8160
SWIDTH 630 0
DWIDTH 7 0
BBX 5 9 1 0
BITMAP
50
60
00
88
88
88
88
88
70
ENDCHAR
STARTCHAR 1FE1
ENCODING 8161
SWIDTH 630 0
DWIDTH 7 0
BBX 5 8 1 0
BITMAP
70
00
88
88
88
88
88
70
ENDCHAR
STARTCHAR 1FE2
ENCODING 8162
SWIDTH 630 0
DWIDTH 7 0
BBX 5 10 1 0
BITMAP
40
20
50
00
88
88
88
88
88
70
ENDCHAR
STARTCHAR 1FE3
ENCODING 8163
SWIDTH 630 0
DWIDTH 7 0
BBX 5 10 1 0
BITMAP
10
20
50
00
88
88
88
88
88
70
ENDCHAR
STARTCHAR 1FE4
ENCODING 8164
SWIDTH 630 0
DWIDTH 7 0
BBX 5 11 1 -2
BITMAP
30
20
00
70
88
88
88
88
F0
80
80
ENDCHAR
STARTCHAR 1FE5
ENCODING 8165
SWIDTH 630 0
DWIDTH 7 0
BBX 5 11 1 -2
BITMAP
60
20
00
70
88
88
88
88
F0
80
80
ENDCHAR
STARTCHAR 1FE6
ENCODING 8166
SWIDTH 630 0
DWIDTH 7 0
BBX 5 9 1 0
BITMAP
70
70
00
88
88
88
88
88
70
ENDCHAR
STARTCHAR 1FE7
ENCODING 8167
SWIDTH 630 0
DWIDTH 7 0
BBX 5 10 1 0
BITMAP
70
00
50
00
88
88
88
88
88
70
ENDCHAR
STARTCHAR 1FE8
ENCODING 8168
SWIDTH 630 0
DWIDTH 7 0
BBX 7 10 0 0
BITMAP
28
38
C6
44
28
28
10
10
10
10
ENDCHAR
STARTCHAR 1FE9
ENCODING 8169
SWIDTH 630 0
DWIDTH 7 0
BBX 7 9 0 0
BITMAP
38
C6
44
28
28
10
10
10
10
ENDCHAR
STARTCHAR 1FEA
ENCODING 8170
SWIDTH 630 0
DWIDTH 7 0
BBX 8 8 -1 0
BITMAP
E3
A2
14
14
08
08
08
08
ENDCHAR
STARTCHAR 1FEB
ENCODING 8171
SWIDTH 630 0
DWIDTH 7 0
BBX 8 8 -1 0
BITMAP
E3
A2
14
14
08
08
08
08
ENDCHAR
STARTCHAR 1FEC
ENCODING 8172
SWIDTH 630 0
DWIDTH 7 0
BBX 7 8 -1 0
BITMAP
FC
62
22
22
3C
20
20
20
ENDCHAR
STARTCHAR 1FED
ENCODING 8173
SWIDTH 630 0
DWIDTH 7 0
BBX 3 3 2 7
BITMAP
80
C0
A0
ENDCHAR
STARTCHAR 1FEE
ENCODING 8174
SWIDTH 630 0
DWIDTH 7 0
BBX 3 3 2 7
BITMAP
20
40
A0
ENDCHAR
STARTCHAR 1FEF
ENCODING 8175
SWIDTH 630 0
DWIDTH 7 0
BBX 3 2 2 7
BITMAP
C0
20
ENDCHAR
STARTCHAR 1FF2
ENCODING 8178
SWIDTH 630 0
DWIDTH 7 0
BBX 7 11 0 -2
BITMAP
30
08
00
44
84
92
92
94
6C
10
18
ENDCHAR
STARTCHAR 1FF3
ENCODING 8179
SWIDTH 630 0
DWIDTH 7 0
BBX 7 8 0 -2
BITMAP
44
84
92
92
94
6C
10
18
ENDCHAR
STARTCHAR 1FF4
ENCODING 8180
SWIDTH 630 0
DWIDTH 7 0
BBX 7 11 0 -2
BITMAP
18
20
00
44
84
92
92
94
6C
10
18
ENDCHAR
STARTCHAR 1FF6
ENCODING 8182
SWIDTH 630 0
DWIDTH 7 0
BBX 7 9 0 0
BITMAP
38
38
00
44
84
92
92
94
6C
ENDCHAR
STARTCHAR 1FF7
ENCODING 8183
SWIDTH 630 0
DWIDTH 7 0
BBX 7 11 0 -2
BITMAP
38
38
00
44
84
92
92
94
6C
10
18
ENDCHAR
STARTCHAR 1FF8
ENCODING 8184
SWIDTH 630 0
DWIDTH 7 0
BBX 7 8 -1 0
BITMAP
9C
A2
62
22
22
22
22
1C
ENDCHAR
STARTCHAR 1FF9
ENCODING 8185
SWIDTH 630 0
DWIDTH 7 0
BBX 7 8 -1 0
BITMAP
5C
A2
22
22
22
22
22
1C
ENDCHAR
STARTCHAR 1FFA
ENCODING 8186
SWIDTH 630 0
DWIDTH 7 0
BBX 7 8 -1 0
BITMAP
9C
A2
62
22
22
22
22
36
ENDCHAR
STARTCHAR 1FFB
ENCODING 8187
SWIDTH 630 0
DWIDTH 7 0
BBX 7 8 -1 0
BITMAP
5C
A2
22
22
22
22
22
36
ENDCHAR
STARTCHAR 1FFC
ENCODING 8188
SWIDTH 630 0
DWIDTH 7 0
BBX 5 10 1 -2
BITMAP
70
88
88
88
88
88
88
D8
20
30
ENDCHAR
STARTCHAR 1FFD
ENCODING 8189
SWIDTH 630 0
DWIDTH 7 0
BBX 3 2 2 7
BITMAP
60
80
ENDCHAR
STARTCHAR 1FFE
ENCODING 8190
SWIDTH 630 0
DWIDTH 7 0
BBX 1 2 3 7
BITMAP
80
80
ENDCHAR
STARTCHAR 2007
ENCODING 8199
SWIDTH 630 0
DWIDTH 7 0
BBX 0 0 0 0
BITMAP
ENDCHAR
STARTCHAR 2008
ENCODING 8200
SWIDTH 630 0
DWIDTH 7 0
BBX 0 0 0 0
BITMAP
ENDCHAR
STARTCHAR 200B
ENCODING 8203
SWIDTH 0 0
DWIDTH 0 0
BBX 0 0 0 0
BITMAP
ENDCHAR
STARTCHAR 2012
ENCODING 8210
SWIDTH 630 0
DWIDTH 7 0
BBX 6 1 0 3
BITMAP
FC
ENDCHAR
STARTCHAR 2013
ENCODING 8211
SWIDTH 630 0
DWIDTH 7 0
BBX 6 1 0 3
BITMAP
FC
ENDCHAR
STARTCHAR 2014
ENCODING 8212
SWIDTH 630 0
DWIDTH 7 0
BBX 7 1 0 3
BITMAP
FE
ENDCHAR
STARTCHAR 2015
ENCODING 8213
SWIDTH 630 0
DWIDTH 7 0
BBX 6 1 0 3
BITMAP
FC
ENDCHAR
STARTCHAR 2016
ENCODING 8214
SWIDTH 630 0
DWIDTH 7 0
BBX 3 14 2 -3
BITMAP
A0
A0
A0
A0
A0
A0
A0
A0
A0
A0
A0
A0
A0
A0
ENDCHAR
STARTCHAR 2017
ENCODING 8215
SWIDTH 630 0
DWIDTH 7 0
BBX 5 3 1 -2
BITMAP
F8
00
F8
ENDCHAR
STARTCHAR 2018
ENCODING 8216
SWIDTH 630 0
DWIDTH 7 0
BBX 2 3 2 5
BITMAP
40
40
C0
ENDCHAR
STARTCHAR 2019
ENCODING 8217
SWIDTH 630 0
DWIDTH 7 0
BBX 2 3 2 5
BITMAP
40
40
C0
ENDCHAR
STARTCHAR 201A
ENCODING 8218
SWIDTH 630 0
DWIDTH 7 0
BBX 2 3 2 -2
BITMAP
40
40
C0
ENDCHAR
STARTCHAR 201C
ENCODING 8220
SWIDTH 630 0
DWIDTH 7 0
BBX 5 3 1 5
BITMAP
48
50
D0
ENDCHAR
STARTCHAR 201D
ENCODING 8221
SWIDTH 630 0
DWIDTH 7 0
BBX 5 3 1 5
BITMAP
D8
50
90
ENDCHAR
STARTCHAR 201E
ENCODING 8222
SWIDTH 630 0
DWIDTH 7 0
BBX 5 3 1 -2
BITMAP
D8
50
90
ENDCHAR
STARTCHAR 2020
ENCODING 8224
SWIDTH 630 0
DWIDTH 7 0
BBX 5 8 1 0
BITMAP
20
20
F8
20
20
20
20
20
ENDCHAR
STARTCHAR 2021
ENCODING 8225
SWIDTH 630 0
DWIDTH 7 0
BBX 5 8 1 0
BITMAP
20
20
F8
20
20
F8
20
20
ENDCHAR
STARTCHAR 2022
ENCODING 8226
SWIDTH 630 0
DWIDTH 7 0
BBX 3 3 2 2
BITMAP
C0
E0
C0
ENDCHAR
STARTCHAR 2026
ENCODING 8230
SWIDTH 630 0
DWIDTH 7 0
BBX 6 2 0 0
BITMAP
54
D4
ENDCHAR
STARTCHAR 2030
ENCODING 8240
SWIDTH 630 0
DWIDTH 7 0
BBX 7 8 0 0
BITMAP
60
90
6E
30
C0
6C
92
6C
ENDCHAR
STARTCHAR 2039
ENCODING 8249
SWIDTH 630 0
DWIDTH 7 0
BBX 3 5 2 1
BITMAP
20
40
80
40
60
ENDCHAR
STARTCHAR 203A
ENCODING 8250
SWIDTH 630 0
DWIDTH 7 0
BBX 3 5 2 1
BITMAP
80
40
20
40
80
ENDCHAR
STARTCHAR 2044
ENCODING 8260
SWIDTH 630 0
DWIDTH 7 0
BBX 6 4 -3 2
BITMAP
04
18
60
80
ENDCHAR
STARTCHAR 204A
ENCODING 8266
SWIDTH 630 0
DWIDTH 7 0
BBX 5 8 1 -2
BITMAP
F8
10
10
10
20
20
40
40
ENDCHAR
STARTCHAR 2070
ENCODING 8304
SWIDTH 630 0
DWIDTH 7 0
BBX 3 4 2 4
BITMAP
E0
A0
A0
E0
ENDCHAR
STARTCHAR 2074
ENCODING 8308
SWIDTH 630 0
DWIDTH 7 0
BBX 3 4 2 4
BITMAP
40
40
A0
E0
ENDCHAR
STARTCHAR 2075
ENCODING 8309
SWIDTH 630 0
DWIDTH 7 0
BBX 3 4 2 4
BITMAP
E0
E0
20
E0
ENDCHAR
STARTCHAR 2076
ENCODING 8310
SWIDTH 630 0
DWIDTH 7 0
BBX 3 4 2 4
BITMAP
E0
E0
A0
E0
ENDCHAR
STARTCHAR 2077
ENCODING 8311
SWIDTH 630 0
DWIDTH 7 0
BBX 3 4 2 4
BITMAP
E0
20
40
80
ENDCHAR
STARTCHAR 2078
ENCODING 8312
SWIDTH 630 0
DWIDTH 7 0
BBX 3 4 2 4
BITMAP
E0
A0
E0
E0
ENDCHAR
STARTCHAR 2079
ENCODING 8313
SWIDTH 630 0
DWIDTH 7 0
BBX 3 4 2 4
BITMAP
E0
A0
E0
C0
ENDCHAR
STARTCHAR 207A
ENCODING 8314
SWIDTH 630 0
DWIDTH 7 0
BBX 3 3 2 5
BITMAP
40
E0
40
ENDCHAR
STARTCHAR 207B
ENCODING 8315
SWIDTH 630 0
DWIDTH 7 0
BBX 3 1 2 5
BITMAP
E0
ENDCHAR
STARTCHAR 207C
ENCODING 8316
SWIDTH 630 0
DWIDTH 7 0
BBX 3 2 2 5
BITMAP
E0
E0
ENDCHAR
STARTCHAR 207D
ENCODING 8317
SWIDTH 630 0
DWIDTH 7 0
BBX 1 6 3 3
BITMAP
80
80
80
80
80
80
ENDCHAR
STARTCHAR 207E
ENCODING 8318
SWIDTH 630 0
DWIDTH 7 0
BBX 1 6 3 3
BITMAP
80
80
80
80
80
80
ENDCHAR
STARTCHAR 207F
ENCODING 8319
SWIDTH 630 0
DWIDTH 7 0
BBX 3 4 2 4
BITMAP
E0
A0
A0
A0
ENDCHAR
STARTCHAR 2080
ENCODING 8320
SWIDTH 630 0
DWIDTH 7 0
BBX 3 4 2 -2
BITMAP
E0
A0
A0
E0
ENDCHAR
STARTCHAR 2081
ENCODING 8321
SWIDTH 630 0
DWIDTH 7 0
BBX 3 4 2 -2
BITMAP
60
A0
20
20
ENDCHAR
STARTCHAR 2082
ENCODING 8322
SWIDTH 630 0
DWIDTH 7 0
BBX 3 4 2 -2
BITMAP
E0
20
40
E0
ENDCHAR
STARTCHAR 2083
ENCODING 8323
SWIDTH 630 0
DWIDTH 7 0
BBX 3 4 2 -2
BITMAP
E0
20
60
E0
ENDCHAR
STARTCHAR 2084
ENCODING 8324
SWIDTH 630 0
DWIDTH 7 0
BBX 3 4 2 -2
BITMAP
40
40
A0
E0
ENDCHAR
STARTCHAR 2085
ENCODING 8325
SWIDTH 630 0
DWIDTH 7 0
BBX 3 4 2 -2
BITMAP
E0
E0
20
E0
ENDCHAR
STARTCHAR 2086
ENCODING 8326
SWIDTH 630 0
DWIDTH 7 0
BBX 3 4 2 -2
BITMAP
E0
E0
A0
E0
ENDCHAR
STARTCHAR 2087
ENCODING 8327
SWIDTH 630 0
DWIDTH 7 0
BBX 3 4 2 -2
BITMAP
E0
20
40
80
ENDCHAR
STARTCHAR 2088
ENCODING 8328
SWIDTH 630 0
DWIDTH 7 0
BBX 3 4 2 -2
BITMAP
E0
A0
E0
E0
ENDCHAR
STARTCHAR 2089
ENCODING 8329
SWIDTH 630 0
DWIDTH 7 0
BBX 3 4 2 -2
BITMAP
E0
A0
E0
C0
ENDCHAR
STARTCHAR 208A
ENCODING 8330
SWIDTH 630 0
DWIDTH 7 0
BBX 3 3 2 -1
BITMAP
40
E0
40
ENDCHAR
STARTCHAR 208B
ENCODING 8331
SWIDTH 630 0
DWIDTH 7 0
BBX 3 1 2 -1
BITMAP
E0
ENDCHAR
STARTCHAR 208C
ENCODING 8332
SWIDTH 630 0
DWIDTH 7 0
BBX 3 2 2 -1
BITMAP
E0
E0
ENDCHAR
STARTCHAR 208D
ENCODING 8333
SWIDTH 630 0
DWIDTH 7 0
BBX 1 6 3 -3
BITMAP
80
80
80
80
80
80
ENDCHAR
STARTCHAR 208E
ENCODING 8334
SWIDTH 630 0
DWIDTH 7 0
BBX 1 6 3 -3
BITMAP
80
80
80
80
80
80
ENDCHAR
STARTCHAR 20AC
ENCODING 8364
SWIDTH 630 0
DWIDTH 7 0
BBX 6 8 0 0
BITMAP
1C
20
20
F8
F8
20
20
1C
ENDCHAR
STARTCHAR 20AF
ENCODING 8367
SWIDTH 630 0
DWIDTH 7 0
BBX 4 10 1 -2
BITMAP
20
50
50
50
E0
50
50
50
60
40
ENDCHAR
STARTCHAR 20B9
ENCODING 8377
SWIDTH 630 0
DWIDTH 7 0
BBX 5 8 1 0
BITMAP
F8
10
F8
10
E0
20
30
18
ENDCHAR
STARTCHAR 20BA
ENCODING 8378
SWIDTH 630 0
DWIDTH 7 0
BBX 5 8 1 0
BITMAP
40
40
70
D0
60
C0
48
70
ENDCHAR
STARTCHAR 20BD
ENCODING 8381
SWIDTH 630 0
DWIDTH 7 0
BBX 5 8 1 0
BITMAP
70
48
48
48
F0
40
F0
40
ENDCHAR
STARTCHAR 2102
ENCODING 8450
SWIDTH 630 0
DWIDTH 7 0
BBX 5 8 1 0
BITMAP
78
C8
C0
C0
C0
C0
C8
78
ENDCHAR
STARTCHAR 210D
ENCODING 8461
SWIDTH 630 0
DWIDTH 7 0
BBX 7 8 0 0
BITMAP
EE
AA
AA
BA
AA
AA
AA
EE
ENDCHAR
STARTCHAR 2113
ENCODING 8467
SWIDTH 630 0
DWIDTH 7 0
BBX 5 9 1 0
BITMAP
30
48
50
50
60
40
C0
40
30
ENDCHAR
STARTCHAR 2115
ENCODING 8469
SWIDTH 630 0
DWIDTH 7 0
BBX 5 8 1 0
BITMAP
C8
A8
A8
D8
D8
B8
A8
B8
ENDCHAR
STARTCHAR 2116
ENCODING 8470
SWIDTH 630 0
DWIDTH 7 0
BBX 7 8 0 0
BITMAP
DC
DA
DA
DA
DC
A0
A0
AE
ENDCHAR
STARTCHAR 2119
ENCODING 8473
SWIDTH 630 0
DWIDTH 7 0
BBX 5 8 1 0
BITMAP
F0
D8
D8
D8
F0
C0
C0
C0
ENDCHAR
STARTCHAR 211A
ENCODING 8474
SWIDTH 630 0
DWIDTH 7 0
BBX 6 10 1 -2
BITMAP
70
D8
D8
D8
D8
D8
D8
70
08
04
ENDCHAR
STARTCHAR 211D
ENCODING 8477
SWIDTH 630 0
DWIDTH 7 0
BBX 6 8 1 0
BITMAP
F0
D8
D8
D8
F0
D0
C8
CC
ENDCHAR
STARTCHAR 2122
ENCODING 8482
SWIDTH 630 0
DWIDTH 7 0
BBX 7 5 0 3
BITMAP
F4
5C
5E
5A
52
ENDCHAR
STARTCHAR 2124
ENCODING 8484
SWIDTH 630 0
DWIDTH 7 0
BBX 5 8 1 0
BITMAP
F8
28
30
50
60
A0
A0
F8
ENDCHAR
STARTCHAR 212E
ENCODING 8494
SWIDTH 630 0
DWIDTH 7 0
BBX 7 8 0 0
BITMAP
78
44
C6
FE
C0
C0
44
38
ENDCHAR
STARTCHAR 2153
ENCODING 8531
SWIDTH 630 0
DWIDTH 7 0
BBX 7 8 0 0
BITMAP
40
C0
42
4C
3C
C2
06
1E
ENDCHAR
STARTCHAR 2154
ENCODING 8532
SWIDTH 630 0
DWIDTH 7 0
BBX 7 8 0 0
BITMAP
C0
20
42
EC
3E
C2
06
0E
ENDCHAR
STARTCHAR 2155
ENCODING 8533
SWIDTH 630 0
DWIDTH 7 0
BBX 7 8 0 0
BITMAP
40
C0
44
58
6E
8E
02
0E
ENDCHAR
STARTCHAR 2156
ENCODING 8534
SWIDTH 630 0
DWIDTH 7 0
BBX 8 8 -1 0
BITMAP
E0
10
21
7E
37
47
01
07
ENDCHAR
STARTCHAR 2157
ENCODING 8535
SWIDTH 630 0
DWIDTH 7 0
BBX 7 8 0 0
BITMAP
E0
20
60
FC
6E
8E
02
0E
ENDCHAR
STARTCHAR 2158
ENCODING 8536
SWIDTH 630 0
DWIDTH 7 0
BBX 7 8 0 0
BITMAP
40
80
E6
38
6E
8E
02
0E
ENDCHAR
STARTCHAR 2159
ENCODING 8537
SWIDTH 630 0
DWIDTH 7 0
BBX 7 8 0 0
BITMAP
40
A0
22
3C
6C
9C
12
0C
ENDCHAR
STARTCHAR 215A
ENCODING 8538
SWIDTH 630 0
DWIDTH 7 0
BBX 7 8 0 0
BITMAP
E0
E0
26
F8
6C
9C
12
0C
ENDCHAR
STARTCHAR 215B
ENCODING 8539
SWIDTH 630 0
DWIDTH 7 0
BBX 7 8 0 0
BITMAP
40
C0
42
4C
7C
8A
16
0E
ENDCHAR
STARTCHAR 215C
ENCODING 8540
SWIDTH 630 0
DWIDTH 7 0
BBX 7 8 0 0
BITMAP
E0
20
60
EC
3E
CA
16
0E
ENDCHAR
STARTCHAR 215D
ENCODING 8541
SWIDTH 630 0
DWIDTH 7 0
BBX 7 8 0 0
BITMAP
E0
E0
24
F8
6C
9A
16
0E
ENDCHAR
STARTCHAR 215E
ENCODING 8542
SWIDTH 630 0
DWIDTH 7 0
BBX 7 8 0 0
BITMAP
70
20
24
58
6C
9A
16
0E
ENDCHAR
STARTCHAR 215F
ENCODING 8543
SWIDTH 630 0
DWIDTH 7 0
BBX 7 6 0 2
BITMAP
40
A0
22
2C
30
C0
ENDCHAR
STARTCHAR 218A
ENCODING 8586
SWIDTH 630 0
DWIDTH 7 0
BBX 5 8 1 0
BITMAP
F8
10
20
40
80
80
88
70
ENDCHAR
STARTCHAR 218B
ENCODING 8587
SWIDTH 630 0
DWIDTH 7 0
BBX 5 8 1 0
BITMAP
70
88
80
80
60
80
80
78
ENDCHAR
STARTCHAR 2190
ENCODING 8592
SWIDTH 630 0
DWIDTH 7 0
BBX 7 7 0 0
BITMAP
10
20
40
FE
40
20
10
ENDCHAR
STARTCHAR 2191
ENCODING 8593
SWIDTH 630 0
DWIDTH 7 0
BBX 7 8 0 0
BITMAP
10
38
54
92
10
10
10
10
ENDCHAR
STARTCHAR 2192
ENCODING 8594
SWIDTH 630 0
DWIDTH 7 0
BBX 7 7 0 0
BITMAP
10
08
0C
FE
0C
08
10
ENDCHAR
STARTCHAR 2193
ENCODING 8595
SWIDTH 630 0
DWIDTH 7 0
BBX 7 8 0 -1
BITMAP
10
10
10
10
92
54
38
10
ENDCHAR
STARTCHAR 2194
ENCODING 8596
SWIDTH 630 0
DWIDTH 7 0
BBX 9 7 -1 0
BITMAP
3400
2200
4100
FF80
4100
2200
1400
ENDCHAR
STARTCHAR 2195
ENCODING 8597
SWIDTH 630 0
DWIDTH 7 0
BBX 7 12 0 -2
BITMAP
10
38
54
92
10
10
10
10
92
D4
38
10
ENDCHAR
STARTCHAR 2196
ENCODING 8598
SWIDTH 630 0
DWIDTH 7 0
BBX 6 6 0 1
BITMAP
78
60
70
98
8C
04
ENDCHAR
STARTCHAR 2197
ENCODING 8599
SWIDTH 630 0
DWIDTH 7 0
BBX 6 6 0 1
BITMAP
7C
0C
14
24
44
C0
ENDCHAR
STARTCHAR 2198
ENCODING 8600
SWIDTH 630 0
DWIDTH 7 0
BBX 6 6 0 1
BITMAP
40
C4
24
14
0C
7C
ENDCHAR
STARTCHAR 2199
ENCODING 8601
SWIDTH 630 0
DWIDTH 7 0
BBX 6 6 0 1
BITMAP
04
8C
98
70
60
78
ENDCHAR
STARTCHAR 21A9
ENCODING 8617
SWIDTH 630 0
DWIDTH 7 0
BBX 7 7 0 0
BITMAP
1C
04
22
24
FC
20
10
ENDCHAR
STARTCHAR 21AA
ENCODING 8618
SWIDTH 630 0
DWIDTH 7 0
BBX 7 7 0 0
BITMAP
60
80
90
88
7E
08
10
ENDCHAR
STARTCHAR 21B0
ENCODING 8624
SWIDTH 630 0
DWIDTH 7 0
BBX 6 8 0 0
BITMAP
10
20
FC
24
14
04
04
04
ENDCHAR
STARTCHAR 21B1
ENCODING 8625
SWIDTH 630 0
DWIDTH 7 0
BBX 6 8 1 0
BITMAP
20
10
FC
90
A0
80
80
80
ENDCHAR
STARTCHAR 21B2
ENCODING 8626
SWIDTH 630 0
DWIDTH 7 0
BBX 6 8 0 0
BITMAP
04
04
04
14
24
FC
20
10
ENDCHAR
STARTCHAR 21B3
ENCODING 8627
SWIDTH 630 0
DWIDTH 7 0
BBX 6 8 1 0
BITMAP
80
80
80
A0
90
FC
10
20
ENDCHAR
STARTCHAR 21DE
ENCODING 8670
SWIDTH 630 0
DWIDTH 7 0
BBX 5 10 1 -1
BITMAP
20
70
F8
20
20
F8
20
F8
20
20
ENDCHAR
STARTCHAR 21DF
ENCODING 8671
SWIDTH 630 0
DWIDTH 7 0
BBX 5 10 1 -2
BITMAP
20
20
F8
20
F8
20
20
F8
70
20
ENDCHAR
STARTCHAR 21E4
ENCODING 8676
SWIDTH 630 0
DWIDTH 7 0
BBX 7 6 0 1
BITMAP
80
90
90
FE
90
88
ENDCHAR
STARTCHAR 21E5
ENCODING 8677
SWIDTH 630 0
DWIDTH 7 0
BBX 7 6 0 1
BITMAP
02
22
12
FA
12
22
ENDCHAR
STARTCHAR 21E6
ENCODING 8678
SWIDTH 630 0
DWIDTH 7 0
BBX 7 7 0 0
BITMAP
20
60
BE
82
BE
60
20
ENDCHAR
STARTCHAR 21E7
ENCODING 8679
SWIDTH 630 0
DWIDTH 7 0
BBX 7 9 0 0
BITMAP
38
44
CE
28
28
28
28
28
38
ENDCHAR
STARTCHAR 21E8
ENCODING 8680
SWIDTH 630 0
DWIDTH 7 0
BBX 7 7 0 0
BITMAP
08
08
F4
82
F4
08
08
ENDCHAR
STARTCHAR 21E9
ENCODING 8681
SWIDTH 630 0
DWIDTH 7 0
BBX 7 10 0 -1
BITMAP
38
28
28
28
28
28
CE
44
28
10
ENDCHAR
STARTCHAR 21EA
ENCODING 8682
SWIDTH 630 0
DWIDTH 7 0
BBX 7 9 0 0
BITMAP
38
44
CE
28
28
38
00
38
38
ENDCHAR
STARTCHAR 2200
ENCODING 8704
SWIDTH 630 0
DWIDTH 7 0
BBX 7 8 0 0
BITMAP
86
44
7C
48
28
28
28
10
ENDCHAR
STARTCHAR 2202
ENCODING 8706
SWIDTH 630 0
DWIDTH 7 0
BBX 5 8 1 0
BITMAP
40
30
10
68
98
88
98
70
ENDCHAR
STARTCHAR 2203
ENCODING 8707
SWIDTH 630 0
DWIDTH 7 0
BBX 4 8 1 0
BITMAP
F0
10
10
10
70
10
10
F0
ENDCHAR
STARTCHAR 2204
ENCODING 8708
SWIDTH 630 0
DWIDTH 7 0
BBX 4 11 1 -1
BITMAP
10
10
F0
30
30
70
50
50
50
F0
C0
ENDCHAR
STARTCHAR 2205
ENCODING 8709
SWIDTH 630 0
DWIDTH 7 0
BBX 7 8 0 -1
BITMAP
08
38
54
96
96
64
38
20
ENDCHAR
STARTCHAR 2206
ENCODING 8710
SWIDTH 630 0
DWIDTH 7 0
BBX 7 8 0 0
BITMAP
10
28
28
28
48
44
44
FE
ENDCHAR
STARTCHAR 2207
ENCODING 8711
SWIDTH 630 0
DWIDTH 7 0
BBX 7 8 0 0
BITMAP
FE
44
44
48
28
28
28
10
ENDCHAR
STARTCHAR 2208
ENCODING 8712
SWIDTH 630 0
DWIDTH 7 0
BBX 6 5 0 1
BITMAP
7C
40
FC
80
7C
ENDCHAR
STARTCHAR 2209
ENCODING 8713
SWIDTH 630 0
DWIDTH 7 0
BBX 6 9 0 -1
BITMAP
04
04
7C
88
FC
A0
7C
40
80
ENDCHAR
STARTCHAR 220A
ENCODING 8714
SWIDTH 630 0
DWIDTH 7 0
BBX 4 4 1 1
BITMAP
70
70
C0
70
ENDCHAR
STARTCHAR 220B
ENCODING 8715
SWIDTH 630 0
DWIDTH 7 0
BBX 6 5 1 1
BITMAP
F0
08
FC
08
F8
ENDCHAR
STARTCHAR 220C
ENCODING 8716
SWIDTH 630 0
DWIDTH 7 0
BBX 7 9 0 -1
BITMAP
04
04
78
0C
7E
24
78
40
80
ENDCHAR
STARTCHAR 220D
ENCODING 8717
SWIDTH 630 0
DWIDTH 7 0
BBX 3 4 2 1
BITMAP
E0
E0
20
E0
ENDCHAR
STARTCHAR 220E
ENCODING 8718
SWIDTH 630 0
DWIDTH 7 0
BBX 3 6 2 0
BITMAP
E0
E0
E0
E0
E0
E0
ENDCHAR
STARTCHAR 220F
ENCODING 8719
SWIDTH 630 0
DWIDTH 7 0
BBX 7 10 0 -2
BITMAP
FE
44
44
44
44
44
44
44
44
44
ENDCHAR
STARTCHAR 2211
ENCODING 8721
SWIDTH 630 0
DWIDTH 7 0
BBX 5 11 1 -1
BITMAP
F8
80
40
60
20
10
20
20
40
80
F8
ENDCHAR
STARTCHAR 2212
ENCODING 8722
SWIDTH 630 0
DWIDTH 7 0
BBX 5 1 1 3
BITMAP
F8
ENDCHAR
STARTCHAR 2215
ENCODING 8725
SWIDTH 630 0
DWIDTH 7 0
BBX 7 4 0 2
BITMAP
02
0C
30
C0
ENDCHAR
STARTCHAR 2217
ENCODING 8727
SWIDTH 630 0
DWIDTH 7 0
BBX 5 6 1 1
BITMAP
20
A8
70
70
A8
20
ENDCHAR
STARTCHAR 2219
ENCODING 8729
SWIDTH 630 0
DWIDTH 7 0
BBX 2 2 2 3
BITMAP
40
C0
ENDCHAR
STARTCHAR 221A
ENCODING 8730
SWIDTH 630 0
DWIDTH 7 0
BBX 8 10 0 0
BITMAP
07
04
08
08
08
C8
50
50
30
20
ENDCHAR
STARTCHAR 221E
ENCODING 8734
SWIDTH 630 0
DWIDTH 7 0
BBX 7 5 0 1
BITMAP
EC
B2
92
B2
EC
ENDCHAR
STARTCHAR 2227
ENCODING 8743
SWIDTH 630 0
DWIDTH 7 0
BBX 5 6 1 0
BITMAP
20
60
50
50
88
88
ENDCHAR
STARTCHAR 2228
ENCODING 8744
SWIDTH 630 0
DWIDTH 7 0
BBX 5 6 1 0
BITMAP
88
88
50
50
60
20
ENDCHAR
STARTCHAR 2229
ENCODING 8745
SWIDTH 630 0
DWIDTH 7 0
BBX 5 6 1 1
BITMAP
70
88
88
88
88
88
ENDCHAR
STARTCHAR 222A
ENCODING 8746
SWIDTH 630 0
DWIDTH 7 0
BBX 5 6 1 0
BITMAP
88
88
88
88
88
70
ENDCHAR
STARTCHAR 222B
ENCODING 8747
SWIDTH 630 0
DWIDTH 7 0
BBX 5 12 1 -3
BITMAP
38
20
20
20
20
20
20
20
20
20
20
C0
ENDCHAR
STARTCHAR 2234
ENCODING 8756
SWIDTH 630 0
DWIDTH 7 0
BBX 5 5 1 2
BITMAP
20
20
00
88
98
ENDCHAR
STARTCHAR 2235
ENCODING 8757
SWIDTH 630 0
DWIDTH 7 0
BBX 5 5 1 1
BITMAP
98
88
00
20
20
ENDCHAR
STARTCHAR 2236
ENCODING 8758
SWIDTH 630 0
DWIDTH 7 0
BBX 2 6 2 1
BITMAP
40
C0
00
00
40
C0
ENDCHAR
STARTCHAR 2237
ENCODING 8759
SWIDTH 630 0
DWIDTH 7 0
BBX 5 5 1 2
BITMAP
88
98
00
88
98
ENDCHAR
STARTCHAR 2241
ENCODING 8769
SWIDTH 630 0
DWIDTH 7 0
BBX 6 6 0 1
BITMAP
08
10
74
DC
20
20
ENDCHAR
STARTCHAR 2242
ENCODING 8770
SWIDTH 630 0
DWIDTH 7 0
BBX 5 3 1 2
BITMAP
F8
68
B0
ENDCHAR
STARTCHAR 2243
ENCODING 8771
SWIDTH 630 0
DWIDTH 7 0
BBX 5 3 1 2
BITMAP
F8
00
F8
ENDCHAR
STARTCHAR 2244
ENCODING 8772
SWIDTH 630 0
DWIDTH 7 0
BBX 5 9 1 -1
BITMAP
10
10
20
F8
20
F8
40
40
40
ENDCHAR
STARTCHAR 2245
ENCODING 8773
SWIDTH 630 0
DWIDTH 7 0
BBX 5 6 1 1
BITMAP
68
B0
00
F8
00
F8
ENDCHAR
STARTCHAR 2246
ENCODING 8774
SWIDTH 630 0
DWIDTH 7 0
BBX 5 7 1 0
BITMAP
68
B0
20
F8
20
F8
40
ENDCHAR
STARTCHAR 2247
ENCODING 8775
SWIDTH 630 0
DWIDTH 7 0
BBX 5 9 1 -1
BITMAP
10
78
B0
20
F8
20
F8
40
40
ENDCHAR
STARTCHAR 2248
ENCODING 8776
SWIDTH 630 0
DWIDTH 7 0
BBX 5 4 1 2
BITMAP
68
B0
68
B0
ENDCHAR
STARTCHAR 2249
ENCODING 8777
SWIDTH 630 0
DWIDTH 7 0
BBX 5 10 1 -1
BITMAP
10
10
10
68
B0
68
B0
40
40
40
ENDCHAR
STARTCHAR 224A
ENCODING 8778
SWIDTH 630 0
DWIDTH 7 0
BBX 5 6 1 1
BITMAP
68
B0
00
F8
00
F8
ENDCHAR
STARTCHAR 224B
ENCODING 8779
SWIDTH 630 0
DWIDTH 7 0
BBX 5 6 1 1
BITMAP
68
B0
68
B0
68
B0
ENDCHAR
STARTCHAR 2260
ENCODING 8800
SWIDTH 630 0
DWIDTH 7 0
BBX 5 7 1 0
BITMAP
08
10
F8
20
F8
40
80
ENDCHAR
STARTCHAR 2261
ENCODING 8801
SWIDTH 630 0
DWIDTH 7 0
BBX 5 5 1 1
BITMAP
F8
00
F8
00
F8
ENDCHAR
STARTCHAR 2262
ENCODING 8802
SWIDTH 630 0
DWIDTH 7 0
BBX 5 9 1 -1
BITMAP
10
10
F8
20
F8
20
F8
40
40
ENDCHAR
STARTCHAR 2264
ENCODING 8804
SWIDTH 630 0
DWIDTH 7 0
BBX 5 6 1 0
BITMAP
38
C0
C0
38
00
F0
ENDCHAR
STARTCHAR 2265
ENCODING 8805
SWIDTH 630 0
DWIDTH 7 0
BBX 5 6 1 0
BITMAP
C0
38
18
E0
00
F8
ENDCHAR
STARTCHAR 2282
ENCODING 8834
SWIDTH 630 0
DWIDTH 7 0
BBX 6 5 0 1
BITMAP
7C
40
80
80
7C
ENDCHAR
STARTCHAR 2283
ENCODING 8835
SWIDTH 630 0
DWIDTH 7 0
BBX 6 5 1 1
BITMAP
F0
08
04
08
F8
ENDCHAR
STARTCHAR 2284
ENCODING 8836
SWIDTH 630 0
DWIDTH 7 0
BBX 6 9 0 -1
BITMAP
04
04
7C
C8
90
60
7C
40
80
ENDCHAR
STARTCHAR 2285
ENCODING 8837
SWIDTH 630 0
DWIDTH 7 0
BBX 7 9 0 -1
BITMAP
04
04
78
0C
12
24
78
40
80
ENDCHAR
STARTCHAR 2286
ENCODING 8838
SWIDTH 630 0
DWIDTH 7 0
BBX 6 7 0 0
BITMAP
3C
40
80
80
40
3C
7C
ENDCHAR
STARTCHAR 2287
ENCODING 8839
SWIDTH 630 0
DWIDTH 7 0
BBX 6 7 1 0
BITMAP
F0
08
04
04
08
F0
F8
ENDCHAR
STARTCHAR 2288
ENCODING 8840
SWIDTH 630 0
DWIDTH 7 0
BBX 6 10 0 -1
BITMAP
08
08
7C
50
90
90
50
7C
7C
20
ENDCHAR
STARTCHAR 2289
ENCODING 8841
SWIDTH 630 0
DWIDTH 7 0
BBX 6 10 1 -1
BITMAP
10
10
F0
28
24
24
28
F0
F8
40
ENDCHAR
STARTCHAR 228A
ENCODING 8842
SWIDTH 630 0
DWIDTH 7 0
BBX 6 8 0 -1
BITMAP
7C
80
80
80
7C
10
7C
20
ENDCHAR
STARTCHAR 228B
ENCODING 8843
SWIDTH 630 0
DWIDTH 7 0
BBX 6 8 1 -1
BITMAP
F0
08
04
08
F0
20
F8
40
ENDCHAR
STARTCHAR 229C
ENCODING 8860
SWIDTH 630 0
DWIDTH 7 0
BBX 7 8 0 0
BITMAP
38
44
82
BA
BA
82
44
38
ENDCHAR
STARTCHAR 22A2
ENCODING 8866
SWIDTH 630 0
DWIDTH 7 0
BBX 5 6 1 1
BITMAP
80
80
80
F8
80
80
ENDCHAR
STARTCHAR 22A3
ENCODING 8867
SWIDTH 630 0
DWIDTH 7 0
BBX 5 6 1 1
BITMAP
08
08
08
F8
08
08
ENDCHAR
STARTCHAR 22A4
ENCODING 8868
SWIDTH 630 0
DWIDTH 7 0
BBX 6 5 0 1
BITMAP
FC
10
10
10
10
ENDCHAR
STARTCHAR 22A5
ENCODING 8869
SWIDTH 630 0
DWIDTH 7 0
BBX 6 5 0 1
BITMAP
10
10
10
10
FC
ENDCHAR
STARTCHAR 22A6
ENCODING 8870
SWIDTH 630 0
DWIDTH 7 0
BBX 3 6 2 1
BITMAP
80
80
80
E0
80
80
ENDCHAR
STARTCHAR 22A7
ENCODING 8871
SWIDTH 630 0
DWIDTH 7 0
BBX 3 6 2 1
BITMAP
80
80
E0
80
E0
80
ENDCHAR
STARTCHAR 22A8
ENCODING 8872
SWIDTH 630 0
DWIDTH 7 0
BBX 5 6 1 1
BITMAP
80
80
F8
80
F8
80
ENDCHAR
STARTCHAR 22A9
ENCODING 8873
SWIDTH 630 0
DWIDTH 7 0
BBX 5 6 1 1
BITMAP
A0
A0
A0
B8
A0
A0
ENDCHAR
STARTCHAR 22AA
ENCODING 8874
SWIDTH 630 0
DWIDTH 7 0
BBX 7 6 0 1
BITMAP
A8
A8
A8
AE
A8
A8
ENDCHAR
STARTCHAR 22AB
ENCODING 8875
SWIDTH 630 0
DWIDTH 7 0
BBX 7 6 0 1
BITMAP
A0
A0
BE
A0
BE
A0
ENDCHAR
STARTCHAR 22AC
ENCODING 8876
SWIDTH 630 0
DWIDTH 7 0
BBX 5 9 1 -1
BITMAP
10
90
90
A0
F8
A0
A0
40
40
ENDCHAR
STARTCHAR 22AD
ENCODING 8877
SWIDTH 630 0
DWIDTH 7 0
BBX 5 9 1 -1
BITMAP
10
90
90
F8
A0
F8
C0
40
40
ENDCHAR
STARTCHAR 22AE
ENCODING 8878
SWIDTH 630 0
DWIDTH 7 0
BBX 5 9 1 -1
BITMAP
08
A8
A8
A8
B8
B0
B0
10
20
ENDCHAR
STARTCHAR 22AF
ENCODING 8879
SWIDTH 630 0
DWIDTH 7 0
BBX 7 9 0 -1
BITMAP
04
A4
A4
BE
A8
BE
A8
10
10
ENDCHAR
STARTCHAR 2300
ENCODING 8960
SWIDTH 630 0
DWIDTH 7 0
BBX 7 5 0 1
BITMAP
3E
4C
54
64
F8
ENDCHAR
STARTCHAR 2302
ENCODING 8962
SWIDTH 630 0
DWIDTH 7 0
BBX 6 6 0 0
BITMAP
10
68
84
84
84
FC
ENDCHAR
STARTCHAR 2303
ENCODING 8963
SWIDTH 630 0
DWIDTH 7 0
BBX 7 4 0 4
BITMAP
10
38
4C
86
ENDCHAR
STARTCHAR 2304
ENCODING 8964
SWIDTH 630 0
DWIDTH 7 0
BBX 7 3 0 4
BITMAP
C6
68
30
ENDCHAR
STARTCHAR 2305
ENCODING 8965
SWIDTH 630 0
DWIDTH 7 0
BBX 7 5 0 3
BITMAP
FE
00
10
68
C6
ENDCHAR
STARTCHAR 2306
ENCODING 8966
SWIDTH 630 0
DWIDTH 7 0
BBX 7 6 0 2
BITMAP
FE
00
FE
38
4C
86
ENDCHAR
STARTCHAR 2310
ENCODING 8976
SWIDTH 630 0
DWIDTH 7 0
BBX 5 2 1 2
BITMAP
F8
80
ENDCHAR
STARTCHAR 2318
ENCODING 8984
SWIDTH 630 0
DWIDTH 7 0
BBX 7 7 0 0
BITMAP
CE
AA
FE
28
FE
AA
CE
ENDCHAR
STARTCHAR 2320
ENCODING 8992
SWIDTH 630 0
DWIDTH 7 0
BBX 3 15 3 -5
BITMAP
E0
80
80
80
80
80
80
80
80
80
80
80
80
80
80
ENDCHAR
STARTCHAR 2321
ENCODING 8993
SWIDTH 630 0
DWIDTH 7 0
BBX 3 14 1 -3
BITMAP
20
20
20
20
20
20
20
20
20
20
20
20
20
C0
ENDCHAR
STARTCHAR 2324
ENCODING 8996
SWIDTH 630 0
DWIDTH 7 0
BBX 7 3 0 5
BITMAP
D6
28
4C
ENDCHAR
STARTCHAR 2325
ENCODING 8997
SWIDTH 630 0
DWIDTH 7 0
BBX 7 8 0 0
BITMAP
EE
20
20
10
10
10
08
0E
ENDCHAR
STARTCHAR 2326
ENCODING 8998
SWIDTH 630 0
DWIDTH 7 0
BBX 9 8 -1 0
BITMAP
7C00
FE00
9300
C780
EF80
9300
FE00
FC00
ENDCHAR
STARTCHAR 2327
ENCODING 8999
SWIDTH 630 0
DWIDTH 7 0
BBX 9 8 -1 0
BITMAP
7F00
FF80
C980
E380
F780
CB80
FF80
FF80
ENDCHAR
STARTCHAR 2328
ENCODING 9000
SWIDTH 630 0
DWIDTH 7 0
BBX 9 7 -1 0
BITMAP
FF80
AA80
FE80
AA80
FF80
C180
FF80
ENDCHAR
STARTCHAR 232B
ENCODING 9003
SWIDTH 630 0
DWIDTH 7 0
BBX 10 8 -2 0
BITMAP
0F80
1FC0
36C0
78C0
FDC0
32C0
1FC0
0FC0
ENDCHAR
STARTCHAR 2387
ENCODING 9095
SWIDTH 630 0
DWIDTH 7 0
BBX 7 8 0 0
BITMAP
0E
08
10
10
10
20
20
EE
ENDCHAR
STARTCHAR 2388
ENCODING 9096
SWIDTH 630 0
DWIDTH 7 0
BBX 7 9 0 0
BITMAP
10
10
FE
D4
BA
BA
D6
38
10
ENDCHAR
STARTCHAR 238B
ENCODING 9099
SWIDTH 630 0
DWIDTH 7 0
BBX 6 7 0 1
BITMAP
E0
C8
C4
A4
94
44
38
ENDCHAR
STARTCHAR 239B
ENCODING 9115
SWIDTH 630 0
DWIDTH 7 0
BBX 3 13 3 -3
BITMAP
20
40
40
80
80
80
80
80
80
80
80
80
80
ENDCHAR
STARTCHAR 239C
ENCODING 9116
SWIDTH 630 0
DWIDTH 7 0
BBX 1 17 3 -3
BITMAP
80
80
80
80
80
80
80
80
80
80
80
80
80
80
80
80
80
ENDCHAR
STARTCHAR 239D
ENCODING 9117
SWIDTH 630 0
DWIDTH 7 0
BBX 3 15 3 -2
BITMAP
80
80
80
80
80
80
80
80
80
80
80
80
40
20
20
ENDCHAR
STARTCHAR 239E
ENCODING 9118
SWIDTH 630 0
DWIDTH 7 0
BBX 4 13 0 -3
BITMAP
C0
60
20
10
10
10
10
10
10
10
10
10
10
ENDCHAR
STARTCHAR 239F
ENCODING 9119
SWIDTH 630 0
DWIDTH 7 0
BBX 1 17 3 -3
BITMAP
80
80
80
80
80
80
80
80
80
80
80
80
80
80
80
80
80
ENDCHAR
STARTCHAR 23A0
ENCODING 9120
SWIDTH 630 0
DWIDTH 7 0
BBX 4 15 0 -2
BITMAP
10
10
10
10
10
10
10
10
10
10
10
20
20
40
80
ENDCHAR
STARTCHAR 23A1
ENCODING 9121
SWIDTH 630 0
DWIDTH 7 0
BBX 3 13 3 -4
BITMAP
E0
80
80
80
80
80
80
80
80
80
80
80
80
ENDCHAR
STARTCHAR 23A2
ENCODING 9122
SWIDTH 630 0
DWIDTH 7 0
BBX 1 17 3 -3
BITMAP
80
80
80
80
80
80
80
80
80
80
80
80
80
80
80
80
80
ENDCHAR
STARTCHAR 23A3
ENCODING 9123
SWIDTH 630 0
DWIDTH 7 0
BBX 3 15 3 -1
BITMAP
80
80
80
80
80
80
80
80
80
80
80
80
80
80
E0
ENDCHAR
STARTCHAR 23A4
ENCODING 9124
SWIDTH 630 0
DWIDTH 7 0
BBX 3 13 1 -4
BITMAP
E0
20
20
20
20
20
20
20
20
20
20
20
20
ENDCHAR
STARTCHAR 23A5
ENCODING 9125
SWIDTH 630 0
DWIDTH 7 0
BBX 1 17 3 -3
BITMAP
80
80
80
80
80
80
80
80
80
80
80
80
80
80
80
80
80
ENDCHAR
STARTCHAR 23A6
ENCODING 9126
SWIDTH 630 0
DWIDTH 7 0
BBX 3 15 1 -1
BITMAP
20
20
20
20
20
20
20
20
20
20
20
20
20
20
E0
ENDCHAR
STARTCHAR 23A7
ENCODING 9127
SWIDTH 630 0
DWIDTH 7 0
BBX 2 13 3 -3
BITMAP
C0
80
80
80
80
80
80
80
80
80
80
80
80
ENDCHAR
STARTCHAR 23A8
ENCODING 9128
SWIDTH 630 0
DWIDTH 7 0
BBX 3 17 1 -4
BITMAP
20
20
20
20
20
20
20
20
20
C0
20
20
20
20
20
20
20
ENDCHAR
STARTCHAR 23A9
ENCODING 9129
SWIDTH 630 0
DWIDTH 7 0
BBX 2 15 3 -2
BITMAP
80
80
80
80
80
80
80
80
80
80
80
80
80
80
C0
ENDCHAR
STARTCHAR 23AA
ENCODING 9130
SWIDTH 630 0
DWIDTH 7 0
BBX 1 17 3 -3
BITMAP
80
80
80
80
80
80
80
80
80
80
80
80
80
80
80
80
80
ENDCHAR
STARTCHAR 23AB
ENCODING 9131
SWIDTH 630 0
DWIDTH 7 0
BBX 2 13 2 -3
BITMAP
80
40
40
40
40
40
40
40
40
40
40
40
40
ENDCHAR
STARTCHAR 23AC
ENCODING 9132
SWIDTH 630 0
DWIDTH 7 0
BBX 3 17 3 -4
BITMAP
80
80
80
80
80
80
80
80
80
60
80
80
80
80
80
80
80
ENDCHAR
STARTCHAR 23AD
ENCODING 9133
SWIDTH 630 0
DWIDTH 7 0
BBX 2 15 2 -2
BITMAP
40
40
40
40
40
40
40
40
40
40
40
40
40
40
80
ENDCHAR
STARTCHAR 23CE
ENCODING 9166
SWIDTH 630 0
DWIDTH 7 0
BBX 7 9 0 0
BITMAP
0E
0A
2A
6A
5A
82
9E
60
20
ENDCHAR
STARTCHAR 23CF
ENCODING 9167
SWIDTH 630 0
DWIDTH 7 0
BBX 7 7 0 0
BITMAP
10
28
44
FE
00
FE
FE
ENDCHAR
STARTCHAR 2400
ENCODING 9216
SWIDTH 630 0
DWIDTH 7 0
BBX 7 3 0 3
BITMAP
E8
E8
FE
ENDCHAR
STARTCHAR 2401
ENCODING 9217
SWIDTH 630 0
DWIDTH 7 0
BBX 7 3 0 3
BITMAP
56
AE
FA
ENDCHAR
STARTCHAR 2402
ENCODING 9218
SWIDTH 630 0
DWIDTH 7 0
BBX 7 3 0 3
BITMAP
76
94
D6
ENDCHAR
STARTCHAR 2403
ENCODING 9219
SWIDTH 630 0
DWIDTH 7 0
BBX 7 3 0 3
BITMAP
F6
94
D6
ENDCHAR
STARTCHAR 2404
ENCODING 9220
SWIDTH 630 0
DWIDTH 7 0
BBX 7 3 0 3
BITMAP
D6
AC
FC
ENDCHAR
STARTCHAR 2405
ENCODING 9221
SWIDTH 630 0
DWIDTH 7 0
BBX 7 4 0 2
BITMAP
EC
AA
F4
02
ENDCHAR
STARTCHAR 2406
ENCODING 9222
SWIDTH 630 0
DWIDTH 7 0
BBX 7 3 0 3
BITMAP
56
64
F6
ENDCHAR
STARTCHAR 2407
ENCODING 9223
SWIDTH 630 0
DWIDTH 7 0
BBX 7 3 0 3
BITMAP
D4
A4
F6
ENDCHAR
STARTCHAR 2408
ENCODING 9224
SWIDTH 630 0
DWIDTH 7 0
BBX 4 3 1 3
BITMAP
D0
D0
F0
ENDCHAR
STARTCHAR 2409
ENCODING 9225
SWIDTH 630 0
DWIDTH 7 0
BBX 5 3 1 3
BITMAP
D8
D0
D0
ENDCHAR
STARTCHAR 240A
ENCODING 9226
SWIDTH 630 0
DWIDTH 7 0
BBX 3 3 2 3
BITMAP
A0
A0
A0
ENDCHAR
STARTCHAR 240B
ENCODING 9227
SWIDTH 630 0
DWIDTH 7 0
BBX 5 3 1 3
BITMAP
B8
D0
50
ENDCHAR
STARTCHAR 240C
ENCODING 9228
SWIDTH 630 0
DWIDTH 7 0
BBX 3 3 2 3
BITMAP
A0
A0
A0
ENDCHAR
STARTCHAR 240D
ENCODING 9229
SWIDTH 630 0
DWIDTH 7 0
BBX 5 3 1 3
BITMAP
50
B8
E8
ENDCHAR
STARTCHAR 240E
ENCODING 9230
SWIDTH 630 0
DWIDTH 7 0
BBX 5 3 1 3
BITMAP
50
E8
F8
ENDCHAR
STARTCHAR 240F
ENCODING 9231
SWIDTH 630 0
DWIDTH 7 0
BBX 4 3 1 3
BITMAP
50
D0
D0
ENDCHAR
STARTCHAR 2410
ENCODING 9232
SWIDTH 630 0
DWIDTH 7 0
BBX 7 3 0 3
BITMAP
E6
E4
F6
ENDCHAR
STARTCHAR 2411
ENCODING 9233
SWIDTH 630 0
DWIDTH 7 0
BBX 7 3 0 3
BITMAP
D4
E4
F6
ENDCHAR
STARTCHAR 2412
ENCODING 9234
SWIDTH 630 0
DWIDTH 7 0
BBX 6 3 0 3
BITMAP
D4
E4
F4
ENDCHAR
STARTCHAR 2413
ENCODING 9235
SWIDTH 630 0
DWIDTH 7 0
BBX 6 3 0 3
BITMAP
D4
E4
FC
ENDCHAR
STARTCHAR 2414
ENCODING 9236
SWIDTH 630 0
DWIDTH 7 0
BBX 7 3 0 3
BITMAP
D4
E4
F2
ENDCHAR
STARTCHAR 2415
ENCODING 9237
SWIDTH 630 0
DWIDTH 7 0
BBX 7 3 0 3
BITMAP
D6
F4
EA
ENDCHAR
STARTCHAR 2416
ENCODING 9238
SWIDTH 630 0
DWIDTH 7 0
BBX 7 3 0 3
BITMAP
6A
96
D6
ENDCHAR
STARTCHAR 2417
ENCODING 9239
SWIDTH 630 0
DWIDTH 7 0
BBX 7 3 0 3
BITMAP
F4
94
D6
ENDCHAR
STARTCHAR 2418
ENCODING 9240
SWIDTH 630 0
DWIDTH 7 0
BBX 7 3 0 3
BITMAP
56
B6
EA
ENDCHAR
STARTCHAR 2419
ENCODING 9241
SWIDTH 630 0
DWIDTH 7 0
BBX 4 3 2 3
BITMAP
D0
E0
B0
ENDCHAR
STARTCHAR 241A
ENCODING 9242
SWIDTH 630 0
DWIDTH 7 0
BBX 7 3 0 3
BITMAP
6C
AC
FE
ENDCHAR
STARTCHAR 241B
ENCODING 9243
SWIDTH 630 0
DWIDTH 7 0
BBX 7 3 0 3
BITMAP
D6
98
FE
ENDCHAR
STARTCHAR 241C
ENCODING 9244
SWIDTH 630 0
DWIDTH 7 0
BBX 3 3 2 3
BITMAP
A0
A0
E0
ENDCHAR
STARTCHAR 241D
ENCODING 9245
SWIDTH 630 0
DWIDTH 7 0
BBX 4 3 1 3
BITMAP
50
90
F0
ENDCHAR
STARTCHAR 241E
ENCODING 9246
SWIDTH 630 0
DWIDTH 7 0
BBX 3 3 2 3
BITMAP
A0
A0
E0
ENDCHAR
STARTCHAR 241F
ENCODING 9247
SWIDTH 630 0
DWIDTH 7 0
BBX 4 3 1 3
BITMAP
D0
D0
F0
ENDCHAR
STARTCHAR 2420
ENCODING 9248
SWIDTH 630 0
DWIDTH 7 0
BBX 5 3 1 3
BITMAP
50
D8
D0
ENDCHAR
STARTCHAR 2421
ENCODING 9249
SWIDTH 630 0
DWIDTH 7 0
BBX 7 3 0 3
BITMAP
D4
E4
F6
ENDCHAR
STARTCHAR 2422
ENCODING 9250
SWIDTH 630 0
DWIDTH 7 0
BBX 6 8 0 0
BITMAP
50
60
F8
44
44
44
44
78
ENDCHAR
STARTCHAR 2423
ENCODING 9251
SWIDTH 630 0
DWIDTH 7 0
BBX 5 2 1 -2
BITMAP
88
F8
ENDCHAR
STARTCHAR 2424
ENCODING 9252
SWIDTH 630 0
DWIDTH 7 0
BBX 4 3 1 3
BITMAP
D0
D0
D0
ENDCHAR
STARTCHAR 2425
ENCODING 9253
SWIDTH 630 0
DWIDTH 7 0
BBX 7 8 0 0
BITMAP
0E
16
2A
34
58
A8
D0
E0
ENDCHAR
STARTCHAR 2426
ENCODING 9254
SWIDTH 630 0
DWIDTH 7 0
BBX 5 8 1 0
BITMAP
70
88
80
40
20
20
00
20
ENDCHAR
STARTCHAR 2500
ENCODING 9472
SWIDTH 630 0
DWIDTH 7 0
BBX 7 1 0 3
BITMAP
FE
ENDCHAR
STARTCHAR 2501
ENCODING 9473
SWIDTH 630 0
DWIDTH 7 0
BBX 7 3 0 3
BITMAP
FE
FE
FE
ENDCHAR
STARTCHAR 2502
ENCODING 9474
SWIDTH 630 0
DWIDTH 7 0
BBX 1 17 3 -6
BITMAP
80
80
80
80
80
80
80
80
80
80
80
80
80
80
80
80
80
ENDCHAR
STARTCHAR 2503
ENCODING 9475
SWIDTH 630 0
DWIDTH 7 0
BBX 3 17 2 -6
BITMAP
E0
E0
E0
E0
E0
E0
E0
E0
E0
E0
E0
E0
E0
E0
E0
E0
E0
ENDCHAR
STARTCHAR 2504
ENCODING 9476
SWIDTH 630 0
DWIDTH 7 0
BBX 6 1 0 3
BITMAP
D4
ENDCHAR
STARTCHAR 2505
ENCODING 9477
SWIDTH 630 0
DWIDTH 7 0
BBX 6 3 0 3
BITMAP
D4
D4
D4
ENDCHAR
STARTCHAR 2506
ENCODING 9478
SWIDTH 630 0
DWIDTH 7 0
BBX 1 16 3 -3
BITMAP
80
80
80
80
80
00
80
80
80
80
80
80
80
80
80
80
ENDCHAR
STARTCHAR 2507
ENCODING 9479
SWIDTH 630 0
DWIDTH 7 0
BBX 3 16 2 -3
BITMAP
E0
E0
E0
E0
E0
00
E0
E0
E0
E0
E0
E0
E0
E0
E0
E0
ENDCHAR
STARTCHAR 2508
ENCODING 9480
SWIDTH 630 0
DWIDTH 7 0
BBX 6 1 0 3
BITMAP
AC
ENDCHAR
STARTCHAR 2509
ENCODING 9481
SWIDTH 630 0
DWIDTH 7 0
BBX 6 3 0 3
BITMAP
AC
AC
AC
ENDCHAR
STARTCHAR 250A
ENCODING 9482
SWIDTH 630 0
DWIDTH 7 0
BBX 1 15 3 -3
BITMAP
80
80
80
00
80
80
80
00
80
80
80
00
80
80
80
ENDCHAR
STARTCHAR 250B
ENCODING 9483
SWIDTH 630 0
DWIDTH 7 0
BBX 3 15 2 -3
BITMAP
E0
E0
E0
00
E0
E0
E0
00
E0
E0
E0
00
E0
E0
E0
ENDCHAR
STARTCHAR 250C
ENCODING 9484
SWIDTH 630 0
DWIDTH 7 0
BBX 4 10 3 -6
BITMAP
F0
80
80
80
80
80
80
80
80
80
ENDCHAR
STARTCHAR 250D
ENCODING 9485
SWIDTH 630 0
DWIDTH 7 0
BBX 4 11 3 -5
BITMAP
F0
F0
F0
80
80
80
80
80
80
80
80
ENDCHAR
STARTCHAR 250E
ENCODING 9486
SWIDTH 630 0
DWIDTH 7 0
BBX 5 10 2 -6
BITMAP
F8
E0
E0
E0
E0
E0
E0
E0
E0
E0
ENDCHAR
STARTCHAR 250F
ENCODING 9487
SWIDTH 630 0
DWIDTH 7 0
BBX 5 11 2 -5
BITMAP
F8
F8
F8
E0
E0
E0
E0
E0
E0
E0
E0
ENDCHAR
STARTCHAR 2510
ENCODING 9488
SWIDTH 630 0
DWIDTH 7 0
BBX 4 10 0 -6
BITMAP
F0
10
10
10
10
10
10
10
10
10
ENDCHAR
STARTCHAR 2511
ENCODING 9489
SWIDTH 630 0
DWIDTH 7 0
BBX 4 11 0 -5
BITMAP
F0
F0
F0
10
10
10
10
10
10
10
10
ENDCHAR
STARTCHAR 2512
ENCODING 9490
SWIDTH 630 0
DWIDTH 7 0
BBX 5 10 0 -6
BITMAP
F8
38
38
38
38
38
38
38
38
38
ENDCHAR
STARTCHAR 2513
ENCODING 9491
SWIDTH 630 0
DWIDTH 7 0
BBX 5 11 0 -5
BITMAP
F8
F8
F8
38
38
38
38
38
38
38
38
ENDCHAR
STARTCHAR 2514
ENCODING 9492
SWIDTH 630 0
DWIDTH 7 0
BBX 4 8 3 3
BITMAP
80
80
80
80
80
80
80
F0
ENDCHAR
STARTCHAR 2515
ENCODING 9493
SWIDTH 630 0
DWIDTH 7 0
BBX 4 9 3 3
BITMAP
80
80
80
80
80
80
F0
F0
F0
ENDCHAR
STARTCHAR 2516
ENCODING 9494
SWIDTH 630 0
DWIDTH 7 0
BBX 5 8 2 3
BITMAP
E0
E0
E0
E0
E0
E0
E0
F8
ENDCHAR
STARTCHAR 2517
ENCODING 9495
SWIDTH 630 0
DWIDTH 7 0
BBX 5 9 2 3
BITMAP
E0
E0
E0
E0
E0
E0
F8
F8
F8
ENDCHAR
STARTCHAR 2518
ENCODING 9496
SWIDTH 630 0
DWIDTH 7 0
BBX 4 8 0 3
BITMAP
10
10
10
10
10
10
10
F0
ENDCHAR
STARTCHAR 2519
ENCODING 9497
SWIDTH 630 0
DWIDTH 7 0
BBX 4 9 0 3
BITMAP
10
10
10
10
10
10
F0
F0
F0
ENDCHAR
STARTCHAR 251A
ENCODING 9498
SWIDTH 630 0
DWIDTH 7 0
BBX 5 8 0 3
BITMAP
38
38
38
38
38
38
38
F8
ENDCHAR
STARTCHAR 251B
ENCODING 9499
SWIDTH 630 0
DWIDTH 7 0
BBX 5 9 0 3
BITMAP
38
38
38
38
38
38
F8
F8
F8
ENDCHAR
STARTCHAR 251C
ENCODING 9500
SWIDTH 630 0
DWIDTH 7 0
BBX 4 17 3 -6
BITMAP
80
80
80
80
80
80
80
F0
80
80
80
80
80
80
80
80
80
ENDCHAR
STARTCHAR 251D
ENCODING 9501
SWIDTH 630 0
DWIDTH 7 0
BBX 4 17 3 -5
BITMAP
80
80
80
80
80
80
F0
F0
F0
80
80
80
80
80
80
80
80
ENDCHAR
STARTCHAR 251E
ENCODING 9502
SWIDTH 630 0
DWIDTH 7 0
BBX 5 17 2 -6
BITMAP
E0
E0
E0
E0
E0
E0
E0
F8
40
40
40
40
40
40
40
40
40
ENDCHAR
STARTCHAR 251F
ENCODING 9503
SWIDTH 630 0
DWIDTH 7 0
BBX 5 17 2 -6
BITMAP
40
40
40
40
40
40
40
F8
E0
E0
E0
E0
E0
E0
E0
E0
E0
ENDCHAR
STARTCHAR 2520
ENCODING 9504
SWIDTH 630 0
DWIDTH 7 0
BBX 5 17 2 -6
BITMAP
E0
E0
E0
E0
E0
E0
E0
F8
E0
E0
E0
E0
E0
E0
E0
E0
E0
ENDCHAR
STARTCHAR 2521
ENCODING 9505
SWIDTH 630 0
DWIDTH 7 0
BBX 5 17 2 -5
BITMAP
E0
E0
E0
E0
E0
E0
F8
F8
F8
40
40
40
40
40
40
40
40
ENDCHAR
STARTCHAR 2522
ENCODING 9506
SWIDTH 630 0
DWIDTH 7 0
BBX 5 17 2 -5
BITMAP
40
40
40
40
40
40
F8
F8
F8
E0
E0
E0
E0
E0
E0
E0
E0
ENDCHAR
STARTCHAR 2523
ENCODING 9507
SWIDTH 630 0
DWIDTH 7 0
BBX 5 17 2 -5
BITMAP
E0
E0
E0
E0
E0
E0
F8
F8
F8
E0
E0
E0
E0
E0
E0
E0
E0
ENDCHAR
STARTCHAR 2524
ENCODING 9508
SWIDTH 630 0
DWIDTH 7 0
BBX 4 17 0 -6
BITMAP
10
10
10
10
10
10
10
F0
10
10
10
10
10
10
10
10
10
ENDCHAR
STARTCHAR 2525
ENCODING 9509
SWIDTH 630 0
DWIDTH 7 0
BBX 4 17 0 -5
BITMAP
10
10
10
10
10
10
F0
F0
F0
10
10
10
10
10
10
10
10
ENDCHAR
STARTCHAR 2526
ENCODING 9510
SWIDTH 630 0
DWIDTH 7 0
BBX 5 17 0 -6
BITMAP
38
38
38
38
38
38
38
F8
10
10
10
10
10
10
10
10
10
ENDCHAR
STARTCHAR 2527
ENCODING 9511
SWIDTH 630 0
DWIDTH 7 0
BBX 5 17 0 -6
BITMAP
10
10
10
10
10
10
10
F8
38
38
38
38
38
38
38
38
38
ENDCHAR
STARTCHAR 2528
ENCODING 9512
SWIDTH 630 0
DWIDTH 7 0
BBX 5 17 0 -6
BITMAP
38
38
38
38
38
38
38
F8
38
38
38
38
38
38
38
38
38
ENDCHAR
STARTCHAR 2529
ENCODING 9513
SWIDTH 630 0
DWIDTH 7 0
BBX 5 17 0 -5
BITMAP
38
38
38
38
38
38
F8
F8
F8
10
10
10
10
10
10
10
10
ENDCHAR
STARTCHAR 252A
ENCODING 9514
SWIDTH 630 0
DWIDTH 7 0
BBX 5 17 0 -5
BITMAP
10
10
10
10
10
10
F8
F8
F8
38
38
38
38
38
38
38
38
ENDCHAR
STARTCHAR 252B
ENCODING 9515
SWIDTH 630 0
DWIDTH 7 0
BBX 5 17 0 -5
BITMAP
38
38
38
38
38
38
F8
F8
F8
38
38
38
38
38
38
38
38
ENDCHAR
STARTCHAR 252C
ENCODING 9516
SWIDTH 630 0
DWIDTH 7 0
BBX 7 10 0 -6
BITMAP
FE
10
10
10
10
10
10
10
10
10
ENDCHAR
STARTCHAR 252D
ENCODING 9517
SWIDTH 630 0
DWIDTH 7 0
BBX 7 11 0 -5
BITMAP
F0
FE
F0
10
10
10
10
10
10
10
10
ENDCHAR
STARTCHAR 252E
ENCODING 9518
SWIDTH 630 0
DWIDTH 7 0
BBX 7 11 0 -5
BITMAP
1E
FE
1E
10
10
10
10
10
10
10
10
ENDCHAR
STARTCHAR 252F
ENCODING 9519
SWIDTH 630 0
DWIDTH 7 0
BBX 7 11 0 -5
BITMAP
FE
FE
FE
10
10
10
10
10
10
10
10
ENDCHAR
STARTCHAR 2530
ENCODING 9520
SWIDTH 630 0
DWIDTH 7 0
BBX 7 10 0 -6
BITMAP
FE
38
38
38
38
38
38
38
38
38
ENDCHAR
STARTCHAR 2531
ENCODING 9521
SWIDTH 630 0
DWIDTH 7 0
BBX 7 11 0 -5
BITMAP
F8
FE
F8
38
38
38
38
38
38
38
38
ENDCHAR
STARTCHAR 2532
ENCODING 9522
SWIDTH 630 0
DWIDTH 7 0
BBX 7 11 0 -5
BITMAP
3E
FE
3E
38
38
38
38
38
38
38
38
ENDCHAR
STARTCHAR 2533
ENCODING 9523
SWIDTH 630 0
DWIDTH 7 0
BBX 7 11 0 -5
BITMAP
FE
FE
FE
38
38
38
38
38
38
38
38
ENDCHAR
STARTCHAR 2534
ENCODING 9524
SWIDTH 630 0
DWIDTH 7 0
BBX 7 8 0 3
BITMAP
10
10
10
10
10
10
10
FE
ENDCHAR
STARTCHAR 2535
ENCODING 9525
SWIDTH 630 0
DWIDTH 7 0
BBX 7 9 0 3
BITMAP
10
10
10
10
10
10
F0
FE
F0
ENDCHAR
STARTCHAR 2536
ENCODING 9526
SWIDTH 630 0
DWIDTH 7 0
BBX 7 9 0 3
BITMAP
10
10
10
10
10
10
1E
FE
1E
ENDCHAR
STARTCHAR 2537
ENCODING 9527
SWIDTH 630 0
DWIDTH 7 0
BBX 7 9 0 3
BITMAP
10
10
10
10
10
10
FE
FE
FE
ENDCHAR
STARTCHAR 2538
ENCODING 9528
SWIDTH 630 0
DWIDTH 7 0
BBX 7 8 0 3
BITMAP
38
38
38
38
38
38
38
FE
ENDCHAR
STARTCHAR 2539
ENCODING 9529
SWIDTH 630 0
DWIDTH 7 0
BBX 7 9 0 3
BITMAP
38
38
38
38
38
38
F8
FE
F8
ENDCHAR
STARTCHAR 253A
ENCODING 9530
SWIDTH 630 0
DWIDTH 7 0
BBX 7 9 0 3
BITMAP
38
38
38
38
38
38
3E
FE
3E
ENDCHAR
STARTCHAR 253B
ENCODING 9531
SWIDTH 630 0
DWIDTH 7 0
BBX 7 9 0 3
BITMAP
38
38
38
38
38
38
FE
FE
FE
ENDCHAR
STARTCHAR 253C
ENCODING 9532
SWIDTH 630 0
DWIDTH 7 0
BBX 7 17 0 -6
BITMAP
10
10
10
10
10
10
10
FE
10
10
10
10
10
10
10
10
10
ENDCHAR
STARTCHAR 253D
ENCODING 9533
SWIDTH 630 0
DWIDTH 7 0
BBX 7 17 0 -5
BITMAP
10
10
10
10
10
10
F0
FE
F0
10
10
10
10
10
10
10
10
ENDCHAR
STARTCHAR 253E
ENCODING 9534
SWIDTH 630 0
DWIDTH 7 0
BBX 7 17 0 -5
BITMAP
10
10
10
10
10
10
1E
FE
1E
10
10
10
10
10
10
10
10
ENDCHAR
STARTCHAR 253F
ENCODING 9535
SWIDTH 630 0
DWIDTH 7 0
BBX 7 17 0 -5
BITMAP
10
10
10
10
10
10
FE
FE
FE
10
10
10
10
10
10
10
10
ENDCHAR
STARTCHAR 2540
ENCODING 9536
SWIDTH 630 0
DWIDTH 7 0
BBX 7 17 0 -6
BITMAP
38
38
38
38
38
38
38
FE
10
10
10
10
10
10
10
10
10
ENDCHAR
STARTCHAR 2541
ENCODING 9537
SWIDTH 630 0
DWIDTH 7 0
BBX 7 17 0 -6
BITMAP
10
10
10
10
10
10
10
FE
38
38
38
38
38
38
38
38
38
ENDCHAR
STARTCHAR 2542
ENCODING 9538
SWIDTH 630 0
DWIDTH 7 0
BBX 7 17 0 -6
BITMAP
38
38
38
38
38
38
38
FE
38
38
38
38
38
38
38
38
38
ENDCHAR
STARTCHAR 2543
ENCODING 9539
SWIDTH 630 0
DWIDTH 7 0
BBX 7 17 0 -5
BITMAP
38
38
38
38
38
38
F8
FE
F8
10
10
10
10
10
10
10
10
ENDCHAR
STARTCHAR 2544
ENCODING 9540
SWIDTH 630 0
DWIDTH 7 0
BBX 7 17 0 -5
BITMAP
38
38
38
38
38
38
3E
FE
3E
10
10
10
10
10
10
10
10
ENDCHAR
STARTCHAR 2545
ENCODING 9541
SWIDTH 630 0
DWIDTH 7 0
BBX 7 17 0 -5
BITMAP
10
10
10
10
10
10
F8
FE
F8
38
38
38
38
38
38
38
38
ENDCHAR
STARTCHAR 2546
ENCODING 9542
SWIDTH 630 0
DWIDTH 7 0
BBX 7 17 0 -5
BITMAP
10
10
10
10
10
10
3E
FE
3E
38
38
38
38
38
38
38
38
ENDCHAR
STARTCHAR 2547
ENCODING 9543
SWIDTH 630 0
DWIDTH 7 0
BBX 7 17 0 -5
BITMAP
38
38
38
38
38
38
FE
FE
FE
10
10
10
10
10
10
10
10
ENDCHAR
STARTCHAR 2548
ENCODING 9544
SWIDTH 630 0
DWIDTH 7 0
BBX 7 17 0 -5
BITMAP
10
10
10
10
10
10
FE
FE
FE
38
38
38
38
38
38
38
38
ENDCHAR
STARTCHAR 2549
ENCODING 9545
SWIDTH 630 0
DWIDTH 7 0
BBX 7 17 0 -5
BITMAP
38
38
38
38
38
38
F8
FE
F8
38
38
38
38
38
38
38
38
ENDCHAR
STARTCHAR 254A
ENCODING 9546
SWIDTH 630 0
DWIDTH 7 0
BBX 7 17 0 -5
BITMAP
38
38
38
38
38
38
3E
FE
3E
38
38
38
38
38
38
38
38
ENDCHAR
STARTCHAR 254B
ENCODING 9547
SWIDTH 630 0
DWIDTH 7 0
BBX 7 17 0 -5
BITMAP
38
38
38
38
38
38
FE
FE
FE
38
38
38
38
38
38
38
38
ENDCHAR
STARTCHAR 254C
ENCODING 9548
SWIDTH 630 0
DWIDTH 7 0
BBX 6 1 0 3
BITMAP
EC
ENDCHAR
STARTCHAR 254D
ENCODING 9549
SWIDTH 630 0
DWIDTH 7 0
BBX 6 3 0 3
BITMAP
EC
EC
EC
ENDCHAR
STARTCHAR 254E
ENCODING 9550
SWIDTH 630 0
DWIDTH 7 0
BBX 1 16 3 -3
BITMAP
80
80
80
80
80
80
80
80
80
80
80
80
80
80
80
80
ENDCHAR
STARTCHAR 254F
ENCODING 9551
SWIDTH 630 0
DWIDTH 7 0
BBX 3 14 2 -2
BITMAP
E0
E0
E0
E0
E0
E0
00
00
E0
E0
E0
E0
E0
E0
ENDCHAR
STARTCHAR 2550
ENCODING 9552
SWIDTH 630 0
DWIDTH 7 0
BBX 7 3 0 3
BITMAP
FE
00
FE
ENDCHAR
STARTCHAR 2551
ENCODING 9553
SWIDTH 630 0
DWIDTH 7 0
BBX 3 17 2 -6
BITMAP
A0
A0
A0
A0
A0
A0
A0
A0
A0
A0
A0
A0
A0
A0
A0
A0
A0
ENDCHAR
STARTCHAR 2552
ENCODING 9554
SWIDTH 630 0
DWIDTH 7 0
BBX 4 11 3 -5
BITMAP
F0
80
F0
80
80
80
80
80
80
80
80
ENDCHAR
STARTCHAR 2553
ENCODING 9555
SWIDTH 630 0
DWIDTH 7 0
BBX 5 10 2 -6
BITMAP
F8
A0
A0
A0
A0
A0
A0
A0
A0
A0
ENDCHAR
STARTCHAR 2554
ENCODING 9556
SWIDTH 630 0
DWIDTH 7 0
BBX 5 11 2 -5
BITMAP
F8
80
B8
A0
A0
A0
A0
A0
A0
A0
A0
ENDCHAR
STARTCHAR 2555
ENCODING 9557
SWIDTH 630 0
DWIDTH 7 0
BBX 4 11 0 -5
BITMAP
F0
10
F0
10
10
10
10
10
10
10
10
ENDCHAR
STARTCHAR 2556
ENCODING 9558
SWIDTH 630 0
DWIDTH 7 0
BBX 5 10 0 -6
BITMAP
F8
28
28
28
28
28
28
28
28
28
ENDCHAR
STARTCHAR 2557
ENCODING 9559
SWIDTH 630 0
DWIDTH 7 0
BBX 5 11 0 -5
BITMAP
F8
08
E8
28
28
28
28
28
28
28
28
ENDCHAR
STARTCHAR 2558
ENCODING 9560
SWIDTH 630 0
DWIDTH 7 0
BBX 4 9 3 3
BITMAP
80
80
80
80
80
80
F0
80
F0
ENDCHAR
STARTCHAR 2559
ENCODING 9561
SWIDTH 630 0
DWIDTH 7 0
BBX 5 8 2 3
BITMAP
A0
A0
A0
A0
A0
A0
A0
F8
ENDCHAR
STARTCHAR 255A
ENCODING 9562
SWIDTH 630 0
DWIDTH 7 0
BBX 5 9 2 3
BITMAP
A0
A0
A0
A0
A0
A0
B8
80
F8
ENDCHAR
STARTCHAR 255B
ENCODING 9563
SWIDTH 630 0
DWIDTH 7 0
BBX 4 9 0 3
BITMAP
10
10
10
10
10
10
F0
10
F0
ENDCHAR
STARTCHAR 255C
ENCODING 9564
SWIDTH 630 0
DWIDTH 7 0
BBX 5 8 0 3
BITMAP
28
28
28
28
28
28
28
F8
ENDCHAR
STARTCHAR 255D
ENCODING 9565
SWIDTH 630 0
DWIDTH 7 0
BBX 5 9 0 3
BITMAP
28
28
28
28
28
28
E8
08
F8
ENDCHAR
STARTCHAR 255E
ENCODING 9566
SWIDTH 630 0
DWIDTH 7 0
BBX 4 17 3 -5
BITMAP
80
80
80
80
80
80
F0
80
F0
80
80
80
80
80
80
80
80
ENDCHAR
STARTCHAR 255F
ENCODING 9567
SWIDTH 630 0
DWIDTH 7 0
BBX 5 17 2 -6
BITMAP
A0
A0
A0
A0
A0
A0
A0
B8
A0
A0
A0
A0
A0
A0
A0
A0
A0
ENDCHAR
STARTCHAR 2560
ENCODING 9568
SWIDTH 630 0
DWIDTH 7 0
BBX 5 17 2 -5
BITMAP
A0
A0
A0
A0
A0
A0
B8
80
B8
A0
A0
A0
A0
A0
A0
A0
A0
ENDCHAR
STARTCHAR 2561
ENCODING 9569
SWIDTH 630 0
DWIDTH 7 0
BBX 4 17 0 -5
BITMAP
10
10
10
10
10
10
F0
10
F0
10
10
10
10
10
10
10
10
ENDCHAR
STARTCHAR 2562
ENCODING 9570
SWIDTH 630 0
DWIDTH 7 0
BBX 5 17 0 -6
BITMAP
28
28
28
28
28
28
28
E8
28
28
28
28
28
28
28
28
28
ENDCHAR
STARTCHAR 2563
ENCODING 9571
SWIDTH 630 0
DWIDTH 7 0
BBX 5 17 0 -5
BITMAP
28
28
28
28
28
28
E8
08
E8
28
28
28
28
28
28
28
28
ENDCHAR
STARTCHAR 2564
ENCODING 9572
SWIDTH 630 0
DWIDTH 7 0
BBX 7 11 0 -5
BITMAP
FE
00
FE
10
10
10
10
10
10
10
10
ENDCHAR
STARTCHAR 2565
ENCODING 9573
SWIDTH 630 0
DWIDTH 7 0
BBX 7 10 0 -6
BITMAP
FE
28
28
28
28
28
28
28
28
28
ENDCHAR
STARTCHAR 2566
ENCODING 9574
SWIDTH 630 0
DWIDTH 7 0
BBX 7 11 0 -5
BITMAP
FE
00
EE
28
28
28
28
28
28
28
28
ENDCHAR
STARTCHAR 2567
ENCODING 9575
SWIDTH 630 0
DWIDTH 7 0
BBX 7 9 0 3
BITMAP
10
10
10
10
10
10
FE
00
FE
ENDCHAR
STARTCHAR 2568
ENCODING 9576
SWIDTH 630 0
DWIDTH 7 0
BBX 7 8 0 3
BITMAP
28
28
28
28
28
28
28
FE
ENDCHAR
STARTCHAR 2569
ENCODING 9577
SWIDTH 630 0
DWIDTH 7 0
BBX 7 9 0 3
BITMAP
28
28
28
28
28
28
EE
00
FE
ENDCHAR
STARTCHAR 256A
ENCODING 9578
SWIDTH 630 0
DWIDTH 7 0
BBX 7 17 0 -5
BITMAP
10
10
10
10
10
10
FE
10
FE
10
10
10
10
10
10
10
10
ENDCHAR
STARTCHAR 256B
ENCODING 9579
SWIDTH 630 0
DWIDTH 7 0
BBX 7 17 0 -6
BITMAP
28
28
28
28
28
28
28
FE
28
28
28
28
28
28
28
28
28
ENDCHAR
STARTCHAR 256C
ENCODING 9580
SWIDTH 630 0
DWIDTH 7 0
BBX 7 17 0 -5
BITMAP
28
28
28
28
28
28
EE
00
EE
28
28
28
28
28
28
28
28
ENDCHAR
STARTCHAR 256D
ENCODING 9581
SWIDTH 630 0
DWIDTH 7 0
BBX 4 10 3 -6
BITMAP
70
C0
80
80
80
80
80
80
80
80
ENDCHAR
STARTCHAR 256E
ENCODING 9582
SWIDTH 630 0
DWIDTH 7 0
BBX 4 10 0 -6
BITMAP
C0
20
10
10
10
10
10
10
10
10
ENDCHAR
STARTCHAR 256F
ENCODING 9583
SWIDTH 630 0
DWIDTH 7 0
BBX 4 10 0 3
BITMAP
10
10
10
10
10
10
10
10
20
C0
ENDCHAR
STARTCHAR 2570
ENCODING 9584
SWIDTH 630 0
DWIDTH 7 0
BBX 4 10 3 3
BITMAP
80
80
80
80
80
80
80
80
C0
70
ENDCHAR
STARTCHAR 2571
ENCODING 9585
SWIDTH 630 0
DWIDTH 7 0
BBX 7 14 0 -4
BITMAP
02
04
04
08
08
10
10
20
20
40
40
80
80
80
ENDCHAR
STARTCHAR 2572
ENCODING 9586
SWIDTH 630 0
DWIDTH 7 0
BBX 7 14 0 -4
BITMAP
80
80
40
40
20
20
10
10
08
08
04
04
02
02
ENDCHAR
STARTCHAR 2573
ENCODING 9587
SWIDTH 630 0
DWIDTH 7 0
BBX 7 14 0 -4
BITMAP
82
84
44
48
28
30
30
30
28
48
44
84
82
82
ENDCHAR
STARTCHAR 2574
ENCODING 9588
SWIDTH 630 0
DWIDTH 7 0
BBX 4 1 0 3
BITMAP
F0
ENDCHAR
STARTCHAR 2575
ENCODING 9589
SWIDTH 630 0
DWIDTH 7 0
BBX 1 8 3 4
BITMAP
80
80
80
80
80
80
80
80
ENDCHAR
STARTCHAR 2576
ENCODING 9590
SWIDTH 630 0
DWIDTH 7 0
BBX 4 1 3 3
BITMAP
F0
ENDCHAR
STARTCHAR 2577
ENCODING 9591
SWIDTH 630 0
DWIDTH 7 0
BBX 1 10 3 -6
BITMAP
80
80
80
80
80
80
80
80
80
80
ENDCHAR
STARTCHAR 2578
ENCODING 9592
SWIDTH 630 0
DWIDTH 7 0
BBX 4 3 0 3
BITMAP
F0
F0
F0
ENDCHAR
STARTCHAR 2579
ENCODING 9593
SWIDTH 630 0
DWIDTH 7 0
BBX 3 8 2 4
BITMAP
E0
E0
E0
E0
E0
E0
E0
E0
ENDCHAR
STARTCHAR 257A
ENCODING 9594
SWIDTH 630 0
DWIDTH 7 0
BBX 4 3 3 3
BITMAP
F0
F0
F0
ENDCHAR
STARTCHAR 257B
ENCODING 9595
SWIDTH 630 0
DWIDTH 7 0
BBX 3 10 2 -6
BITMAP
E0
E0
E0
E0
E0
E0
E0
E0
E0
E0
ENDCHAR
STARTCHAR 257C
ENCODING 9596
SWIDTH 630 0
DWIDTH 7 0
BBX 7 3 0 3
BITMAP
1E
FE
1E
ENDCHAR
STARTCHAR 257D
ENCODING 9597
SWIDTH 630 0
DWIDTH 7 0
BBX 3 17 2 -6
BITMAP
40
40
40
40
40
40
40
E0
E0
E0
E0
E0
E0
E0
E0
E0
E0
ENDCHAR
STARTCHAR 257E
ENCODING 9598
SWIDTH 630 0
DWIDTH 7 0
BBX 7 3 0 3
BITMAP
F0
FE
F0
ENDCHAR
STARTCHAR 257F
ENCODING 9599
SWIDTH 630 0
DWIDTH 7 0
BBX 3 17 2 -6
BITMAP
E0
E0
E0
E0
E0
E0
E0
E0
40
40
40
40
40
40
40
40
40
ENDCHAR
STARTCHAR 2580
ENCODING 9600
SWIDTH 630 0
DWIDTH 7 0
BBX 7 7 0 3
BITMAP
FE
FE
FE
FE
FE
FE
FE
ENDCHAR
STARTCHAR 2581
ENCODING 9601
SWIDTH 630 0
DWIDTH 7 0
BBX 7 2 0 -3
BITMAP
FE
FE
ENDCHAR
STARTCHAR 2582
ENCODING 9602
SWIDTH 630 0
DWIDTH 7 0
BBX 7 4 0 -3
BITMAP
FE
FE
FE
FE
ENDCHAR
STARTCHAR 2583
ENCODING 9603
SWIDTH 630 0
DWIDTH 7 0
BBX 7 5 0 -3
BITMAP
FE
FE
FE
FE
FE
ENDCHAR
STARTCHAR 2584
ENCODING 9604
SWIDTH 630 0
DWIDTH 7 0
BBX 7 7 0 -3
BITMAP
FE
FE
FE
FE
FE
FE
FE
ENDCHAR
STARTCHAR 2585
ENCODING 9605
SWIDTH 630 0
DWIDTH 7 0
BBX 7 9 0 -3
BITMAP
FE
FE
FE
FE
FE
FE
FE
FE
FE
ENDCHAR
STARTCHAR 2586
ENCODING 9606
SWIDTH 630 0
DWIDTH 7 0
BBX 7 11 0 -3
BITMAP
FE
FE
FE
FE
FE
FE
FE
FE
FE
FE
FE
ENDCHAR
STARTCHAR 2587
ENCODING 9607
SWIDTH 630 0
DWIDTH 7 0
BBX 7 12 0 -3
BITMAP
FE
FE
FE
FE
FE
FE
FE
FE
FE
FE
FE
FE
ENDCHAR
STARTCHAR 2588
ENCODING 9608
SWIDTH 630 0
DWIDTH 7 0
BBX 7 14 0 -3
BITMAP
FE
FE
FE
FE
FE
FE
FE
FE
FE
FE
FE
FE
FE
FE
ENDCHAR
STARTCHAR 2589
ENCODING 9609
SWIDTH 630 0
DWIDTH 7 0
BBX 6 14 0 -3
BITMAP
FC
FC
FC
FC
FC
FC
FC
FC
FC
FC
FC
FC
FC
FC
ENDCHAR
STARTCHAR 258A
ENCODING 9610
SWIDTH 630 0
DWIDTH 7 0
BBX 5 14 0 -3
BITMAP
F8
F8
F8
F8
F8
F8
F8
F8
F8
F8
F8
F8
F8
F8
ENDCHAR
STARTCHAR 258B
ENCODING 9611
SWIDTH 630 0
DWIDTH 7 0
BBX 4 14 0 -3
BITMAP
F0
F0
F0
F0
F0
F0
F0
F0
F0
F0
F0
F0
F0
F0
ENDCHAR
STARTCHAR 258C
ENCODING 9612
SWIDTH 630 0
DWIDTH 7 0
BBX 3 14 0 -3
BITMAP
E0
E0
E0
E0
E0
E0
E0
E0
E0
E0
E0
E0
E0
E0
ENDCHAR
STARTCHAR 258D
ENCODING 9613
SWIDTH 630 0
DWIDTH 7 0
BBX 3 14 0 -3
BITMAP
E0
E0
E0
E0
E0
E0
E0
E0
E0
E0
E0
E0
E0
E0
ENDCHAR
STARTCHAR 258E
ENCODING 9614
SWIDTH 630 0
DWIDTH 7 0
BBX 2 14 0 -3
BITMAP
C0
C0
C0
C0
C0
C0
C0
C0
C0
C0
C0
C0
C0
C0
ENDCHAR
STARTCHAR 258F
ENCODING 9615
SWIDTH 630 0
DWIDTH 7 0
BBX 1 14 0 -3
BITMAP
80
80
80
80
80
80
80
80
80
80
80
80
80
80
ENDCHAR
STARTCHAR 2590
ENCODING 9616
SWIDTH 630 0
DWIDTH 7 0
BBX 4 14 3 -3
BITMAP
F0
F0
F0
F0
F0
F0
F0
F0
F0
F0
F0
F0
F0
F0
ENDCHAR
STARTCHAR 2591
ENCODING 9617
SWIDTH 630 0
DWIDTH 7 0
BBX 6 12 1 -3
BITMAP
1C
BC
00
BC
00
BC
BC
00
BC
00
BC
1C
ENDCHAR
STARTCHAR 2592
ENCODING 9618
SWIDTH 630 0
DWIDTH 7 0
BBX 7 13 0 -3
BITMAP
FC
FE
DE
FC
DE
FC
DE
FE
FC
DE
FC
DE
FE
ENDCHAR
STARTCHAR 2593
ENCODING 9619
SWIDTH 630 0
DWIDTH 7 0
BBX 7 13 0 -3
BITMAP
FE
FE
FC
FE
FC
FE
FC
FE
FE
FC
FE
FC
FE
ENDCHAR
STARTCHAR 2594
ENCODING 9620
SWIDTH 630 0
DWIDTH 7 0
BBX 7 2 0 9
BITMAP
FE
FE
ENDCHAR
STARTCHAR 2595
ENCODING 9621
SWIDTH 630 0
DWIDTH 7 0
BBX 1 14 6 -3
BITMAP
80
80
80
80
80
80
80
80
80
80
80
80
80
80
ENDCHAR
STARTCHAR 2596
ENCODING 9622
SWIDTH 630 0
DWIDTH 7 0
BBX 3 7 0 -3
BITMAP
E0
E0
E0
E0
E0
E0
E0
ENDCHAR
STARTCHAR 2597
ENCODING 9623
SWIDTH 630 0
DWIDTH 7 0
BBX 4 7 3 -3
BITMAP
F0
F0
F0
F0
F0
F0
F0
ENDCHAR
STARTCHAR 2598
ENCODING 9624
SWIDTH 630 0
DWIDTH 7 0
BBX 3 7 0 3
BITMAP
E0
E0
E0
E0
E0
E0
E0
ENDCHAR
STARTCHAR 2599
ENCODING 9625
SWIDTH 630 0
DWIDTH 7 0
BBX 7 14 0 -3
BITMAP
E0
E0
E0
E0
E0
E0
E0
FE
FE
FE
FE
FE
FE
FE
ENDCHAR
STARTCHAR 259A
ENCODING 9626
SWIDTH 630 0
DWIDTH 7 0
BBX 7 14 0 -3
BITMAP
E0
E0
E0
E0
E0
E0
E0
1E
1E
1E
1E
1E
1E
1E
ENDCHAR
STARTCHAR 259B
ENCODING 9627
SWIDTH 630 0
DWIDTH 7 0
BBX 7 14 0 -3
BITMAP
FE
FE
FE
FE
FE
FE
FE
E0
E0
E0
E0
E0
E0
E0
ENDCHAR
STARTCHAR 259C
ENCODING 9628
SWIDTH 630 0
DWIDTH 7 0
BBX 7 14 0 -3
BITMAP
FE
FE
FE
FE
FE
FE
FE
1E
1E
1E
1E
1E
1E
1E
ENDCHAR
STARTCHAR 259D
ENCODING 9629
SWIDTH 630 0
DWIDTH 7 0
BBX 4 7 3 3
BITMAP
F0
F0
F0
F0
F0
F0
F0
ENDCHAR
STARTCHAR 259E
ENCODING 9630
SWIDTH 630 0
DWIDTH 7 0
BBX 7 14 0 -3
BITMAP
1E
1E
1E
1E
1E
1E
1E
E0
E0
E0
E0
E0
E0
E0
ENDCHAR
STARTCHAR 259F
ENCODING 9631
SWIDTH 630 0
DWIDTH 7 0
BBX 7 14 0 -3
BITMAP
1E
1E
1E
1E
1E
1E
1E
FE
FE
FE
FE
FE
FE
FE
ENDCHAR
STARTCHAR 25A0
ENCODING 9632
SWIDTH 630 0
DWIDTH 7 0
BBX 7 6 0 0
BITMAP
FE
FE
FE
FE
FE
FE
ENDCHAR
STARTCHAR 25A1
ENCODING 9633
SWIDTH 630 0
DWIDTH 7 0
BBX 7 6 0 0
BITMAP
FE
82
82
82
82
FE
ENDCHAR
STARTCHAR 25A2
ENCODING 9634
SWIDTH 630 0
DWIDTH 7 0
BBX 7 6 0 0
BITMAP
7C
C4
82
82
C4
7C
ENDCHAR
STARTCHAR 25A3
ENCODING 9635
SWIDTH 630 0
DWIDTH 7 0
BBX 7 6 0 0
BITMAP
FE
BA
BA
BA
82
FE
ENDCHAR
STARTCHAR 25A4
ENCODING 9636
SWIDTH 630 0
DWIDTH 7 0
BBX 7 6 0 0
BITMAP
FE
82
FE
FE
82
FE
ENDCHAR
STARTCHAR 25A5
ENCODING 9637
SWIDTH 630 0
DWIDTH 7 0
BBX 7 6 0 0
BITMAP
FE
AA
AA
AA
AA
FE
ENDCHAR
STARTCHAR 25A6
ENCODING 9638
SWIDTH 630 0
DWIDTH 7 0
BBX 7 6 0 0
BITMAP
FE
AA
FE
FE
AA
FE
ENDCHAR
STARTCHAR 25A7
ENCODING 9639
SWIDTH 630 0
DWIDTH 7 0
BBX 7 6 0 0
BITMAP
FE
CA
B6
DA
AE
FE
ENDCHAR
STARTCHAR 25A8
ENCODING 9640
SWIDTH 630 0
DWIDTH 7 0
BBX 7 6 0 0
BITMAP
FE
AE
DA
B6
CA
FE
ENDCHAR
STARTCHAR 25A9
ENCODING 9641
SWIDTH 630 0
DWIDTH 7 0
BBX 7 6 0 0
BITMAP
FE
EE
FE
FE
EE
FE
ENDCHAR
STARTCHAR 25AA
ENCODING 9642
SWIDTH 630 0
DWIDTH 7 0
BBX 3 3 2 0
BITMAP
E0
E0
E0
ENDCHAR
STARTCHAR 25AB
ENCODING 9643
SWIDTH 630 0
DWIDTH 7 0
BBX 3 3 2 0
BITMAP
E0
A0
E0
ENDCHAR
STARTCHAR 25AC
ENCODING 9644
SWIDTH 630 0
DWIDTH 7 0
BBX 7 3 0 0
BITMAP
FE
FE
FE
ENDCHAR
STARTCHAR 25AD
ENCODING 9645
SWIDTH 630 0
DWIDTH 7 0
BBX 7 3 0 0
BITMAP
FE
82
FE
ENDCHAR
STARTCHAR 25AE
ENCODING 9646
SWIDTH 630 0
DWIDTH 7 0
BBX 3 6 2 0
BITMAP
E0
E0
E0
E0
E0
E0
ENDCHAR
STARTCHAR 25AF
ENCODING 9647
SWIDTH 630 0
DWIDTH 7 0
BBX 3 6 2 0
BITMAP
E0
A0
A0
A0
A0
E0
ENDCHAR
STARTCHAR 25B2
ENCODING 9650
SWIDTH 630 0
DWIDTH 7 0
BBX 7 6 0 0
BITMAP
10
10
38
38
7C
FE
ENDCHAR
STARTCHAR 25B6
ENCODING 9654
SWIDTH 630 0
DWIDTH 7 0
BBX 7 6 0 0
BITMAP
C0
F0
FE
F8
E0
80
ENDCHAR
STARTCHAR 25BA
ENCODING 9658
SWIDTH 630 0
DWIDTH 7 0
BBX 7 6 0 0
BITMAP
C0
F0
FE
F8
E0
80
ENDCHAR
STARTCHAR 25BC
ENCODING 9660
SWIDTH 630 0
DWIDTH 7 0
BBX 7 6 0 0
BITMAP
FE
7C
38
38
10
10
ENDCHAR
STARTCHAR 25C0
ENCODING 9664
SWIDTH 630 0
DWIDTH 7 0
BBX 7 6 0 0
BITMAP
06
1E
FE
7E
1E
06
ENDCHAR
STARTCHAR 25C4
ENCODING 9668
SWIDTH 630 0
DWIDTH 7 0
BBX 7 6 0 0
BITMAP
06
1E
FE
7E
1E
06
ENDCHAR
STARTCHAR 25C6
ENCODING 9670
SWIDTH 630 0
DWIDTH 7 0
BBX 7 6 0 0
BITMAP
10
38
FE
7C
38
10
ENDCHAR
STARTCHAR 25C7
ENCODING 9671
SWIDTH 630 0
DWIDTH 7 0
BBX 7 6 0 0
BITMAP
10
28
C6
44
28
10
ENDCHAR
STARTCHAR 25C9
ENCODING 9673
SWIDTH 630 0
DWIDTH 7 0
BBX 7 6 0 0
BITMAP
38
54
BC
B6
44
38
ENDCHAR
STARTCHAR 25CA
ENCODING 9674
SWIDTH 630 0
DWIDTH 7 0
BBX 5 8 1 0
BITMAP
20
50
50
88
88
50
50
20
ENDCHAR
STARTCHAR 25CB
ENCODING 9675
SWIDTH 630 0
DWIDTH 7 0
BBX 7 6 0 0
BITMAP
38
44
84
86
44
38
ENDCHAR
STARTCHAR 25CE
ENCODING 9678
SWIDTH 630 0
DWIDTH 7 0
BBX 7 6 0 0
BITMAP
38
44
BC
BE
44
38
ENDCHAR
STARTCHAR 25CF
ENCODING 9679
SWIDTH 630 0
DWIDTH 7 0
BBX 7 6 0 0
BITMAP
38
7C
FC
FE
7C
38
ENDCHAR
STARTCHAR 25D0
ENCODING 9680
SWIDTH 630 0
DWIDTH 7 0
BBX 7 6 0 0
BITMAP
38
64
E4
E6
64
38
ENDCHAR
STARTCHAR 25D1
ENCODING 9681
SWIDTH 630 0
DWIDTH 7 0
BBX 7 6 0 0
BITMAP
38
5C
9C
9E
5C
38
ENDCHAR
STARTCHAR 25D2
ENCODING 9682
SWIDTH 630 0
DWIDTH 7 0
BBX 7 6 0 0
BITMAP
38
44
84
FE
7C
38
ENDCHAR
STARTCHAR 25D3
ENCODING 9683
SWIDTH 630 0
DWIDTH 7 0
BBX 7 6 0 0
BITMAP
38
7C
FC
86
44
38
ENDCHAR
STARTCHAR 25D5
ENCODING 9685
SWIDTH 630 0
DWIDTH 7 0
BBX 7 6 0 0
BITMAP
38
5C
9C
FE
7C
38
ENDCHAR
STARTCHAR 25D6
ENCODING 9686
SWIDTH 630 0
DWIDTH 7 0
BBX 3 6 0 0
BITMAP
20
60
E0
E0
60
20
ENDCHAR
STARTCHAR 25D7
ENCODING 9687
SWIDTH 630 0
DWIDTH 7 0
BBX 4 6 3 0
BITMAP
C0
E0
E0
F0
E0
C0
ENDCHAR
STARTCHAR 25D9
ENCODING 9689
SWIDTH 630 0
DWIDTH 7 0
BBX 7 6 0 0
BITMAP
FE
C6
BA
BA
C6
FE
ENDCHAR
STARTCHAR 25DA
ENCODING 9690
SWIDTH 630 0
DWIDTH 7 0
BBX 7 3 0 3
BITMAP
FE
F6
BA
ENDCHAR
STARTCHAR 25DB
ENCODING 9691
SWIDTH 630 0
DWIDTH 7 0
BBX 7 3 0 0
BITMAP
BA
F6
FE
ENDCHAR
STARTCHAR 25DC
ENCODING 9692
SWIDTH 630 0
DWIDTH 7 0
BBX 3 3 0 3
BITMAP
20
40
80
ENDCHAR
STARTCHAR 25DD
ENCODING 9693
SWIDTH 630 0
DWIDTH 7 0
BBX 4 3 3 3
BITMAP
C0
20
30
ENDCHAR
STARTCHAR 25DE
ENCODING 9694
SWIDTH 630 0
DWIDTH 7 0
BBX 4 3 3 0
BITMAP
30
20
C0
ENDCHAR
STARTCHAR 25DF
ENCODING 9695
SWIDTH 630 0
DWIDTH 7 0
BBX 3 3 0 0
BITMAP
80
40
20
ENDCHAR
STARTCHAR 25E0
ENCODING 9696
SWIDTH 630 0
DWIDTH 7 0
BBX 7 3 0 3
BITMAP
38
44
86
ENDCHAR
STARTCHAR 25E1
ENCODING 9697
SWIDTH 630 0
DWIDTH 7 0
BBX 7 3 0 0
BITMAP
86
44
38
ENDCHAR
STARTCHAR 25E2
ENCODING 9698
SWIDTH 630 0
DWIDTH 7 0
BBX 7 6 0 0
BITMAP
02
06
0E
1E
3E
FE
ENDCHAR
STARTCHAR 25E3
ENCODING 9699
SWIDTH 630 0
DWIDTH 7 0
BBX 7 6 0 0
BITMAP
80
C0
E0
F0
F8
FE
ENDCHAR
STARTCHAR 25E4
ENCODING 9700
SWIDTH 630 0
DWIDTH 7 0
BBX 7 6 0 0
BITMAP
FE
F8
F0
E0
C0
80
ENDCHAR
STARTCHAR 25E5
ENCODING 9701
SWIDTH 630 0
DWIDTH 7 0
BBX 7 6 0 0
BITMAP
FE
3E
1E
0E
06
02
ENDCHAR
STARTCHAR 25E7
ENCODING 9703
SWIDTH 630 0
DWIDTH 7 0
BBX 7 6 0 0
BITMAP
FE
E2
E2
E2
E2
FE
ENDCHAR
STARTCHAR 25E8
ENCODING 9704
SWIDTH 630 0
DWIDTH 7 0
BBX 7 6 0 0
BITMAP
FE
9E
9E
9E
9E
FE
ENDCHAR
STARTCHAR 25E9
ENCODING 9705
SWIDTH 630 0
DWIDTH 7 0
BBX 7 6 0 0
BITMAP
FE
FA
F2
E2
C2
FE
ENDCHAR
STARTCHAR 25EA
ENCODING 9706
SWIDTH 630 0
DWIDTH 7 0
BBX 7 6 0 0
BITMAP
FE
86
8E
9E
BE
FE
ENDCHAR
STARTCHAR 25EB
ENCODING 9707
SWIDTH 630 0
DWIDTH 7 0
BBX 7 6 0 0
BITMAP
FE
92
92
92
92
FE
ENDCHAR
STARTCHAR 25EF
ENCODING 9711
SWIDTH 630 0
DWIDTH 7 0
BBX 7 6 0 0
BITMAP
38
44
84
86
44
38
ENDCHAR
STARTCHAR 25F0
ENCODING 9712
SWIDTH 630 0
DWIDTH 7 0
BBX 7 6 0 0
BITMAP
FE
92
F2
82
82
FE
ENDCHAR
STARTCHAR 25F1
ENCODING 9713
SWIDTH 630 0
DWIDTH 7 0
BBX 7 6 0 0
BITMAP
FE
82
F2
92
92
FE
ENDCHAR
STARTCHAR 25F2
ENCODING 9714
SWIDTH 630 0
DWIDTH 7 0
BBX 7 6 0 0
BITMAP
FE
82
9E
92
92
FE
ENDCHAR
STARTCHAR 25F3
ENCODING 9715
SWIDTH 630 0
DWIDTH 7 0
BBX 7 6 0 0
BITMAP
FE
92
9E
82
82
FE
ENDCHAR
STARTCHAR 25F4
ENCODING 9716
SWIDTH 630 0
DWIDTH 7 0
BBX 7 6 0 0
BITMAP
38
54
F4
86
44
38
ENDCHAR
STARTCHAR 25F5
ENCODING 9717
SWIDTH 630 0
DWIDTH 7 0
BBX 7 6 0 1
BITMAP
38
44
84
F2
54
7C
ENDCHAR
STARTCHAR 25F6
ENCODING 9718
SWIDTH 630 0
DWIDTH 7 0
BBX 7 6 0 1
BITMAP
38
44
84
9E
54
7C
ENDCHAR
STARTCHAR 25F7
ENCODING 9719
SWIDTH 630 0
DWIDTH 7 0
BBX 7 6 0 0
BITMAP
38
54
9C
86
44
38
ENDCHAR
STARTCHAR 2610
ENCODING 9744
SWIDTH 630 0
DWIDTH 7 0
BBX 6 6 0 0
BITMAP
FC
84
84
84
84
FC
ENDCHAR
STARTCHAR 2611
ENCODING 9745
SWIDTH 630 0
DWIDTH 7 0
BBX 6 7 0 0
BITMAP
04
FC
8C
AC
94
84
FC
ENDCHAR
STARTCHAR 2612
ENCODING 9746
SWIDTH 630 0
DWIDTH 7 0
BBX 6 6 0 0
BITMAP
FC
EC
BC
BC
EC
FC
ENDCHAR
STARTCHAR 2620
ENCODING 9760
SWIDTH 630 0
DWIDTH 7 0
BBX 7 6 0 0
BITMAP
38
38
DA
2C
D6
44
ENDCHAR
STARTCHAR 2630
ENCODING 9776
SWIDTH 630 0
DWIDTH 7 0
BBX 5 5 1 1
BITMAP
F8
00
F8
00
F8
ENDCHAR
STARTCHAR 2631
ENCODING 9777
SWIDTH 630 0
DWIDTH 7 0
BBX 5 5 1 1
BITMAP
D8
00
F8
00
F8
ENDCHAR
STARTCHAR 2632
ENCODING 9778
SWIDTH 630 0
DWIDTH 7 0
BBX 5 5 1 1
BITMAP
F8
00
D8
00
F8
ENDCHAR
STARTCHAR 2633
ENCODING 9779
SWIDTH 630 0
DWIDTH 7 0
BBX 5 5 1 1
BITMAP
D8
00
D8
00
F8
ENDCHAR
STARTCHAR 2634
ENCODING 9780
SWIDTH 630 0
DWIDTH 7 0
BBX 5 5 1 1
BITMAP
F8
00
F8
00
D8
ENDCHAR
STARTCHAR 2635
ENCODING 9781
SWIDTH 630 0
DWIDTH 7 0
BBX 5 5 1 1
BITMAP
D8
00
F8
00
D8
ENDCHAR
STARTCHAR 2636
ENCODING 9782
SWIDTH 630 0
DWIDTH 7 0
BBX 5 5 1 1
BITMAP
F8
00
D8
00
D8
ENDCHAR
STARTCHAR 2637
ENCODING 9783
SWIDTH 630 0
DWIDTH 7 0
BBX 5 5 1 1
BITMAP
D8
00
D8
00
D8
ENDCHAR
STARTCHAR 2639
ENCODING 9785
SWIDTH 630 0
DWIDTH 7 0
BBX 7 6 0 0
BITMAP
38
44
AA
BA
44
38
ENDCHAR
STARTCHAR 263A
ENCODING 9786
SWIDTH 630 0
DWIDTH 7 0
BBX 7 6 0 0
BITMAP
38
44
AA
AA
7C
38
ENDCHAR
STARTCHAR 263B
ENCODING 9787
SWIDTH 630 0
DWIDTH 7 0
BBX 7 6 0 0
BITMAP
38
7C
FC
F6
4C
38
ENDCHAR
STARTCHAR 263C
ENCODING 9788
SWIDTH 630 0
DWIDTH 7 0
BBX 7 6 0 0
BITMAP
10
7C
C6
28
54
10
ENDCHAR
STARTCHAR 2640
ENCODING 9792
SWIDTH 630 0
DWIDTH 7 0
BBX 3 6 2 0
BITMAP
E0
A0
A0
40
E0
40
ENDCHAR
STARTCHAR 2642
ENCODING 9794
SWIDTH 630 0
DWIDTH 7 0
BBX 5 6 1 0
BITMAP
18
08
D8
A0
A0
E0
ENDCHAR
STARTCHAR 2660
ENCODING 9824
SWIDTH 630 0
DWIDTH 7 0
BBX 5 6 1 0
BITMAP
20
70
F8
F8
20
F8
ENDCHAR
STARTCHAR 2663
ENCODING 9827
SWIDTH 630 0
DWIDTH 7 0
BBX 5 6 1 0
BITMAP
70
70
F8
F8
F8
F8
ENDCHAR
STARTCHAR 2665
ENCODING 9829
SWIDTH 630 0
DWIDTH 7 0
BBX 5 6 1 0
BITMAP
D8
F8
F8
F0
70
20
ENDCHAR
STARTCHAR 2666
ENCODING 9830
SWIDTH 630 0
DWIDTH 7 0
BBX 5 6 1 0
BITMAP
20
70
F8
70
70
20
ENDCHAR
STARTCHAR 266A
ENCODING 9834
SWIDTH 630 0
DWIDTH 7 0
BBX 4 6 1 0
BITMAP
30
30
30
20
60
E0
ENDCHAR
STARTCHAR 266B
ENCODING 9835
SWIDTH 630 0
DWIDTH 7 0
BBX 6 6 0 0
BITMAP
1C
24
24
24
7C
E8
ENDCHAR
STARTCHAR 2713
ENCODING 10003
SWIDTH 630 0
DWIDTH 7 0
BBX 5 8 1 0
BITMAP
08
08
10
90
90
50
60
60
ENDCHAR
STARTCHAR 2770
ENCODING 10096
SWIDTH 630 0
DWIDTH 7 0
BBX 5 8 1 0
BITMAP
38
70
70
E0
E0
70
70
38
ENDCHAR
STARTCHAR 2771
ENCODING 10097
SWIDTH 630 0
DWIDTH 7 0
BBX 5 8 1 0
BITMAP
E0
70
70
30
38
70
70
E0
ENDCHAR
STARTCHAR 27A1
ENCODING 10145
SWIDTH 630 0
DWIDTH 7 0
BBX 7 7 0 0
BITMAP
08
08
FC
FE
FC
08
08
ENDCHAR
STARTCHAR 27E8
ENCODING 10216
SWIDTH 630 0
DWIDTH 7 0
BBX 3 10 2 -1
BITMAP
20
40
40
40
80
80
40
40
40
20
ENDCHAR
STARTCHAR 27E9
ENCODING 10217
SWIDTH 630 0
DWIDTH 7 0
BBX 3 10 2 -1
BITMAP
80
80
40
40
20
20
40
40
80
80
ENDCHAR
STARTCHAR 27F0
ENCODING 10224
SWIDTH 630 0
DWIDTH 7 0
BBX 7 8 0 0
BITMAP
10
38
6C
EE
6C
6C
6C
6C
ENDCHAR
STARTCHAR 27F1
ENCODING 10225
SWIDTH 630 0
DWIDTH 7 0
BBX 7 8 0 -1
BITMAP
6C
6C
6C
6C
EE
6C
38
10
ENDCHAR
STARTCHAR 27F2
ENCODING 10226
SWIDTH 630 0
DWIDTH 7 0
BBX 8 7 -1 1
BITMAP
1E
23
21
B1
61
23
06
ENDCHAR
STARTCHAR 27F3
ENCODING 10227
SWIDTH 630 0
DWIDTH 7 0
BBX 8 7 0 1
BITMAP
78
CC
84
8D
86
C4
60
ENDCHAR
STARTCHAR 27F4
ENCODING 10228
SWIDTH 630 0
DWIDTH 7 0
BBX 7 7 0 0
BITMAP
08
74
B4
FE
B4
7C
08
ENDCHAR
STARTCHAR 27F5
ENCODING 10229
SWIDTH 630 0
DWIDTH 7 0
BBX 7 7 0 0
BITMAP
30
20
40
FE
40
20
30
ENDCHAR
STARTCHAR 27F6
ENCODING 10230
SWIDTH 630 0
DWIDTH 7 0
BBX 7 7 0 0
BITMAP
10
08
04
FE
04
08
10
ENDCHAR
STARTCHAR 27F7
ENCODING 10231
SWIDTH 630 0
DWIDTH 7 0
BBX 7 7 0 0
BITMAP
28
44
86
FE
86
44
28
ENDCHAR
STARTCHAR 27F8
ENCODING 10232
SWIDTH 630 0
DWIDTH 7 0
BBX 7 7 0 0
BITMAP
30
20
7E
80
7E
20
30
ENDCHAR
STARTCHAR 27F9
ENCODING 10233
SWIDTH 630 0
DWIDTH 7 0
BBX 7 7 0 0
BITMAP
10
08
FC
02
FC
08
10
ENDCHAR
STARTCHAR 27FA
ENCODING 10234
SWIDTH 630 0
DWIDTH 7 0
BBX 7 7 0 0
BITMAP
28
44
FC
82
FE
44
28
ENDCHAR
STARTCHAR 27FB
ENCODING 10235
SWIDTH 630 0
DWIDTH 7 0
BBX 7 7 0 0
BITMAP
30
22
42
FE
42
22
30
ENDCHAR
STARTCHAR 27FC
ENCODING 10236
SWIDTH 630 0
DWIDTH 7 0
BBX 7 7 0 0
BITMAP
10
88
84
FE
84
88
10
ENDCHAR
STARTCHAR 27FD
ENCODING 10237
SWIDTH 630 0
DWIDTH 7 0
BBX 7 7 0 0
BITMAP
30
22
7E
82
7E
22
30
ENDCHAR
STARTCHAR 27FE
ENCODING 10238
SWIDTH 630 0
DWIDTH 7 0
BBX 7 7 0 0
BITMAP
10
88
FC
82
FC
88
10
ENDCHAR
STARTCHAR 27FF
ENCODING 10239
SWIDTH 630 0
DWIDTH 7 0
BBX 7 7 0 0
BITMAP
10
08
54
BE
04
08
10
ENDCHAR
STARTCHAR 2B05
ENCODING 11013
SWIDTH 630 0
DWIDTH 7 0
BBX 7 7 0 0
BITMAP
20
20
7E
FE
FE
60
20
ENDCHAR
STARTCHAR 2B06
ENCODING 11014
SWIDTH 630 0
DWIDTH 7 0
BBX 7 9 0 0
BITMAP
10
38
FE
38
38
38
38
38
38
ENDCHAR
STARTCHAR 2B07
ENCODING 11015
SWIDTH 630 0
DWIDTH 7 0
BBX 7 9 0 -1
BITMAP
38
38
38
38
38
38
FE
38
10
ENDCHAR
STARTCHAR 2E3A
ENCODING 11834
SWIDTH 630 0
DWIDTH 7 0
BBX 7 1 0 3
BITMAP
FE
ENDCHAR
STARTCHAR 2E3B
ENCODING 11835
SWIDTH 630 0
DWIDTH 7 0
BBX 7 1 0 3
BITMAP
FE
ENDCHAR
STARTCHAR 300C
ENCODING 12300
SWIDTH 630 0
DWIDTH 7 0
BBX 3 9 3 0
BITMAP
E0
80
80
80
80
80
80
80
80
ENDCHAR
STARTCHAR 300D
ENCODING 12301
SWIDTH 630 0
DWIDTH 7 0
BBX 3 10 1 -1
BITMAP
20
20
20
20
20
20
20
20
20
E0
ENDCHAR
STARTCHAR E000
ENCODING 57344
SWIDTH 630 0
DWIDTH 7 0
BBX 14 9 0 -1
BITMAP
0FC0
35C0
73F8
7484
E0EC
7238
31F0
2B00
1E00
ENDCHAR
STARTCHAR E001
ENCODING 57345
SWIDTH 630 0
DWIDTH 7 0
BBX 10 9 3 -1
BITMAP
7400
5A00
6F00
F9C0
FCC0
6F80
7000
F000
2000
ENDCHAR
STARTCHAR E002
ENCODING 57346
SWIDTH 630 0
DWIDTH 7 0
BBX 2 4 9 3
BITMAP
80
00
00
C0
ENDCHAR
STARTCHAR E003
ENCODING 57347
SWIDTH 630 0
DWIDTH 7 0
BBX 13 9 -3 -1
BITMAP
1F80
39C0
67F0
E108
41C8
A438
63E0
3600
1E00
ENDCHAR
STARTCHAR E0A0
ENCODING 57504
SWIDTH 630 0
DWIDTH 7 0
BBX 7 14 1 -3
BITMAP
80
80
80
88
BC
AA
88
88
10
60
80
80
80
80
ENDCHAR
STARTCHAR E0A1
ENCODING 57505
SWIDTH 630 0
DWIDTH 7 0
BBX 3 10 2 0
BITMAP
80
80
80
80
E0
A0
A0
E0
E0
A0
ENDCHAR
STARTCHAR E0A2
ENCODING 57506
SWIDTH 630 0
DWIDTH 7 0
BBX 7 10 0 -1
BITMAP
38
28
28
28
FC
82
92
92
82
FC
ENDCHAR
STARTCHAR E0B0
ENCODING 57520
SWIDTH 630 0
DWIDTH 7 0
BBX 6 13 0 -3
BITMAP
80
80
C0
E0
F0
F8
FC
F8
F0
E0
C0
C0
80
ENDCHAR
STARTCHAR E0B1
ENCODING 57521
SWIDTH 630 0
DWIDTH 7 0
BBX 7 14 0 -3
BITMAP
80
40
20
30
10
08
04
06
04
08
10
20
40
80
ENDCHAR
STARTCHAR E0B2
ENCODING 57522
SWIDTH 630 0
DWIDTH 7 0
BBX 6 13 1 -3
BITMAP
04
0C
0C
1C
3C
7C
FC
7C
3C
1C
1C
0C
04
ENDCHAR
STARTCHAR E0B3
ENCODING 57523
SWIDTH 630 0
DWIDTH 7 0
BBX 7 14 0 -3
BITMAP
02
04
08
10
30
20
40
80
40
20
10
08
04
06
ENDCHAR
STARTCHAR EE00
ENCODING 60928
SWIDTH 630 0
DWIDTH 7 0
BBX 6 11 1 -1
BITMAP
FC
80
80
80
80
80
80
80
80
80
FC
ENDCHAR
STARTCHAR EE01
ENCODING 60929
SWIDTH 630 0
DWIDTH 7 0
BBX 7 11 0 -1
BITMAP
FE
00
00
00
00
00
00
00
00
00
FE
ENDCHAR
STARTCHAR EE02
ENCODING 60930
SWIDTH 630 0
DWIDTH 7 0
BBX 6 11 0 -1
BITMAP
FC
04
04
04
04
04
04
04
04
04
FC
ENDCHAR
STARTCHAR EE03
ENCODING 60931
SWIDTH 630 0
DWIDTH 7 0
BBX 6 11 1 -1
BITMAP
FC
80
BC
BC
BC
BC
BC
BC
BC
80
FC
ENDCHAR
STARTCHAR EE04
ENCODING 60932
SWIDTH 630 0
DWIDTH 7 0
BBX 7 11 0 -1
BITMAP
FE
00
FE
FE
FE
FE
FE
FE
FE
00
FE
ENDCHAR
STARTCHAR EE05
ENCODING 60933
SWIDTH 630 0
DWIDTH 7 0
BBX 6 11 0 -1
BITMAP
FC
04
F4
F4
F4
F4
F4
F4
F4
04
FC
ENDCHAR
STARTCHAR EE06
ENCODING 60934
SWIDTH 630 0
DWIDTH 7 0
BBX 5 2 1 6
BITMAP
70
88
ENDCHAR
STARTCHAR EE07
ENCODING 60935
SWIDTH 630 0
DWIDTH 7 0
BBX 4 6 3 2
BITMAP
C0
20
10
10
10
10
ENDCHAR
STARTCHAR EE08
ENCODING 60936
SWIDTH 630 0
DWIDTH 7 0
BBX 5 6 2 0
BITMAP
18
08
08
08
10
E0
ENDCHAR
STARTCHAR EE09
ENCODING 60937
SWIDTH 630 0
DWIDTH 7 0
BBX 7 4 0 0
BITMAP
82
82
C4
38
ENDCHAR
STARTCHAR EE0A
ENCODING 60938
SWIDTH 630 0
DWIDTH 7 0
BBX 4 6 0 0
BITMAP
80
80
80
80
40
30
ENDCHAR
STARTCHAR EE0B
ENCODING 60939
SWIDTH 630 0
DWIDTH 7 0
BBX 3 6 0 2
BITMAP
20
C0
80
80
80
80
ENDCHAR
STARTCHAR FEFF
ENCODING 65279
SWIDTH 0 0
DWIDTH 0 0
BBX 0 0 0 0
BITMAP
ENDCHAR
STARTCHAR FF62
ENCODING 65378
SWIDTH 630 0
DWIDTH 7 0
BBX 3 9 3 0
BITMAP
E0
80
80
80
80
80
80
80
80
ENDCHAR
STARTCHAR FF63
ENCODING 65379
SWIDTH 630 0
DWIDTH 7 0
BBX 3 10 1 -1
BITMAP
20
20
20
20
20
20
20
20
20
E0
ENDCHAR
STARTCHAR FFFD
ENCODING 65533
SWIDTH 630 0
DWIDTH 7 0
BBX 6 6 0 1
BITMAP
10
30
58
EC
38
10
ENDCHAR
ENDFONT
